<?xml version="1.0" encoding="utf-8"?>
<!-- Generator: Adobe Illustrator 19.2.0, SVG Export Plug-In . SVG Version: 6.00 Build 0)  -->
<!DOCTYPE svg PUBLIC "-//W3C//DTD SVG 1.1//EN" "http://www.w3.org/Graphics/SVG/1.1/DTD/svg11.dtd">
<svg version="1.1" id="Layer_1" xmlns="http://www.w3.org/2000/svg" xmlns:xlink="http://www.w3.org/1999/xlink" x="0px" y="0px"
	 viewBox="0 0 7108.4 1411.1" enable-background="new 0 0 7108.4 1411.1" xml:space="preserve">
<path fill="#FFFFFF" d="M2508.8,1296.1c-46.7,9.6-123.9,22.5-209.1,22.5c-138.4,0-368.4-4.8-368.4-265.4
	c0-215.6,119-223.5,278.3-249.2l304.1-49.9v-75.6c0-51.5-1.6-93.3-57.9-114.2c-30.6-12.9-75.6-19.3-146.4-19.3
	c-123.9,0-231.7,30.6-297.6,46.7c-3.2,0-6.4,1.6-9.7,1.6c-6.4,0-12.9-3.2-16.1-12.9l-14.5-72.4v-3.2c0-12.9,11.3-17.7,16.1-19.3
	c51.5-19.3,189.8-49.9,336.2-49.9c114.2,0,188.2,16.1,234.9,41.8c82,43.4,83.7,119,83.7,194.7v458.3
	C2642.4,1243,2619.8,1268.8,2508.8,1296.1z M2515.3,855.5l-296,49.9c-77.2,14.5-156,14.3-156,141.4c0,160.9,131.9,172.1,238.1,172.1
	c70.8,0,146.4-9.6,214-32.2V855.5z"/>
<path fill="#FFFFFF" d="M3364.3,1287.2c-51.5,12.9-119,32.2-246.1,32.2c-312.1,0-384.5-141.6-384.5-444
	c0-308.9,85.3-439.8,374.8-439.8c111,0,191.4,17.7,246.1,32.2l-16.1-93.3V133.1c0-12.9,8-17.7,20.9-19.3l86.9-22.5h4.8
	c11.3,0,14.5,11.3,14.5,20.9v1047.9C3465.7,1219.6,3465.7,1264.7,3364.3,1287.2z M3338.6,565.9c0,0-101.4-29-217.2-29
	c-177,0-255.8,53.7-255.8,340c0,305.7,93.3,341.1,257.4,341.1c119,0,215.6-30.6,215.6-30.6V565.9z"/>
<path fill="#FFFFFF" d="M4258.4,1249.2c0,12.9-6.4,21.2-19.3,27.6c-38.6,20.9-157.7,41.8-276.7,41.8
	c-318.5,0-405.4-146.4-405.4-439.2c0-294.4,86.9-443.9,405.4-443.9c119.1,0,238.1,22.5,276.7,41.8c12.9,6.4,19.3,14.5,19.3,27.3v8
	l-20.9,99.7c-3.2,14.5-14.5,19.3-24.1,19.3c-3.2,0-8-1.6-9.7-1.6c-37-9.7-107.8-25.7-183.4-25.7c-165.7,0-214,73.8-214,273.3
	c0,201.1,48.3,273.5,214,273.5c75.6,0,146.4-16.1,183.4-25.7c1.6,0,6.4-1.6,9.7-1.6c9.7,0,20.9,4.8,24.1,20.9l20.9,96.3V1249.2z"/>
<path fill="#FFFFFF" d="M4970.7,1297.1c-59.5,14.5-135.1,22.5-228.4,22.5c-186.6,0-392.5-24.1-392.5-275.1
	c0-205.9,132.5-230.8,249.9-248.5l279.9-45v-43.4c0-43.4-4.8-70.8-38.6-86.9c-22.5-11.3-61.1-16.1-114.2-16.1
	c-104.6,0-226.8,33.8-270.3,43.4c-3.2,1.6-8,3.2-11.3,3.2c-9.6,0-16.1-4.8-17.7-14.5l-24.1-111c-1.6-3.2-1.6-4.8-1.6-8
	c0-14.5,11.3-20.9,19.3-24.1c35.4-14.5,186.6-57.9,358.8-57.9c112.6,0,191.4,16.1,244.5,46.7c80.4,43.4,103,117.4,103,207.5
	l-0.6,440C5126.8,1252,5081.7,1272.9,4970.7,1297.1z M4881.2,898.9L4709,926.3c-61.1,9.6-114.8,18.5-114.8,115
	c0,112.6,90.1,122.3,154.4,122.3c59.5,0,111-11.3,131.9-17.7L4881.2,898.9z"/>
<path fill="#FFFFFF" d="M5533.9,1319c-140,0-268.7-33.8-297.6-46.7c-6.4-3.2-17.7-6.4-17.7-24.1v-9.7l20.9-103
	c1.6-14.5,8-19.3,17.7-19.3c3.2,0,4.8,0,8,1.6c20.9,4.8,136.7,37,236.5,37c72.4,0,135.1-22.5,135.1-91.7
	c0-78.8-49.9-83.7-133.5-99.7c-106.2-19.3-274.1-37.2-274.1-262.4c0-236.5,207.5-265.4,349.1-265.4c128.7,0,230.1,27.3,262.2,37
	c12.9,3.2,17.7,14.5,17.7,24.1v4.8L5839,607.7c-1.6,11.3-11.3,16.1-22.5,16.1c-1.6,0-3.2-1.6-4.8-1.6
	c-16.1-1.6-112.6-22.5-196.3-22.5c-62.7,0-138.4,12.9-138.4,83.7c0,83.7,77.2,86.9,159.3,101.4c120.7,20.9,248.4,51.7,248.4,257.6
	C5884.6,1253,5730.2,1319,5533.9,1319z"/>
<path fill="#FFFFFF" d="M6719.2,1319.8h-196.3c-16.1,0-25.7-9.7-25.7-24.1V707.5c0-70.8-24.1-106.2-101.4-106.2
	c-82,0-172.1,19.3-172.1,19.3v675.1c0,14.5-9.7,24.1-25.7,24.1h-196.3c-16.1,0-25.7-9.7-25.7-24.1V160.5c0-22.5,6.4-35.4,29-38.6
	l183.4-30.6h8c16.1,0,27.4,8,27.4,27.3v251l-17.7,99.7c75.6-17.7,170.5-33.8,251-33.8c180.2,0,288,51.5,288,230.1v630
	C6744.9,1310.1,6735.3,1319.8,6719.2,1319.8z"/>
<g>
	<path fill="#FFFFFF" d="M6991.6,239.5c-17,17-37.5,25.5-61.5,25.5c-24.1,0-44.5-8.5-61.5-25.5c-16.8-17.1-25.2-37.6-25.2-61.5
		c0-24,8.4-44.4,25.2-61.2c17-17,37.4-25.5,61.5-25.5c24,0,44.5,8.5,61.5,25.5c17,16.8,25.5,37.2,25.5,61.2
		C7017.1,202.1,7008.6,222.5,6991.6,239.5z M6978.7,129.7c-13.4-13.4-29.5-20-48.5-20s-35.2,6.6-48.5,20
		c-13.2,13.2-19.8,29.3-19.8,48.3c0,19,6.6,35.2,19.8,48.5c13.4,13.4,29.5,20.1,48.5,20.1s35.2-6.7,48.5-20.1
		c13.4-13.4,20-29.5,20-48.5C6998.6,159,6992,142.9,6978.7,129.7z M6946.4,191.2l20.7,32.5c1,1.9,0.6,2.8-1.2,2.8h-16
		c-1.2,0-2.3-0.6-3.1-1.8l-20.5-32h-14.7v31.8c0,1.4-0.7,2.1-2.1,2.1h-13.2c-1.4,0-2.2-0.7-2.2-2.1v-89.5c0-1.6,0.7-2.4,2.2-2.4
		h43.1c8.2,0,15.3,3,21.2,8.9c5.9,6,8.9,13,8.9,21C6969.7,177.9,6961.9,187.5,6946.4,191.2z M6947.2,152.1
		c-3.1-2.5-6.8-3.7-11.2-3.7h-24.3v28.7h24.1c4.7,0,8.5-1.3,11.5-4c3-2.6,4.5-6.2,4.5-10.6C6951.8,158.1,6950.2,154.6,6947.2,152.1z
		"/>
</g>
<g>
	<path fill="#5F154B" d="M1698.9,91.4h-391.5c-27.6,0-50,22-50,49.2v0.7v475.9v264.3v387.8c0,27.6,22.4,50,50,50h391.5
		c27.6,0,50-22.4,50-50v-259.5V384.1V141.3v-0.7C1748.9,113.4,1726.5,91.4,1698.9,91.4z"/>
	<path fill="#821C5F" d="M1116.2,271.2h-0.6H724.7h-0.6c-1.9,0-3.8,0.1-5.7,0.4c-0.5,0.1-1,0.2-1.5,0.2c-1.4,0.2-2.8,0.5-4.2,0.8
		c-0.5,0.1-0.9,0.2-1.4,0.4c-1.5,0.4-3,0.9-4.4,1.4c-0.2,0.1-0.4,0.2-0.7,0.2c-1,0.4-1.7,1.1-2.7,1.5c-2.6,1.2-5,2.5-7.3,4.2
		c-0.8,0.5-1.7,0.8-2.5,1.4c-1.4,1.1-2.4,2.5-3.7,3.7c-0.6,0.5-1.1,1.1-1.6,1.7c-0.9,1-1.9,1.9-2.8,2.9c-0.5,0.7-1.3,1.1-1.8,1.8
		c0,0,0,0,0,0c-6.1,8.3-9.8,18.4-9.8,29.4v428c0.2,0,0.4-0.1,0.6-0.1v520.3c0,27.6,22.4,50,50,50h391.5c27.6,0,49.9-22.4,49.9-50
		V321.1C1166.1,293.5,1143.8,271.2,1116.2,271.2z"/>
	<path fill="#9C1F6C" d="M532.8,434.1H141.3c-27.6,0-50,22.4-50,50v288.2v497.1c0,27.6,22.4,50,50,50h391.5c27.6,0,50-22.4,50-50
		V762.7V484.1C582.8,456.5,560.4,434.1,532.8,434.1z"/>
</g>
</svg>
