<svg xmlns="http://www.w3.org/2000/svg" viewBox="0 0 111.5 88.7" enable-background="new 0 0 111.5 88.7"><path fill="#454446" d="M92.1 5.5H17.5c-5.7 0-10.3 4.6-10.3 10.3V72c0 5.7 4.6 10.3 10.3 10.3h74.6c5.7 0 10.3-4.6 10.3-10.3V15.8c0-5.7-4.6-10.3-10.3-10.3zm.3 3.8c1.6 0 2.9 1.3 2.9 2.9s-1.3 2.9-2.9 2.9-2.9-1.3-2.9-2.9c0-1.6 1.3-2.9 2.9-2.9zm-8.3 0c1.6 0 2.9 1.3 2.9 2.9s-1.3 2.9-2.9 2.9-2.9-1.3-2.9-2.9c0-1.6 1.3-2.9 2.9-2.9zm-8.2 0c1.6 0 2.9 1.3 2.9 2.9s-1.3 2.9-2.9 2.9-2.9-1.3-2.9-2.9c0-1.6 1.3-2.9 2.9-2.9zm16.2 69.2H17.5c-1.9 0-3.6-.8-4.8-2.1h84c-1 1.3-2.7 2.1-4.6 2.1zm6.5-6.5c0 1.3-.4 2.4-1 3.5H12.1c-.7-1-1-2.2-1-3.5V18.2h87.5V72zM79.2 48l7.4-4.2-1.3-2.2-7.4 4.2 1.3 2.2zm-.3-14.1l-2-1.7-5.5 6.6 2 1.7 5.5-6.6zm3.2 23.2l8.3-1.5-.5-2.6-8.3 1.5.5 2.6zM31.8 45.8l-7.4-4.2-1.3 2.2 7.4 4.2 1.3-2.2zm6.4-7.1l-5.4-6.6-2 1.7 5.4 6.6 2-1.7zM28 54.6l-8.3-1.5-.5 2.5 8.3 1.5.5-2.5zm28.1-29.9h-2.6v8.5h2.6v-8.5zm12.2 2.6l-2.4-.9-2.9 8 2.4.9 2.9-8zm-21.6 7l-2.9-8-2.4.9 2.9 8 2.4-.9zm8.1 34.5c4.4 0 8-3.4 8.2-7.8l16.6-8.4-.5-1.6-18.2 4c-1.5-1.7-3.7-2.7-6.1-2.7-4.6 0-8.2 3.7-8.2 8.2 0 4.7 3.6 8.3 8.2 8.3zm0-11.5c1.8 0 3.3 1.5 3.3 3.3 0 1.8-1.5 3.3-3.3 3.3-1.8 0-3.3-1.5-3.3-3.3 0-1.8 1.5-3.3 3.3-3.3z"/></svg>