<svg xmlns="http://www.w3.org/2000/svg" viewBox="0 0 99.5 82.7" enable-background="new 0 0 99.5 82.7"><g fill="#424143"><path d="M91.3 30.1h-2.6l-1.6 2.6-1.6-2.6-1.5 2.6-1.6-2.6h-1.1v13c0 1.3-.7 2.5-1.6 3.3h.1v14.8c0 1.5 1.2 2.6 2.6 2.6 1.5 0 2.6-1.2 2.6-2.6V46.4h1v14.8c0 1.5 1.2 2.6 2.6 2.6 1.5 0 2.6-1.2 2.6-2.6V46.4c1.3 0 2.4-1.1 2.4-2.4V32.4c.1-1.2-1-2.3-2.3-2.3zM84.8 29.7c.3.1.5.1.7.1s.5 0 .7-.1c2-.3 3.6-2 3.6-4.2 0-2.3-1.9-4.2-4.2-4.2s-4.2 1.9-4.2 4.2c-.1 2.1 1.4 3.8 3.4 4.2zM80.2 40.2v-12c0-1.7-1.4-3.1-3.1-3.1h-3.4l-2.1 3.4-2.1-3.4-2.1 3.4-2.1-3.4h-1.2v17.5c0 1.7-.9 3.2-2.1 4.2v18.6c0 1.9 1.5 3.4 3.4 3.4s3.4-1.5 3.4-3.4V46.2h1.3v19.3c0 1.9 1.5 3.4 3.4 3.4s3.4-1.5 3.4-3.4V46.2c1.7 0 3.1-1.4 3.1-3.1v-2.9h.2zM68.7 24.5c.3.1.6.1.9.1s.6 0 .9-.1c2.6-.4 4.6-2.7 4.6-5.4 0-3-2.4-5.5-5.5-5.5-3 0-5.5 2.4-5.5 5.5 0 2.7 2 5 4.6 5.4zM17.3 43.2V30.1h-1l-1.6 2.6-1.6-2.6-1.6 2.6-1.5-2.6H7.3c-1.3 0-2.4 1.1-2.4 2.4V44c0 1.3 1.1 2.4 2.4 2.4v14.8c0 1.5 1.2 2.6 2.6 2.6s2.6-1.2 2.6-2.6V46.4h1v14.8c0 1.5 1.2 2.6 2.6 2.6s2.6-1.2 2.6-2.6V46.4h.1c-.8-.7-1.5-1.9-1.5-3.2zM12.4 29.7c.2.1.5.1.7.1.3 0 .5 0 .7-.1 2-.3 3.5-2 3.5-4.2 0-2.3-1.9-4.2-4.2-4.2s-4.2 1.9-4.2 4.2c0 2.1 1.5 3.9 3.5 4.2zM34.4 42.6V25.1h-1.3L31 28.4 28.9 25l-2 3.3-2.1-3.3h-3.4c-1.7 0-3.1 1.4-3.1 3.1v15c0 1.7 1.4 3.1 3.1 3.1v19.3c0 1.9 1.5 3.4 3.4 3.4s3.4-1.5 3.4-3.4V46.2h1.3v19.2c0 1.9 1.5 3.4 3.4 3.4s3.4-1.5 3.4-3.4V46.8c-1.1-1-1.9-2.5-1.9-4.2zM28.1 24.5c.3.1.6.1.9.1.3 0 .6 0 .9-.1 2.6-.5 4.5-2.7 4.5-5.4 0-3-2.4-5.5-5.5-5.5s-5.5 2.4-5.5 5.5c.1 2.8 2.1 5 4.7 5.4zM62.9 38.9V23.3c0-2.2-1.8-4-4-4h-4.3L52 23.6l-2.6-4.3-2.6 4.3-2.6-4.3h-4.3c-2.2 0-4 1.8-4 4v19.3c0 2.2 1.8 4 4 4h.1v24.7c0 2.4 2 4.4 4.4 4.4 2.4 0 4.4-2 4.4-4.4V46.5h1.6v24.7c0 2.4 2 4.4 4.4 4.4s4.4-2 4.4-4.4V46.5c2.2 0 4-1.8 4-4v-3.7h-.3zM48.2 18.6c.4.1.8.1 1.2.1.4 0 .8-.1 1.1-.1 3.4-.5 5.9-3.4 5.9-6.9 0-3.9-3.2-7.1-7.1-7.1s-7.1 3.2-7.1 7.1c.1 3.5 2.6 6.4 6 6.9z"/></g></svg>