<svg xmlns="http://www.w3.org/2000/svg" viewBox="0 0 108.2 86.7" enable-background="new 0 0 108.2 86.7"><g fill="#454446"><path d="M91.1 4.8H16.6c-5.7 0-10.3 4.6-10.3 10.3v56.2c0 5.7 4.6 10.3 10.3 10.3h74.5c5.7 0 10.3-4.6 10.3-10.3V15.1c0-5.7-4.6-10.3-10.3-10.3zm.3 3.9c1.6 0 2.9 1.3 2.9 2.9s-1.3 2.9-2.9 2.9-2.9-1.3-2.9-2.9c0-1.6 1.3-2.9 2.9-2.9zm-8.2 0c1.6 0 2.9 1.3 2.9 2.9s-1.3 2.9-2.9 2.9-2.9-1.3-2.9-2.9c-.1-1.6 1.3-2.9 2.9-2.9zm-8.3 0c1.6 0 2.9 1.3 2.9 2.9s-1.3 2.9-2.9 2.9c-1.6 0-2.9-1.3-2.9-2.9 0-1.6 1.3-2.9 2.9-2.9zm16.2 69.1H16.6c-1.9 0-3.6-.8-4.8-2.1h84c-1.1 1.3-2.8 2.1-4.7 2.1zm6.5-6.5c0 1.3-.4 2.4-1 3.5H11.1c-.7-1-1-2.2-1-3.5V17.6h87.5v53.7zM16.8 23.7h74.5v16.4H16.8zM16.8 44.5h21.3v2.8H16.8zM16.8 51.8h21.3v2.8H16.8zM16.8 59.1h21.3v2.8H16.8zM16.8 66.4h21.3v2.8H16.8zM43.5 44.5h21.3v2.8H43.5zM43.5 51.8h21.3v2.8H43.5zM43.5 59.1h21.3v2.8H43.5zM43.5 66.4h21.3v2.8H43.5zM70.3 44.5h21.3v2.8H70.3zM70.3 46.5h21.3v20.3H70.3zM70.3 66.4h21.3v2.8H70.3z"/></g></svg>