<svg xmlns="http://www.w3.org/2000/svg" viewBox="0 0 117.5 144.7" enable-background="new 0 0 117.5 144.7"><g fill="#B4B4B4"><path d="M14.8 9.9l-1.1-1.1c.7-.7 1.5-1.2 2.4-1.5l.5 1.4c-.7.3-1.3.7-1.8 1.2zM107.8 95.1c-.2-1.4-.6-3-1.3-4.8l1.4-.5c.6 1.8 1.1 3.5 1.3 5l-1.4.3zm-3.2-9.4c-.7-1.4-1.4-2.9-2.3-4.5l1.3-.7c.9 1.6 1.7 3.1 2.3 4.6l-1.3.6zm-4.8-8.8c-.9-1.4-1.8-2.8-2.8-4.2l1.3-.9c1 1.4 1.9 2.9 2.8 4.3l-1.3.8zm-5.7-8.3c-1-1.3-2-2.7-3-4l1.2-.9c1.1 1.4 2.1 2.7 3.1 4.1l-1.3.8zm-6.2-8c-1-1.3-2.1-2.6-3.2-3.9l1.1-1 3.3 3.9-1.2 1zm-6.6-7.7c-1.1-1.2-2.3-2.5-3.4-3.7l1.1-1c1.2 1.3 2.3 2.5 3.4 3.7l-1.1 1zm-6.9-7.3l-1.8-1.8-1.8-1.8 1.1-1.1 1.8 1.8 1.8 1.8-1.1 1.1zm-7.2-7.1c-1.2-1.2-2.5-2.3-3.7-3.4l1-1.1c1.2 1.1 2.5 2.3 3.7 3.4l-1 1.1zm-7.5-6.8c-1.3-1.1-2.6-2.2-3.9-3.2l1-1.2c1.3 1.1 2.6 2.1 3.9 3.3l-1 1.1zm-7.9-6.4c-1.3-1-2.7-2.1-4-3l.9-1.2c1.3 1 2.7 2 4.1 3.1l-1 1.1zm-8.1-5.9c-1.4-1-2.9-1.9-4.2-2.8l.8-1.3c1.4.9 2.8 1.8 4.3 2.8l-.9 1.3zm-8.6-5.3c-1.5-.9-3-1.6-4.5-2.3l.6-1.4 4.6 2.3-.7 1.4zm-9-4.2c-1.7-.6-3.3-1-4.8-1.3l.2-1.5c1.5.2 3.2.7 5 1.3l-.4 1.5zM107.6 102.7l-1.1-1.1c.5-.5.9-1.1 1.1-1.8l1.4.5c-.2.9-.7 1.7-1.4 2.4z"/></g><path fill="#B4B4B4" d="M13.7 102.7c-7.3-7.3 7.6-33.7 33.9-60C60 30.3 73.1 19.9 84.2 13.4c11.4-6.6 19.7-8.2 23.3-4.6l-1.1 1.1c-3-3-10.9-1.3-21.5 4.9-11.1 6.4-24 16.7-36.3 29-24.8 24.8-40.3 51.3-33.8 57.8l-1.1 1.1z"/><path fill="#F2F2F2" d="M60.7 16.1c-21.9 0-39.6 17.7-39.6 39.6 0 11.6 5 22 12.9 29.3.4.3.8.7 1.1 1 6.2 5.6 10.1 13.8 10.1 22.8v7.2h31v-7.2c0-9 3.9-17.2 10.1-22.8.4-.3.8-.7 1.1-1 7.9-7.2 12.9-17.7 12.9-29.3 0-21.8-17.8-39.6-39.6-39.6z"/><path fill="#fff" d="M63.5 71.7l-5.7-18.8-2 6.9H45.5v-2h8.8l3.5-11.9 5.7 18.8 2.1-6.9h10.2v2h-8.7z"/><g fill="#595A5C"><path d="M46.13 57.89l11.147 58.65-1.473.28-11.146-58.65zM75.19 57.88l1.475.28-11.152 58.65-1.474-.28z"/></g><g fill="#595A5C"><circle cx="75.8" cy="58.8" r="3"/><circle cx="45.5" cy="58.8" r="3"/></g><path fill="#595A5C" d="M43.4 116H78v18.3H43.4z"/><path fill="#818285" d="M41.8 118.6h37.7v2.6H41.8zM41.8 123.8h37.7v2.6H41.8zM41.8 129h37.7v2.6H41.8z"/><path fill="#B4B4B4" d="M49.4 134.2h22.5v6.4H49.4zM102.3 104.5c-11 0-32.8-14-54.6-35.8-26.4-26.3-41.3-52.6-34-59.9l1.1 1.1c-6.5 6.5 9.1 33 33.9 57.8 24.9 24.9 51.4 40.4 57.8 33.9l1.1 1.1c-1.2 1.2-3.1 1.8-5.3 1.8z"/><g fill="#B4B4B4"><path d="M107.6 11.7c-.2-.7-.6-1.4-1.1-1.8l1.1-1.1c.7.7 1.2 1.5 1.5 2.4l-1.5.5zM21.5 104.4l-.2-1.5c1.4-.2 3-.6 4.8-1.3l.5 1.4c-1.8.7-3.5 1.1-5.1 1.4zm9.8-3.3l-.6-1.4c1.4-.7 2.9-1.4 4.5-2.3l.7 1.3c-1.6.9-3.1 1.7-4.6 2.4zm9-5l-.8-1.3c1.4-.9 2.8-1.8 4.2-2.8l.9 1.3c-1.5 1-2.9 2-4.3 2.8zm8.4-5.7l-.9-1.2c1.3-1 2.7-2 4-3l.9 1.2c-1.3 1-2.6 2-4 3zm8.1-6.2l-1-1.2c1.3-1 2.6-2.1 3.9-3.2l1 1.1-3.9 3.3zm7.7-6.7l-1-1.1c1.2-1.1 2.5-2.3 3.7-3.4l1 1.1c-1.2 1.2-2.5 2.3-3.7 3.4zm7.4-6.9l-1.1-1.1 1.8-1.8 1.8-1.8 1.1 1.1-1.8 1.8-1.8 1.8zm7.1-7.3l-1.1-1c1.2-1.2 2.3-2.5 3.4-3.7l1.1 1c-1.1 1.2-2.2 2.4-3.4 3.7zm6.8-7.6l-1.1-1c1.1-1.3 2.2-2.6 3.2-3.9l1.2 1-3.3 3.9zm6.5-7.9l-1.2-.9c1-1.4 2.1-2.7 3-4l1.2.9c-.9 1.3-2 2.7-3 4zm6-8.2l-1.3-.8c1-1.4 1.9-2.9 2.8-4.2l1.3.8c-.9 1.3-1.8 2.8-2.8 4.2zm5.4-8.7l-1.3-.7c.9-1.5 1.6-3 2.3-4.5l1.4.6c-.8 1.5-1.6 3.1-2.4 4.6zm4.3-9.3l-1.4-.5c.6-1.7 1-3.3 1.3-4.8l1.5.2c-.3 1.6-.8 3.3-1.4 5.1zM16.2 104.2c-1-.3-1.8-.8-2.4-1.5l1.1-1.1c.5.5 1.1.9 1.8 1.1l-.5 1.5z"/></g><path fill="#9D226D" d="M113.3 13.4c0 2.5-2 4.5-4.5 4.5s-4.5-2-4.5-4.5 2-4.5 4.5-4.5c2.4-.1 4.5 2 4.5 4.5zM91.2 98.5c0 2.5-2 4.5-4.5 4.5s-4.5-2-4.5-4.5 2-4.5 4.5-4.5c2.4 0 4.5 2 4.5 4.5zM23.9 31.9c0 2.5-2 4.5-4.5 4.5s-4.5-2-4.5-4.5 2-4.5 4.5-4.5 4.5 2 4.5 4.5z"/></svg>