<svg xmlns="http://www.w3.org/2000/svg" viewBox="0 0 75.5 96.7" enable-background="new 0 0 75.5 96.7"><path fill="#444345" d="M25.9 81.7l8.1 7.6-1 3.2-8.1-7.5-11 1.8 1-3.2 11-1.9zm-4.6-48.5c2.6-9.7 12.5-15.5 22.2-12.9s15.4 12.5 12.9 22.2C53.8 52.2 43.9 58 34.2 55.4S18.7 42.9 21.3 33.2zm-13.7 13l5.4-8.4-5.4-8.4 8.9-4.5-.7-9.9 10 .5 4.5-8.9 8.4 5.4L47 6.6l4.5 8.9 10-.6-.5 9.9 8.9 4.5-5.4 8.4L70 46l-8.9 4.5.6 10-10-.5-4.5 8.9-8.4-5.4-8.3 5.5-4.5-8.9-10 .6.6-10-9-4.5zm25.9 11.5c11 2.9 22.3-3.7 25.2-14.7C61.6 32 55 20.7 44 17.8c-11-2.9-22.3 3.7-25.2 14.7-2.8 11 3.7 22.3 14.7 25.2zm18.2 24l-8.1 7.6 1 3.2 8.1-7.6 11 1.8-1-3.2-11-1.8zm10.3-.6l-5.4-17.6-2.9-.1-5.1 10.2-6.2-4-2.4 8 2.9 9.3 8.1-7.6 11 1.8zM38.9 67.4l-9.6 6.2-5.2-10.2-3.2.1L15.6 81l11-1.8 8.1 7.6 5.6-18.6-1.4-.8z"/></svg>