<?xml version="1.0" encoding="utf-8"?>
<!-- Generator: Adobe Illustrator 18.1.1, SVG Export Plug-In . SVG Version: 6.00 Build 0)  -->
<!DOCTYPE svg PUBLIC "-//W3C//DTD SVG 1.1//EN" "http://www.w3.org/Graphics/SVG/1.1/DTD/svg11.dtd">
<svg version="1.1" id="Layer_1" xmlns="http://www.w3.org/2000/svg" xmlns:xlink="http://www.w3.org/1999/xlink" x="0px" y="0px"
	 viewBox="0 0 187.5 113.3" enable-background="new 0 0 187.5 113.3" xml:space="preserve">
<g>
	<path fill="#424143" d="M154.9,98.4H21.7V12.3c0-2.3,1.9-4.2,4.2-4.2h126.1c1.6,0,2.8,1.3,2.8,2.8V98.4z"/>
	<path fill="#FFFFFF" d="M26.8,91.9V14.5c0-0.7,0.6-1.3,1.3-1.3h120.2c0.7,0,1.3,0.6,1.3,1.3v77.4H26.8z"/>
	<path fill="#FFFFFF" d="M164.3,98.2H97.1c-7.5,0-16.5,0-21.7,0H8.3v4.4h156.1V98.2z"/>
	<path fill="#424143" d="M8.3,102.6L8.3,102.6c0,0.1,1.4,3.7,4,3.7h135.6c14.8,0,15.7-1.7,16.4-3.6v-0.1H8.3z"/>
	<path fill="#292929" d="M77.2,101.3c0,0.3,0.2,0.5,0.5,0.5H95c0.3,0,0.5-0.2,0.5-0.5v-0.5c0-0.3-0.2-0.5-0.5-0.5H77.7
		c-0.3,0-0.5,0.2-0.5,0.5V101.3z"/>
	<path fill="#FFFFFF" d="M39.2,92c-2.8,0-5.1-2.3-5.1-5.1V22.4c0-2.8,2.3-5.1,5.1-5.1h96.3c2.8,0,5.1,2.3,5.1,5.1v64.5
		c0,2.8-2.3,5.1-5.1,5.1H39.2z"/>
	<path fill="#D2D3D4" d="M37.5,33V22.4c0-0.9,0.8-1.7,1.7-1.7h96.3c0.9,0,1.7,0.8,1.7,1.7V33H37.5z"/>
	<circle fill="#A8AAAD" cx="44.4" cy="26.8" r="2.4"/>
	<circle fill="#A8AAAD" cx="52.3" cy="26.8" r="2.4"/>
	<circle fill="#A8AAAD" cx="59.6" cy="26.8" r="2.4"/>
	<rect x="37.6" y="38.1" fill="#A8AAAD" width="16.5" height="2.7"/>
	<rect x="37.6" y="44.3" fill="#A8AAAD" width="32.4" height="2.7"/>
	<rect x="37.6" y="49.5" fill="#A8AAAD" width="20.4" height="2.7"/>
	<rect x="37.6" y="54.5" fill="#A8AAAD" width="8.6" height="2.7"/>
	<polygon fill="#9D226D" points="121.3,61.9 111,48.9 98.6,66.4 89.7,67.3 82.9,77.1 73.9,66.4 59,84.2 123.8,84.2 	"/>
	<polygon opacity="0.2" fill="#010101" points="121.5,57.7 108.3,74 105.5,72.7 	"/>
	<polygon fill="#9D226D" points="44.4,86.4 53.9,76.1 58.5,78.1 65.9,70.4 85.2,83.8 100.9,70.9 108.3,74 124.2,54 138.4,86.4 	"/>
	<polygon opacity="0.2" fill="#010101" points="100.9,70.9 83,82.2 85.2,83.8 	"/>
	<g>
		<g>
			
				<rect x="145.1" y="47.5" transform="matrix(-0.8036 0.5952 -0.5952 -0.8036 298.6261 4.1574)" fill="#424143" width="7" height="7.7"/>
			<path fill="#424143" d="M166.9,87.7c0.3,0.4,0.7,0.7,1.1,0.7c0.5,0.1,0.9,0,1.3-0.3l9.6-7.1c0.4-0.3,0.6-0.7,0.7-1.2
				c0.1-0.5-0.1-0.9-0.4-1.3l-24.6-29.9c-0.6-0.7-1.6-0.8-2.3-0.3l-6.4,4.7c-0.7,0.5-0.9,1.6-0.4,2.3L166.9,87.7z"/>
			
				<rect x="144.6" y="50.2" transform="matrix(0.8035 -0.5953 0.5953 0.8035 -1.0944 98.1773)" fill="#424143" width="7.1" height="1.1"/>
		</g>
		<g>
			<path fill="#424143" d="M112.5,47.2c-9-12.1-6.4-29.2,5.7-38.1c12.1-9,29.2-6.4,38.1,5.7c9,12.1,6.4,29.2-5.7,38.1
				C138.5,61.8,121.5,59.3,112.5,47.2z M146.2,46.8c8.8-6.5,10.6-18.9,4.1-27.7c-6.5-8.8-18.9-10.6-27.7-4.1
				c-8.8,6.5-10.6,18.9-4.1,27.7C125,51.5,137.4,53.3,146.2,46.8z"/>
		</g>
		<circle opacity="0.65" fill="#FFFFFF" cx="134.7" cy="31.3" r="20"/>
	</g>
	<polygon fill="#AD4984" points="144.2,35.1 144.2,35.1 138.2,35.1 133,38.5 132.8,35.1 127,35.1 127,35.1 127,24.1 127,24.1 
		144.2,24.1 144.2,24.1 	"/>
	<g>
		<g>
			<path fill="#F7F5F2" d="M134.6,30.3c0,0.9-0.5,1.9-1.9,1.9c-0.8,0-1.3-0.2-1.5-0.3c-0.1,0,0-0.1,0-0.3c0.1-0.2,0.1-0.3,0.2-0.3
				c0.2,0.1,0.6,0.3,1.3,0.3c0.8,0,1.1-0.6,1.1-1.4v-0.3c-0.2,0.3-0.7,0.4-1.2,0.4c-1.1,0-1.7-0.6-1.7-1.6v-0.5c0-1,0.6-1.7,1.8-1.7
				c1.2,0,1.8,0.5,1.8,1.8V30.3z M131.7,28.7c0,0.7,0.5,1,1,1c0.5,0,1.1-0.3,1.1-1.1v-0.4c0-0.9-0.6-1.1-1.1-1.1
				c-0.5,0-1.1,0.3-1.1,1V28.7z"/>
			<path fill="#F7F5F2" d="M137.6,32.2c-1.1,0-1.8-0.4-1.8-1.5v-2.6c0-1.1,0.7-1.5,1.8-1.5c1.1,0,1.8,0.4,1.8,1.5v2.6
				C139.4,31.8,138.7,32.2,137.6,32.2z M138.6,28.1c0-0.8-0.5-0.9-1.1-0.9c-0.6,0-1.1,0.2-1.1,0.9v2.6c0,0.8,0.5,0.9,1.1,0.9
				c0.6,0,1.1-0.1,1.1-0.9V28.1z"/>
		</g>
	</g>
</g>
</svg>
