<svg xmlns="http://www.w3.org/2000/svg" viewBox="0 0 91.5 93.3" enable-background="new 0 0 91.5 93.3"><path fill="#454446" d="M53.5 78.6c.2-.1.3-.2.6-.3-.2-.3-.3-.5-.5-.7-1.7.9-3.4 1.7-5.3 2.1-.6.1-1.2.2-1.8.2.5-.5 1-1.1 1.5-1.8.9-1.4 1.8-3.2 2.6-5.4-.2-.3-.3-.7-.5-1.1-.9 2.5-1.8 4.5-2.8 6-.9 1.2-1.7 2-2.6 2.4h-2.6c-.9-.4-1.7-1.2-2.6-2.4-2-2.8-3.7-7.7-4.8-13.9 2.7-.2 5.4-.3 8.3-.3 1.4 0 2.8 0 4.2.1-.1-.3-.1-.6-.2-.9-1.3 0-2.6-.1-4-.1-2.9 0-5.7.1-8.4.3-.9-5.3-1.4-11.5-1.5-18.1H53c.5-.5.9-.9 1.5-1.4-.1-6.5-.6-12.5-1.4-17.7 4.3-.3 8.4-.7 12.3-1.3 2 4.3 3.5 9.2 4.1 14.5.3 0 .6.1.9.1-.6-5.4-2-10.4-4.1-14.7 2-.3 4.1-.7 6-1.1 4 5.4 6.5 12 6.9 19.1 1.3.9 2.5 1.9 3.5 3v-1C82.5 22.6 65 5.1 43.4 5.1S4.2 22.6 4.2 44.2s17.5 39.1 39.1 39.1c4.4 0 8.8-.8 12.7-2.1-.8-.9-1.4-1.9-2.1-3 0 .2-.2.3-.4.4zM34 62.9c-4.3.3-8.4.7-12.3 1.3-2.7-5.5-4.3-12.3-4.3-19.4h15.1c.1 6.6.6 12.8 1.5 18.1zm-1.5-19H17.3c.1-7.1 1.7-13.9 4.3-19.4 3.9.6 8 1 12.3 1.3-.8 5.3-1.3 11.4-1.4 18.1zm21.3 0H33.3c0-6.6.6-12.8 1.4-18.1 2.7.2 5.5.3 8.4.3 3.1 0 6-.1 9-.3 1.2 5.2 1.7 11.4 1.7 18.1zm15-24.8c1 1 2 2.1 2.9 3.3-1.9.4-3.7.8-5.8 1.1-.9-1.8-2-3.5-3.1-5.1-2.6-3.6-5.8-6.4-9.4-8.3 6 1.6 11.2 4.8 15.4 9zM48.3 9c5.4 1.4 10.1 4.9 13.8 9.9 1.1 1.4 2 3.1 2.9 4.8-3.8.6-7.8 1-12 1.3-.4-2.3-.9-4.4-1.4-6.4-.9-3.3-2.1-6-3.4-7.9-.5-.7-1-1.3-1.5-1.8.4-.1 1 0 1.6.1zm-5.9-.3H45c.9.4 1.7 1.2 2.6 2.4 2 2.8 3.7 7.7 4.8 13.9-2.9.2-5.9.3-8.9.3-2.8 0-5.5-.1-8.3-.3.4-2.2.9-4.3 1.4-6.2.9-3.2 2.1-5.9 3.3-7.7.8-1.3 1.6-2 2.5-2.4zm-1.7 0c-.5.5-1 1.1-1.5 1.8-2 3-3.7 8-4.9 14.3-4.2-.3-8.3-.7-12.1-1.2.9-1.7 1.9-3.3 3-4.9 3.7-5 8.5-8.6 13.8-9.9.5.1 1.1 0 1.7-.1zM18.4 19.1c4.2-4.2 9.4-7.4 15.3-9-3.6 1.9-6.7 4.8-9.4 8.3-1.2 1.6-2.2 3.3-3.1 5.2-2-.3-3.9-.7-5.8-1 .9-1.3 1.9-2.5 3-3.5zm-3.6 4.2c2 .4 3.9.8 6 1.1C18 30 16.5 36.7 16.4 44H7.9c.1-7.9 2.6-14.9 6.9-20.7zM7.9 44.7h8.5c.1 7.2 1.6 13.9 4.3 19.6-2 .3-4.1.7-6 1.1-4.2-5.8-6.7-12.9-6.8-20.7zm10.5 24.8c-1.1-1.1-2-2.2-3-3.4 1.9-.4 3.8-.8 5.8-1 .9 1.9 2 3.6 3.1 5.2 2.6 3.6 5.8 6.4 9.4 8.3-5.9-1.7-11.2-4.8-15.3-9.1zm20.5 10.2c-5.4-1.4-10.1-4.9-13.8-9.9-1.1-1.4-2-3.1-3-4.9 3.8-.6 7.8-.9 12.1-1.2.4 2.3.9 4.5 1.5 6.4.9 3.3 2.1 6 3.4 7.9.5.7 1 1.3 1.5 1.8-.5 0-1.1 0-1.7-.1zM67.6 42c-9.6 0-17.4 7.8-17.4 17.4 0 7.2 4.3 14.4 8.4 19.7 4.2 5.4 8.3 8.9 8.3 8.9.2.2.5.3.8.3.3 0 .5-.1.8-.3 0 0 4.2-3.7 8.3-8.9 4.2-5.4 8.3-12.4 8.4-19.7-.1-9.6-8-17.4-17.6-17.4zm0 24.9c-4.2 0-7.5-3.4-7.5-7.5 0-4.2 3.4-7.5 7.5-7.5 4.2 0 7.5 3.4 7.5 7.5.1 4.1-3.3 7.5-7.5 7.5z"/></svg>