<svg xmlns="http://www.w3.org/2000/svg" viewBox="0 0 162.8 154" enable-background="new 0 0 162.8 154"><circle fill="#F1F0F0" cx="78.2" cy="76.4" r="72.5"/><path fill="#4C5156" d="M78.2 137.4c-33.6 0-61-27.4-61-61s27.4-61 61-61 61 27.4 61 61-27.3 61-61 61z"/><path fill="#F1F0F0" d="M78.2 125.9c-27.3 0-49.5-22.2-49.5-49.5s22.2-49.5 49.5-49.5 49.5 22.2 49.5 49.5-22.2 49.5-49.5 49.5z"/><path fill="#4C5156" d="M78.2 114.4c-20.9 0-38-17-38-38s17-38 38-38c20.9 0 38 17 38 38s-17 38-38 38z"/><path fill="#F1F0F0" d="M78.2 102.9c-14.6 0-26.4-11.9-26.4-26.4S63.7 50 78.2 50c14.6 0 26.4 11.9 26.4 26.4s-11.8 26.5-26.4 26.5z"/><path fill="#4C5156" d="M78.2 91.3c-8.2 0-14.9-6.7-14.9-14.9S70 61.5 78.2 61.5s14.9 6.7 14.9 14.9c.1 8.3-6.6 14.9-14.9 14.9z"/><path fill="#AD4984" d="M78.2 83c-3.6 0-6.6-3-6.6-6.6s3-6.6 6.6-6.6c3.7 0 6.6 3 6.6 6.6S81.9 83 78.2 83z"/><circle fill="#818285" cx="78.2" cy="9.9" r="3.2"/><circle fill="#818285" cx="78.2" cy="21.2" r="3.2"/><circle fill="#818285" cx="78.2" cy="32.5" r="3.2"/><circle fill="#818285" cx="78.2" cy="44.3" r="3.2"/><circle fill="#818285" cx="78.2" cy="55.9" r="3.2"/><circle fill="#818285" cx="78.2" cy="97.3" r="3.2"/><circle fill="#818285" cx="78.2" cy="108.6" r="3.2"/><circle fill="#818285" cx="78.2" cy="120.4" r="3.2"/><circle fill="#818285" cx="78.2" cy="131.7" r="3.2"/><circle fill="#818285" cx="78.2" cy="143.3" r="3.2"/><circle fill="#818285" cx="57.5" cy="77.2" r="3.2"/><circle fill="#818285" cx="46.2" cy="77.2" r="3.2"/><circle fill="#818285" cx="34.3" cy="77.2" r="3.2"/><circle fill="#818285" cx="23" cy="77.2" r="3.2"/><circle fill="#818285" cx="11.5" cy="77.2" r="3.2"/><circle fill="#818285" cx="98.9" cy="77.2" r="3.2"/><circle fill="#818285" cx="110.2" cy="77.2" r="3.2"/><circle fill="#818285" cx="122" cy="77.2" r="3.2"/><circle fill="#818285" cx="133.3" cy="77.2" r="3.2"/><circle fill="#818285" cx="144.9" cy="77.2" r="3.2"/><path fill="#AD4984" d="M116 58.1l3.7-13.7h4.3l-3.5 11.7zM126.7 53.2l3.7-13.7h4.3l-3.5 11.6zM137.4 48.3l3.7-13.8h4.3l-3.5 11.7zM117.1 62.1l12.6 6.6 2.9-3.2-11-5.3zM128.5 57.5l12.6 6.6 2.9-3.2-11-5.3zM139.5 53.1l12.6 6.5 2.9-3.1-10.9-5.3z"/><path fill="#9D226D" d="M77.6 76.9c-.2-.5 0-1 .5-1.2l67.1-30.9c.7-.3 1.5-.3 2.2 0 .7.3 1.3.9 1.5 1.6l.1.2c.5 1.4-.2 2.9-1.6 3.5L78.9 77.5c-.5.2-1 0-1.2-.5l-.1-.1z"/><path fill="#832061" d="M77.7 77c.2.5.8.7 1.2.5l68.5-27.6c1.4-.6 2-2.1 1.6-3.5l-.1-.2c0-.1-.1-.1-.1-.2L77.7 77z"/></svg>