<svg xmlns="http://www.w3.org/2000/svg" xmlns:xlink="http://www.w3.org/1999/xlink" viewBox="0 0 595.3 774.9" enable-background="new 0 0 595.3 774.9"><circle fill="#D3D5D6" cx="27.6" cy="338.2" r="27.6"/><defs><circle id="a" cx="27.6" cy="338.2" r="27.6"/></defs><clipPath id="b"><use xlink:href="#a" overflow="visible"/></clipPath><g clip-path="url(#b)"><path fill="#9C226D" d="M27.7 368.5c7.1 0 13.6-1.1 19.5-3.1l-1.4-12.3c-.1-1.6-2.7-2.7-5.7-3-8.2-1.4-16.6-1.4-24.8 0-3.1.1-5.5 1.4-5.7 3l-1.4 12.3c5.8 2 12.5 3.1 19.5 3.1z"/><path fill="#E6E7E8" d="M27.5 348.7c-3 0-5.9.3-8.9.8v.4c-3.8 10 7.1 10.3 8.9 12.9v-14.1zM27.3 348.7c3 0 5.9.3 8.9.8v.4c3.8 10-7.1 10.3-8.9 12.9v-14.1z"/><path fill="#58595B" d="M16.1 338.9c1.6 8.5 1.6 6.7 8.2 7.9 4.2.8 7.9-5.4 7.9-12 0-6.7-4.5-13.9-8.6-12.5-7.3 2.5-8.6 10-7.5 16.6z"/><path fill="#414042" d="M32.3 334.5c0-3.8-1.7-8.2-3.8-10.6-1-.6-2.1-.7-3.1-.1-8.5 4.8-8.6 9.9-7.5 16.4.6 2.8.8 4.5 1.3 5.5 1 .3 2.7.3 5.1.8 4.3.8 8-5.3 8-12z"/><path fill="#58595B" d="M39.1 338.9c-1.6 8.5-1.6 6.7-8.2 7.9-4.2.8-7.9-5.4-7.9-12 0-6.7 4.8-14.6 8.6-12.5 8.5 4.9 8.6 10 7.5 16.6z"/><path fill="#6D6E71" d="M37.6 340.3c-1.4 6.9-1.4 5.4-7.5 6.4-4 .6-7.2-4.4-7.2-9.8s4.4-11.9 7.9-10.2c7.8 4.2 7.8 8.4 6.8 13.6z"/><path fill="#414042" d="M30 325.1c-1.8-1-3.8.3-5.4 2.5-1 2.1-1.7 4.8-1.7 7.2 0 6.5 3.5 12.6 7.8 11.7 3.1-.6 4.8-.4 5.8-1.1.3-1 .6-2.3.8-4.1 1.1-6.3.9-11.4-7.3-16.2z"/><path fill="#E6E7E8" d="M32.7 345.7v-.4c-3.4-1.4-6.8-1.4-10 0v.4c0 5.2 2.3 9.5 5.1 9.5 2.6 0 4.9-4.2 4.9-9.5z"/><path fill="#D1D3D4" d="M32.7 345.7v-.4c-1-.4-2.1-.7-3.1-.8-1.1.1-2.3.6-3.4 1.3v.6c0 3.5.6 6.8 1.6 9.1 2.6-.3 4.9-4.5 4.9-9.8zM27.7 321.5c-5.9-.4-11.5 5.5-9.8 14.4 1.6 8.5 5.5 12.5 9.8 12.5s8.2-4 9.8-12.5c1.6-8.9-3.8-14.7-9.8-14.4zM19.8 338.6c.3 2 .1 3.4-.4 3.5-.6.1-1.3-.8-1.8-2.8-.6-2-.4-4 .3-4.1.6-.2 1.5 1.5 1.9 3.4zM35.7 338.6c-.3 2-.1 3.4.4 3.5s1.3-.8 1.8-2.8c.6-2 .4-4-.3-4.1-.8-.2-1.7 1.5-1.9 3.4z"/><path fill="#E6E7E8" d="M35.9 337.2c-1.4 6.9-5 10.2-8.8 10.2s-7.2-3.3-8.8-10.2c-1.4-7.2 3.4-12 8.8-11.7 5.5-.3 10.3 4.5 8.8 11.7z"/><path fill="#414042" d="M38.4 329.7c-1.3-5-5.4-8.1-9.9-8.2-.3 1.1-.6 2.4-.6 3.7 0 4.8 8.1 4.4 9.8 9.9-.1.1 1.2-1.1.7-5.4z"/><path fill="#58595B" d="M27.7 325.2c-5-.3-9.6 4.1-8.9 10.8 1.8.6 3.8.8 5.9.8.8 0 1.7 0 2.5-.1l.3-.4 2-3.3-1 3.4c.1 0 .4-.1.6-.1l.6-.8 2.7-4.7 1.8 3.7s1.7-1 2.4-1.7c-.9-4.9-4.8-7.9-8.9-7.6zM17 336.1c1 .3 2 .3 3.1.3 7.5 0 13.4-4.8 13.4-10.6 0-1-.1-2.1-.6-3-1.6-.8-3.4-1.3-5.4-1.1-6.3-.6-12.4 5.5-10.5 14.4z"/><path fill="#414042" d="M33.5 327c-.3 1.3-.7 2.5-1.3 3.7l2 3.7s1.8-1 2.5-1.7c-.3-2.4-1.6-4.2-3.2-5.7z"/><path fill="#58595B" d="M34.4 328.5c1.6 1.3 2.8 3.5 3.5 6.4.3-.6.8-2.1.4-5.1-.7-2.7-2.3-5.1-5.1-6.9.3.6 1.3 1.8 1.3 2.4.3 1.2.2 2.2-.1 3.2z"/><path fill="#414042" d="M37.8 343.6c.1-.7.3-1.7.6-2.7 1-5.4 1-9.9-3.7-14-.1.1-.3.4-.4.6 4.7 4.1 5 7.5 3.8 13.9-.2.9-.5 2.3-.3 2.2z"/></g><circle fill="#D3D5D6" cx="506" cy="622.4" r="27.2"/><defs><circle id="c" cx="506" cy="622.4" r="27.2"/></defs><clipPath id="d"><use xlink:href="#c" overflow="visible"/></clipPath><g clip-path="url(#d)"><path fill="#9C226D" d="M505.7 649.9c8.4 0 16.3-1.3 23.2-3.4l-1.7-13.2c-.1-1.6-3.1-2.7-6.8-3.1-9.9-1.1-19.7-1.1-29.6 0-3.7.4-6.5 1.6-6.8 3.1l-1.7 13.2c7.1 2.2 15 3.4 23.4 3.4z"/><path fill="#831E61" d="M528.9 646.6l-1.7-13.2c-.1-1.6-3.1-2.7-6.8-3.1-5.1-.6-10.2-.8-15.3-.8l-4.7 6.7 18.3 12.7c3.5-.6 6.9-1.3 10.2-2.3z"/><path fill="#E6E7E8" d="M512.1 632.6c-.3 3-3.3 5.1-6.8 5.1s-6.7-2.1-6.8-5.1c-.1-1.6-.1-3-.3-4.5-.3-3 3-5.8 7.1-5.7 4.1 0 7.4 2.8 7.1 5.8-.2 1.4-.2 3-.3 4.4z"/><path fill="#D1D3D4" d="M507.5 622.7c-1.7.8-3 3.7-3 7.2v6.4c0 .6 0 1 .1 1.6h.4c3.5 0 6.7-2.1 6.8-5.1 0-.8.1-1.7.1-2.4.1-1.7-.1-3.4-.6-4.7-.5-1.4-1.9-2.6-3.8-3z"/><path fill="#58595B" d="M505.3 606.7c-7.6-.1-9.5 4.8-9.1 13.6.1 3.4 1 5.9 1.7 7.8.3.7 4 5.1 5.2 5.1.6 0 1.4.1 2.1.1.7 0 1.6-.1 2.1-.1 1.1 0 5-4.5 5.1-5.1.7-2 1.6-4.5 1.7-7.8.5-8.5-1.9-13.7-8.8-13.6z"/><path fill="#D1D3D4" d="M498.5 622.7c0 .8-.4 1.7-1.1 1.8-.6.1-1.1-.6-1.3-1.4-.1-1.4-.1-3-.3-4.4 0-.8.4-1.7 1.1-1.8.7-.1 1.3.6 1.3 1.6.1 1.2.1 2.6.3 4.2zM514.2 623c0 .8-.6 1.6-1.3 1.4-.6-.1-1.1-.8-1.1-1.8 0-1.4.1-3 .1-4.4 0-.8.6-1.6 1.3-1.6.7.1 1.1.8 1.1 1.8 0 1.6-.1 3.2-.1 4.6z"/><path fill="#E6E7E8" d="M512.5 618.6c-.1-4 .4-7.6.4-7.6s-3.7-2-6.7-1.8c-.3 0-.7.1-1 .3-.4-.1-.7-.3-1-.3-3-.1-6.7 1.8-6.7 1.8s.6 3.7.4 7.6c-.1 4-.7 7.4.6 8.5 1.3 1.1 3.5 3.7 6.5 3.8h.2c3-.1 5.2-2.7 6.5-3.8 1.5-1 .9-4.5.8-8.5z"/><path fill="#D1D3D4" d="M513.6 611.1s-4.1-2-7.2-1.8c-.3 0-.6 0-.8.1v21.5c3.3-.1 5.7-2.7 7.1-3.8 1.4-1.1.8-4.5.7-8.5-.5-4 .1-7.5.2-7.5z"/><g fill="#58595B"><path d="M496.8 618.5s-.7-8.4-1.3-9.2c-.6-.8 7.2-2.5 9.6-2.5 2.3-.1 4.4.6 5.8.8 1.3.3-5.1 5.2-5 5.4.1-.4.3-.8.4-1.4-.4.4-1 .7-1.4 1.1-2-.6-4-1-6.1-1.4v3.3c-.4.6-.8 1.1-1.1 1.7-.1.7-.1 1.4-.3 2.1-.3.1-.5.1-.6.1zM513.6 618.5s1-8.4 1.3-9.2c.4-1-7.2-2.5-9.6-2.5-2.3-.1-4.2.6-5.5.8-.8.1 6.8-.3 8.9 1.1.7.4-2.3 4-2.1 4.1 1.7-.6 3.4-1 5.1-1.4v3.3c.4.6.8 1.1 1.1 1.7.1.7.1 1.4.3 2.1h.5z"/></g><path fill="#58595B" d="M500 622.3c-1 0-1.8-.4-2.4-1-.6-.6-.8-1.3-.8-2.1v-.7c0-.1 0-.4.1-.6v-.3h.1c1.8-.6 4-.7 5.9-.3.3.1 1.3.4 1.3 1.1v.7c0 .7-.3 1.4-.7 2-.6.7-1.6 1.1-2.4 1.1l-1.1.1zm-2.4-4v.8c0 .6.1 1.1.6 1.6.4.6 1.1.8 1.8.8h1.3c.7 0 1.4-.3 2-.8.4-.4.6-.8.6-1.4v-.7c0-.1-.4-.3-.7-.4-2-.5-3.9-.5-5.6.1zM509.8 622.3c-1 0-1.8-.4-2.4-1-.6-.6-.8-1.3-.8-2.1v-.7c0-.1 0-.4.1-.6v-.3h.1c2-.6 4-.7 5.9-.3.3.1 1.3.4 1.3 1.1v.7c0 .7-.3 1.4-.7 2-.6.7-1.6 1.1-2.4 1.1l-1.1.1zm-2.4-4v.8c0 .6.1 1.1.6 1.6.4.6 1.1.8 1.8.8h1.3c.7 0 1.4-.3 2-.8.4-.4.6-.8.6-1.4v-.7c0-.1-.4-.3-.7-.4-2.1-.5-3.9-.5-5.6.1zM503.9 618.3h3.3v1.4h-3.3zM509.2 626c-.4-.6-1.7-1.1-3.3-1.1 0 0-.6.4-.6.3l-.6-.3c-1.6 0-2.8.6-3.3 1.1-2.4 4.5-3.3.6-4.2-.8 1.7 4.1 3.4 7.1 7.9 7.8h.1l1.4-.1c2.8 0 4.8-3.5 6.7-7.6-.8 1.2-1.7 5.2-4.1.7z"/><path fill="#F2EFDC" d="M503.6 626.8v.3c0 .6.6 1.1 1.3 1.1h1.4c.7 0 1.3-.4 1.3-1.1v-.3h-4z"/></g><circle fill="#D3D5D6" cx="344.5" cy="715.8" r="27.7"/><circle fill="#D3D5D6" cx="344.5" cy="715.8" r="27.7"/><defs><circle id="e" cx="344.5" cy="715.8" r="27.7"/></defs><clipPath id="f"><use xlink:href="#e" overflow="visible"/></clipPath><g clip-path="url(#f)"><ellipse fill="#939598" cx="344.8" cy="711.6" rx="15.4" ry="14.6"/><path fill="#9C226D" d="M344.6 744.7c6.4 0 12.3-1 17.5-2.8l-1.3-11.2c-.1-1.4-2.4-2.4-5.1-2.7-7.4-1.3-15-1.3-22.4 0-2.8.1-5 1.3-5.1 2.7l-1.3 11.2c5.4 1.8 11.4 2.8 17.7 2.8z"/><path fill="#E6E7E8" d="M353 728v-.3c-5.5-1-11-1-16.6 0v.3c0 3.7 3.7 9.9 8.2 9.9s8.4-6.2 8.4-9.9zM349.2 724.7v-.4c-3-1.1-6.1-1.1-9.1 0v.4c0 4.4 2 7.9 4.5 7.9 2.6.1 4.6-3.5 4.6-7.9z"/><path fill="#D1D3D4" d="M349.2 721.8v-.4c-3-1.1-6.1-1.1-9.1 0v.4c0 4.1 2 7.5 4.5 7.5 2.6 0 4.6-3.3 4.6-7.5zM345.8 723.6v8.9c2-.8 3.4-4 3.4-7.6v-.4c-1.2-.6-2.3-.9-3.4-.9z"/><path fill="#BCBEC0" d="M345.8 729c1.4-.7 2.7-2.4 3.1-4.8-1-.4-2.1-.6-3.1-.7v5.5z"/><path fill="#E6E7E8" d="M344.8 702.5c-5.4-.4-10.3 5.1-8.9 13.3 1.4 7.9 5 11.6 8.8 11.7 3.8 0 7.4-3.7 8.9-11.6 1.4-8.1-3.5-13.8-8.8-13.4z"/><path fill="#D1D3D4" d="M344.8 702.5h-.3v24.9c3.8 0 7.4-3.7 8.9-11.6 1.6-8-3.3-13.7-8.6-13.3z"/><path fill="#939598" d="M344.3 700.5c-4.4-.3-8.5 4.1-10.8 11.9.3.4-.6 2-.3 2.4l3.8-1.3 1.8-5.7s1.7 5.2 3.5 5.8l-.8-3.4s1.8 2.8 3.5 3.5c3 1.3 9.2 1.1 9.2 1.1.4-.7 1-3 1.4-3.8-2.5-7.1-6.9-11.2-11.3-10.5z"/><path fill="#58595B" d="M339.7 720.2h-.6c-1.4-.1-2.7-.7-3.4-1.6-.4-.6-.7-1.1-.6-1.7.1-1.6 2.1-2.8 4.5-2.5 1.4.1 2.7.7 3.4 1.6.4.6.7 1.1.6 1.7-.1 1.4-1.8 2.5-3.9 2.5zm-.6-5.2c-1.8 0-3.3.8-3.4 2 0 .4.1.8.4 1.3.6.7 1.7 1.3 3 1.4 2 .1 3.7-.7 3.8-2 0-.4-.1-.8-.4-1.3-.6-.7-1.7-1.3-3-1.4h-.4zM349.7 720.2c-2.1 0-3.8-1.1-4-2.7 0-.8.3-1.6 1.1-2.3.7-.6 1.8-1 3-1.1 2.4-.1 4.4 1 4.5 2.5 0 .6-.1 1.3-.6 1.7-.7.8-2 1.4-3.4 1.6-.3.3-.4.3-.6.3zm.6-5.2h-.4c-1 .1-2 .4-2.5 1-.6.4-1 1.1-.8 1.7.1 1.3 1.8 2.3 3.8 2 1.3-.1 2.4-.6 3-1.4.3-.4.6-.8.4-1.3-.3-1.2-1.8-2-3.5-2zM346.2 717.5c-1-.3-2-.3-3 0 0-.3-.1-.4-.1-.7 1.1-.3 2.3-.3 3.4 0-.2.2-.3.4-.3.7z"/></g><circle fill="#D3D5D6" cx="194" cy="272.7" r="27.2"/><defs><circle id="g" cx="194" cy="272.7" r="27.2"/></defs><clipPath id="h"><use xlink:href="#g" overflow="visible"/></clipPath><g clip-path="url(#h)"><path fill="#9C226D" d="M198.4 303.1c5.8-.3 11.3-1.4 16.4-3.1l-1.4-12.9c-.1-1.6-2.7-2.8-5.9-3.1-2-.4-4-.6-5.9-.8v-1.6c-4.7-.6-9.3-.6-14 0v1.6c-2 .1-4 .4-5.9.8-3.3.3-5.8 1.4-5.9 3.1l-1.4 12.9c5 1.7 10.5 2.8 16.4 3.1.6 0 1.1 0 1.7.1h4.6c.2-.1.8-.1 1.3-.1z"/><path fill="#831E61" d="M207.3 284c-2-.4-4-.6-5.9-.8v-1.6c-2.3-.3-4.7-.4-6.9-.4l-4.4 7.1 20.8 12.9c1.4-.4 2.7-.7 4-1.1l-1.4-12.9c-.4-1.8-2.9-3-6.2-3.2z"/><g fill="#9C226D"><path d="M188.2 286.7l-.4-.4v-4.2h.6c-.2 1.5-.2 3-.2 4.6zM189.2 287.6c-.1-.1-.4-.3-.6-.4 0-1.7.1-3.4.1-5.1h.6c.1 1.8.1 3.6-.1 5.5zM190.4 288.1c-.1-.1-.4-.1-.6-.3.1-2 .1-4 .1-5.8h.6c0 2 0 4.1-.1 6.1zM191.5 288.5c-.1 0-.4-.1-.6-.1 0-2.1.1-4.2.1-6.4h.6c0 2.2 0 4.4-.1 6.5zM192.8 288.8c-.1 0-.4-.1-.6-.1 0-2.3.1-4.5.1-6.8h.6c0 2.4-.1 4.7-.1 6.9zM194 289h-.6c0-2.3 0-4.7.1-6.9h.6c-.1 2.2-.1 4.6-.1 6.9zM195.3 289h-.6v-7.1h.6c-.1 2.4-.1 4.7 0 7.1zM196.4 288.7c-.1 0-.4.1-.6.1 0-2.3-.1-4.5-.1-6.9h.6c0 2.4.1 4.5.1 6.8zM197.7 288.4c-.1.1-.4.1-.6.1 0-2.3-.1-4.4-.1-6.7h.6c0 2.4 0 4.5.1 6.6zM198.9 287.8c-.1.1-.4.1-.6.3-.1-2-.1-4.1-.3-6.1h.6c.1 1.9.1 3.9.3 5.8zM199.8 287.1c-.1.1-.3.3-.6.4 0-1.8-.1-3.7-.1-5.5h.6c.1 1.7.1 3.4.1 5.1zM200.8 286.3l-.4.4c0-1.6 0-3.1-.1-4.8h.6c-.1 1.5-.1 3-.1 4.4z"/></g><g fill="#831E61"><path d="M187.7 286.6l-.4-.4v-4.5h.6c-.2 1.6-.2 3.2-.2 4.9zM188.7 287.4c-.1-.1-.4-.3-.6-.4 0-1.8.1-3.7.1-5.5h.6c0 2.1 0 3.9-.1 5.9zM189.8 288.1c-.1-.1-.4-.1-.6-.3 0-2.1.1-4.1.1-6.2h.6c0 2.1 0 4.3-.1 6.5zM191.1 288.5c-.1 0-.4-.1-.6-.3 0-2.3.1-4.5.1-6.8h.6c-.1 2.5-.1 4.9-.1 7.1zM192.2 288.8c-.1 0-.4-.1-.6-.1 0-2.4.1-4.8.1-7.2h.6c0 2.5-.1 4.9-.1 7.3zM193.5 289h-.6c0-2.4 0-5 .1-7.4h.6c-.1 2.4-.1 5-.1 7.4zM194.7 289h-.6v-7.5h.6c-.1 2.5-.1 5.1 0 7.5zM195.9 288.8c-.1 0-.4.1-.6.1 0-2.4-.1-4.8-.1-7.4h.6c.1 2.5.1 4.9.1 7.3zM197.2 288.4c-.1.1-.4.1-.6.3 0-2.4-.1-4.7-.1-7.1h.6c-.1 2.3-.1 4.5.1 6.8zM198.3 287.8c-.1.1-.4.3-.6.3-.1-2.1-.1-4.4-.3-6.5h.6c.1 2 .1 4.1.3 6.2zM199.4 287c-.1.1-.3.3-.6.4 0-2-.1-4-.1-5.9h.6c0 1.9 0 3.8.1 5.5zM200.4 286.1l-.4.4c0-1.7 0-3.4-.1-5.1h.6c-.1 1.6-.1 3.2-.1 4.7z"/></g><path fill="#D1D3D4" d="M186.5 273.7c0 .4-.3.7-.7.7-.4 0-.7-.3-.7-.7v-4.1c0-.4.3-.7.7-.7.4 0 .7.3.7.7v4.1zM203.4 273.7c0 .4-.3.7-.7.7-.4 0-.7-.3-.7-.7v-4.1c0-.4.3-.7.7-.7.4 0 .7.3.7.7v4.1z"/><path fill="#E6E7E8" d="M202.4 269.6c-.6-4.8-.1-7.5-.1-7.5s-7.5-4.4-10.5-4.4c-2.7.1-5.5 4.4-5.5 4.4s.3 2.7-.1 7.5c-.6 4.8-1.6 9.1 0 10.6 1.6 1.6 4.1 4.8 7.9 5.1h.6c3.8-.1 6.5-3.5 7.9-5.1 1.2-1.6.2-5.7-.2-10.6z"/><path fill="#D1D3D4" d="M202.2 262.1s-4.7-2.7-8.1-3.8v27h.3c3.8-.1 6.5-3.5 7.9-5.1 1.6-1.6.6-5.7 0-10.6-.5-4.8-.1-7.5-.1-7.5z"/><path fill="#414042" d="M185.8 269c.1-.4.6-.8.8-1 1.8-.4 3.8-.4 5.7 0 .4.1.7.4.8 1h.3c-.1-.7-.7-1.3-1.3-1.4-1-.3-1.8-.3-2.8-.3-1 0-1.8.1-2.8.3-.4.1-1.4 1-1.4 1-.1 0-.1.1-.1.3v.1h.8z"/><path opacity=".3" fill="#fff" enable-background="new" d="M193 272.4c-.1.7-.7 1.3-1.1 1.3-1.6.1-3.1.1-4.7 0-.4 0-1-.7-1.1-1.4-.1-.8-.3-1.7-.3-2.5 0-.7.4-1.4 1-1.6 1.8-.4 3.8-.4 5.7 0 .6.1 1 .8 1 1.6-.2.9-.2 1.8-.5 2.6z"/><path fill="#414042" d="M192.5 267.9c-1-.1-1.8-.3-2.8-.3-1 0-1.8.1-2.8.3-.4.1-1.4 1-1.4 1-.1 0-.1.1-.1.3v1.7c0 .1.1.1.1.3.1 0 .3.4.3.6 0 .3.1.6.1.8.1.8.8 1.6 1.4 1.7.8 0 1.6.1 2.4.1s1.6 0 2.4-.1c.6 0 1.3-.8 1.4-1.7s.3-1.7.3-2.5c0-1.1-.6-2.1-1.3-2.2zm.5 4.5c-.1.7-.7 1.3-1.1 1.3-1.6.1-3.1.1-4.7 0-.4 0-1-.7-1.1-1.4-.1-.8-.3-1.7-.3-2.5 0-.7.4-1.4 1-1.6 1.8-.4 3.8-.4 5.7 0 .6.1 1 .8 1 1.6-.2.9-.2 1.8-.5 2.6zM186.4 273c-.1-.1-.3-.4-.3-.7-.1-.8-.3-1.7-.3-2.5 0-.7.4-1.4 1-1.6 1.8-.4 3.8-.4 5.7 0 .3 0 .4.3.7.6-.1-.3-.4-.6-.8-.7-1.8-.4-3.8-.4-5.7 0-.6.1-1 .8-1 1.6s.1 1.7.3 2.5c0 .3.1.6.4.8zM202.5 269c-.1-.4-.6-.8-.8-1-1.8-.4-3.8-.4-5.7 0-.4.1-.7.4-.8 1h-.3c.1-.7.7-1.3 1.3-1.4 1-.3 1.8-.3 2.8-.3s1.8.1 2.8.3c.4.1 1.4 1 1.4 1 .1 0 .1.1.1.3v.1h-.8z"/><path opacity=".3" fill="#fff" enable-background="new" d="M195.3 272.4c.1.7.7 1.3 1.1 1.3 1.6.1 3.1.1 4.7 0 .4 0 1-.7 1.1-1.4.1-.8.3-1.7.3-2.5 0-.7-.4-1.4-1-1.6-1.8-.4-3.8-.4-5.7 0-.6.1-1 .8-1 1.6.2.9.4 1.8.5 2.6z"/><path fill="#414042" d="M196 267.9c1-.1 1.8-.3 2.8-.3 1 0 1.8.1 2.8.3.4.1 1.4 1 1.4 1 .1 0 .1.1.1.3v1.7c0 .1-.1.1-.1.3-.1 0-.3.4-.3.6 0 .3-.1.6-.1.8-.1.8-.8 1.6-1.4 1.7-.8 0-1.6.1-2.4.1-.8 0-1.6 0-2.4-.1-.6 0-1.3-.8-1.4-1.7s-.3-1.7-.3-2.5c-.1-1.1.6-2.1 1.3-2.2zm-.7 4.5c.1.7.7 1.3 1.1 1.3 1.6.1 3.1.1 4.7 0 .4 0 1-.7 1.1-1.4.1-.8.3-1.7.3-2.5 0-.7-.4-1.4-1-1.6-1.8-.4-3.8-.4-5.7 0-.6.1-1 .8-1 1.6.2.9.4 1.8.5 2.6zM202.1 273c.1-.1.3-.4.3-.7.1-.8.3-1.7.3-2.5 0-.7-.4-1.4-1-1.6-1.8-.4-3.8-.4-5.7 0-.3 0-.4.3-.7.6.1-.3.4-.6.8-.7 1.8-.4 3.8-.4 5.7 0 .6.1 1 .8 1 1.6s-.1 1.7-.3 2.5c-.1.3-.3.6-.4.8z"/><g fill="#414042"><path d="M194.3 268.7c-.3 0-.7 0-1-.3.3.6.4 1.6.3 2.3.1-.6.4-.7.7-.6v-1.4zM194 268.7c.3 0 .7 0 1-.3-.3.6-.4 1.6-.3 2.3-.1-.6-.4-.7-.7-.6v-1.4z"/></g><path fill="#808285" d="M186.3 265.8s-1.3-5.8 1-7.5c2-1.4 3.1-1 3.1-1s2.1-3.7 5.9-2.7c3.8.8 5.5 2.4 5.5 2.4h-2.1s2.4.3 3.5 4.4c1 4.1-1-.1-1-.1l-.1 6.9-2.7-5.5s-4.2-3.7-7.2-3.7-5.9 3.6-5.9 6.8zM193.2 258.3s3.3 1.6 3.4 3.5c.1 2 .3-2.4 0-2.8-.3-.4 1.8 2.7 1.7 4.5-.1 1.8.8-2.7.8-2.7s-1.1-3.3-5.9-2.5zM192.9 259.2s-3.5 1.4-4.8 4.5c-1.3 3 1.3-4 1.7-4.5s-3.1 3.7-4 6.7c-1 3 .8-4.5.8-4.5s2.8-4.8 6.3-2.2z"/></g><circle fill="#D3D5D6" cx="543.2" cy="356.1" r="28.7"/><defs><circle id="i" cx="543.2" cy="356.1" r="28.7"/></defs><clipPath id="j"><use xlink:href="#i" overflow="visible"/></clipPath><g clip-path="url(#j)"><g fill="#58595B"><path d="M562.2 358.3c-.4-1-.8-2-1.4-3-2.7-4.4-6.5-6.9-8.6-5.7-2.1 1.3-1.7 5.8.8 10.3.6 1 1.3 1.8 2 2.7l7.2-4.3zM524.5 358.3c.4-1 .8-2 1.4-3 2.7-4.4 6.5-6.9 8.6-5.7 2.1 1.3 1.7 5.8-.8 10.3-.6 1-1.3 1.8-1.8 2.7l-7.4-4.3z"/></g><path fill="#FDC015" d="M534.4 352.4c-.3.3-.8.3-1.1-.1l-1.8-2.1c-.3-.3-.3-.8.1-1.1.3-.3.8-.3 1.1.1l1.8 2.1c.3.2.3.8-.1 1.1zM552.1 352.1c-.3-.3-.3-.8.1-1.1l2.1-1.8c.3-.3.8-.3 1.1.1.3.3.3.8-.1 1.1l-2.1 1.8c-.4.2-.8.2-1.1-.1z"/><path fill="#58595B" d="M543.3 338.9c-6.7-.3-12.7 5-10.9 13 1.8 7.6 6.2 11.2 10.9 11.2s9.1-3.5 10.9-11.2c1.9-8-4.2-13.4-10.9-13z"/><path fill="#D1D3D4" d="M536.5 355.5c.3 1.7.1 2.8-.3 3-.4.1-1.1-.7-1.6-2.4-.4-1.7-.4-3.3.3-3.4.7-.3 1.4 1.1 1.6 2.8zM550.1 355.5c-.3 1.7-.1 2.8.3 3 .4.1 1.1-.7 1.6-2.4.4-1.7.4-3.3-.3-3.4-.6-.3-1.3 1.1-1.6 2.8z"/><path fill="#9C226D" d="M543.5 388.7c5.5 0 10.8-1.3 15.4-3.5l-1.1-13.9c-.1-1.7-2.1-3.1-4.5-3.3-6.5-1.7-13-1.7-19.5 0-2.4.3-4.4 1.6-4.5 3.3l-1.1 13.9c4.5 2.3 9.8 3.5 15.3 3.5z"/><path fill="#E6E7E8" d="M550.7 367.5c-4.8-.8-9.8-.8-14.6 0 0 3.3 3.3 8.6 7.4 8.6 3.8.1 7.1-5.3 7.2-8.6zM547.6 361.1v-.7c-2.8-2.1-5.7-2.1-8.5 0v.7c0 8.2 2 14.7 4.2 14.7 2.4.2 4.3-6.4 4.3-14.7z"/><path fill="#D1D3D4" d="M547.6 359.9v-.3c-2.8-1-5.7-1-8.5 0v.3c0 3.7 2 6.8 4.2 6.8 2.4 0 4.3-3 4.3-6.8z"/><path fill="#E6E7E8" d="M551.7 354.1c-1.4 6.8-4.8 9.9-8.4 9.9-3.7 0-6.9-3.1-8.4-9.9-1.4-6.9 3.3-11.7 8.4-11.3 5.1-.3 9.8 4.3 8.4 11.3z"/><path fill="#D1D3D4" d="M543.8 342.7V364c3.5-.1 6.7-3.4 8.1-9.9 1.2-6.8-3.3-11.4-8.1-11.4z"/><path fill="#58595B" d="M544.2 339.2c3.7-.3 7.1 3.7 9.1 10.5-.1.4.4 1.7.3 2.1l-3.3-1.1-1.6-5s-1.4 4.5-3 5.1l.7-3s-1.6 2.5-3 3.1c-2.5 1.1-7.6 1-7.6 1-.4-.6-.8-2.5-1.1-3.3 2.3-6.4 5.8-10 9.5-9.4z"/><path fill="#D1D3D4" d="M547.6 361.9c-1.3-.4-2.5.1-4 .1v9c2.1-.3 4-2.5 4-5.5v-3.6z"/></g><circle fill="#D3D5D6" cx="270" cy="121.7" r="28.3"/><defs><circle id="k" cx="270" cy="121.7" r="28.3"/></defs><clipPath id="l"><use xlink:href="#k" overflow="visible"/></clipPath><g clip-path="url(#l)"><path fill="#E6E7E8" d="M277.3 131.2c0 2.8-3.3 5.1-7.2 5.1-4 0-7.2-2.3-7.2-5.1v-4.4c0-2.8 3.3-5.1 7.2-5.1 4 0 7.2 2.3 7.2 5.1v4.4z"/><path fill="#D1D3D4" d="M277.3 134.8c0 4-1.7 7.2-4 7.2-2.1 0-4-3.3-4-7.2v-6.1c0-4 1.7-7.2 4-7.2 2.1 0 4 3.3 4 7.2v6.1z"/><path fill="#9C226D" d="M262.4 130l-11.6 3.4-3.8 11.9 24.2 7.4-.3-12.9-1.1-3.7-3.7-3.2z"/><path fill="#831E61" d="M271 139.8l-1.7-3.7-3.4-2.8-5.5 4.4 1-7.2 1.1-2.6 7.3 7.8z"/><path fill="#9C226D" d="M277.5 130l11.6 3.4 3.9 11.9-24.2 7.4.3-12.9 1.1-3.7 5.2-3z"/><path fill="#D1D3D4" d="M263.2 120.8c0 .6-.6 1.1-1.1 1.1-.6 0-1.1-.6-1.1-1.1v-3c0-.6.6-1.1 1.1-1.1.6 0 1.1.6 1.1 1.1v3zM278.5 120.8c0 .6-.6 1.1-1.1 1.1-.6 0-1.1-.6-1.1-1.1v-3c0-.6.6-1.1 1.1-1.1.6 0 1.1.6 1.1 1.1v3z"/><path fill="#E6E7E8" d="M277.4 117.1c-.4-4.4-.1-6.9-.1-6.9s-3.7-1.8-6.4-1.7c-.3 0-.6.1-1 .3-.3-.1-.7-.3-1-.3-2.7-.1-6.4 1.7-6.4 1.7s.3 2.4-.1 6.9c-.4 4.4-1.4 8.2 0 9.6 1.4 1.4 3.8 4.4 7.4 4.5h.2c3.5-.1 5.9-3.3 7.4-4.5 1.4-1.3.4-5.2 0-9.6z"/><path fill="#D1D3D4" d="M277.3 110.2s-3.7-1.8-6.4-1.7c-.3 0-.4.1-.7.1v22.6c3.5-.1 5.9-3.3 7.2-4.5 1.4-1.4.4-5.2 0-9.6-.4-4.5-.1-6.9-.1-6.9z"/><path fill="#414042" d="M277.4 117.6l.4-5.3-1.1-5.8-5.8-1 .3 3.3 3.8 3.1z"/><path fill="#58595B" d="M262.3 116.7l-2.3-8.2 11.2-5.5v5.8l-2.7 5.8v-3.8l-2.3 5.6 1.3-5.3-2.8 5.9-1.6-3.8z"/><g fill="#58595B"><path d="M270.9 128.2h-1.3l-.1 1.6s-3-.8-4-3.8l-.7.6c0 1.4 0 4.1 1.6 4.5 3.7 1.1 4.5.6 4.5.6l.3-.8-.3-2.7zM269.5 128.2h1.3l.1 1.6s3-.8 4-3.8l.7.6c0 1.4 0 4.1-1.6 4.5-3.7 1.1-4.2.6-4.2.6l-.7-.8.4-2.7z"/></g><path fill="#6D6E71" d="M265.08 124.577l4.403-.925.165.783-4.405.925zM270.742 123.643l4.404.926-.165.782-4.403-.926z"/><path fill="#fff" d="M271.2 151.4v-15.9l-1 .6-1.1 3.7-.3 12.9 2.3-.7c.1-.2.1-.3.1-.6z"/><path fill="#831E61" d="M268.9 140.1l1.7-4 3.4-2 3.3 2.6.8-6.5-.4-2.2-7.5 7.7z"/></g><circle fill="#D3D5D6" cx="481.8" cy="237.9" r="29.2"/><defs><circle id="m" cx="481.8" cy="237.9" r="29.2"/></defs><clipPath id="n"><use xlink:href="#m" overflow="visible"/></clipPath><g clip-path="url(#n)"><path fill="#9C226D" d="M481.6 267.3c6.4 0 12.2-1.1 17.5-3.1l-1.3-12.3c-.1-1.6-2.4-2.7-5.1-3-7.4-1.4-14.9-1.4-22.2 0-2.7.1-5 1.4-5.1 3l-1.3 12.3c5.2 2 11.2 3.1 17.5 3.1z"/><path fill="#E6E7E8" d="M491.3 248.6c-6.7-1.1-13.4-1.1-20.1.1-3.7 9.8 10 12.9 10 12.9s13.9-3.1 10.1-13z"/><path fill="#D1D3D4" d="M477 244.8c-.6 1.4-1 3-1.3 4.7 0 .3-.1.4-.1.7 3.5 4 8.4 4.4 12.6 1v-.7c0-1.7-.3-3.4-.4-4.8-3.8 2.9-7.9 2.5-10.8-.9zM486.7 249.6c-.3 1-.6 1-.4 2 2.1-.8 3.8.6 5.4 2.1.3-1.1.3-2.4 0-4-1.4-.8-3-1.4-5-.1z"/><path fill="#58595B" d="M481.6 220c-6.7-.4-12.9 5.7-11 14.9 1.8 8.8 6.2 12.9 11 12.9s9.2-4.1 11-12.9c1.9-9.2-4.3-15.3-11-14.9zM469.6 238.6c.4 2.1.7 3.7 1 4.8.8 3.5-4.5 2 3.3 3.1 1 .1 2.4.3 4.2.7 4.4.8 8.2-5.8 8.2-13s-5.1-15.9-8.9-13.4c-8.8 5-8.9 10.7-7.8 17.8zM493 238.6c-.4 2.1-.7 3.7-1 4.8-.8 3.5 4.5 2-3.3 3.1-1 .1-2.4.3-4.2.7-4.4.8-8.2-5.8-8.2-13s5.1-15.9 8.9-13.4c8.9 5 9 10.7 7.8 17.8z"/><path fill="#DCDAC8" d="M474.4 237.4c.3 2.1.1 3.5-.3 3.7-.4.1-1.1-.8-1.7-3-.6-2-.4-4.1.3-4.2.7-.1 1.4 1.6 1.7 3.5zM488.7 237.4c-.3 2.1-.1 3.5.3 3.7.4.1 1.1-.8 1.7-3 .6-2 .4-4.1-.3-4.2-.6-.1-1.4 1.6-1.7 3.5z"/><path fill="#A7A9AC" d="M505.4 243.4c-.3-.7-.7-1.3-1.4-1.7-.1 0-.1-.1-.3-.1-5.7 5.2-13-5.4-16.4 5.8.1 0 .1.1.3.1.6.3 1.4.4 2.3.7 3.8-6.2 10.7 3.4 15.5-4.8zM476.4 245.4c-.4 1.3-.7 2.7-.8 4.2v.7c4 3.3 8.9 3.1 12.9-.1 0-.3 0-.4-.1-.7-.1-1.6-.6-3-1-4.2-3.5 2.8-7.6 2.8-11 .1z"/><path fill="#E6E7E8" d="M490.1 237.2c-1.4 7.9-4.8 11.5-8.5 11.5s-7.1-3.7-8.5-11.5c-1.4-8.2 3.4-13.6 8.5-13.3 5.1-.3 9.9 5.2 8.5 13.3z"/><path fill="#A7A9AC" d="M487.2 247.8c-.3 1.4-.6 1.4-.6 2.8 5.4-3.4 6.5 12 12.6 2.8v-.4c0-1.1.3-1.8 0-2.8-5 5.1-6.5-7.5-12-2.4zM481.6 226c4.4-.3 8.6 3.3 9.6 8.9 1.3-8.5-4-14.2-9.6-13.9-5.7-.4-10.8 5.2-9.6 13.9 1-5.8 5.1-9.3 9.6-8.9z"/><path fill="#D1D3D4" d="M481.6 224c-.1 0-.1 0 0 0l-.1 24.8h.1c3.7 0 7.1-3.7 8.5-11.5 1.4-8.2-3.4-13.7-8.5-13.3z"/><g fill="#414042"><path d="M480.9 235.8s-.3-1.6-1.4-2.5c-1.1-.9-3.1-1.7-4.7-1.7-1.6.1-3.1 1.1-3.4 2.1-.3 1 0 4.1.7 5.2s3 2.7 5 2.1c2.1-.7 3.4-2.4 3.8-5.2zM481.8 235.8s.3-1.6 1.4-2.5c1.1-.9 3.1-1.7 4.7-1.7 1.6.1 3 1.1 3.4 2.1.3 1 0 4.1-.7 5.2-.7 1.1-3 2.7-5 2.1-2-.7-3.3-2.4-3.8-5.2zM482.3 237.4c-.6-.4-1.3-.4-1.8 0-.1-.4-.1-.8-.3-1.4.7-.6 1.6-.6 2.3 0 0 .5-.2 1-.2 1.4z"/></g><ellipse fill="#fff" cx="489.4" cy="234.6" rx=".7" ry="1.1"/><circle fill="#fff" cx="489.1" cy="236.9" r=".4"/><path fill="#58595B" d="M481.6 223.6c-5.1-.3-9.9 4.2-9.2 11 1.8.6 4 .8 6.1.8h1.1l1.4-2.5 1.8-3.4-1 3.8-.4 1.7 1.1-2.3 2.4-5 .3 2.8.7-1.1 1.8 3.7-.3.3c1.1-.6 2-1.3 2.7-2.1-.3-4.9-4.2-7.9-8.5-7.7z"/></g><circle fill="#D3D5D6" cx="155.4" cy="730.7" r="27.6"/><path fill="#939598" d="M164.7 733.1c0 1.4-.7 2.7-1.7 2.7s-1.7-1.1-1.7-2.7v-2.7c0-1.4.7-2.7 1.7-2.7s1.7 1.1 1.7 2.7v2.7z"/><path fill="#9C226D" d="M155.4 758.3c7.8 0 14.7-3.3 19.7-8.4-3.3-3.5-10.9-6.1-19.8-6.1s-16.6 2.4-19.7 5.9c4.9 5.3 12 8.6 19.8 8.6z"/><path fill="#E6E7E8" d="M161.5 745.5c.3 3.4-2.5 6.4-6.1 6.4-3.7 0-6.4-3-6.1-6.4.1-2.1.3-4.4.4-6.5.3-3.4 2.8-5.9 5.7-5.9 3 0 5.5 2.5 5.7 5.9.1 2.2.2 4.3.4 6.5z"/><path fill="#BCBEC0" d="M161.5 741.6c.3 3.4-2.5 6.4-6.1 6.4-3.7 0-6.4-3-6.1-6.4.1-2.1.3-4.4.4-6.5.3-3.4 2.8-5.9 5.7-5.9 3 0 5.5 2.5 5.7 5.9.1 2.1.2 4.2.4 6.5zM161.1 739c-.3-3.4-2.8-5.8-5.7-5.9v17.5c0 .4 0 .8.1 1.1 3.5 0 6.2-3 5.9-6.2-.1-2.2-.2-4.3-.3-6.5z"/><path fill="#939598" d="M148.9 733.1c0 1.4-.7 2.7-1.7 2.7s-1.7-1.1-1.7-2.7v-2.7c0-1.4.7-2.7 1.7-2.7s1.7 1.1 1.7 2.7v2.7z"/><g fill="#939598"><path d="M146.3 732.2c0 1 .7 1.7 1.6 1.7.8 0 1.6-.7 1.6-1.7v-4.5c0-1-.7-1.7-1.6-1.7-.8 0-1.6.7-1.6 1.7v4.5zM161.3 732.2c0 1 .7 1.7 1.6 1.7.8 0 1.6-.7 1.6-1.7v-4.5c0-1-.7-1.7-1.6-1.7-.8 0-1.6.7-1.6 1.7v4.5z"/></g><ellipse fill="#58595B" cx="155.4" cy="724.2" rx="10.3" ry="11.2"/><path fill="#E6E7E8" d="M164 737.1c.3 4.7-3.5 8.9-8.6 8.9s-8.9-4.1-8.6-8.9c.1-3.1.4-6.1.6-9.2.3-4.7 4-8.2 8.1-8.2s7.6 3.5 8.1 8.2c0 3.1.2 6.2.4 9.2z"/><path fill="#D1D3D4" d="M163.5 727.9c-.3-4.7-3.8-8.2-7.9-8.2V744.4c0 .6 0 1.1.1 1.7 5-.1 8.8-4.2 8.5-8.9-.4-3.1-.6-6.2-.7-9.3z"/><circle fill="#D3D5D6" cx="56.3" cy="481.3" r="29.2"/><defs><circle id="o" cx="56.3" cy="481.3" r="29.2"/></defs><clipPath id="p"><use xlink:href="#o" overflow="visible"/></clipPath><g clip-path="url(#p)"><path fill="#831E61" d="M56.3 510.7c7.2 0 14-1.1 20.1-3.3L75 494.6c-.1-1.6-2.7-2.7-5.8-3.1-8.5-1.1-17-1.1-25.5 0-3.1.4-5.7 1.4-5.8 3.1l-1.4 12.9c5.8 2 12.6 3.2 19.8 3.2z"/><path fill="#9C226D" d="M56.3 510.7c6.2 0 12.2-.8 17.5-2.5l-1.3-13.9c-.1-1-.8-1.8-2-2.5-.6-.1-1.1-.1-1.7-.3-8.5-1.1-17-1.1-25.5 0-.6 0-1.1.1-1.7.3-1.1.6-1.8 1.4-2 2.5l-1.1 13.9c5.7 1.7 11.6 2.5 17.8 2.5z"/><path fill="#E6E7E8" d="M59.9 510.6h.4c1-3.3 1.8-7.4 2.5-11.9.4-2.7.6-5.2.6-7.8-4.8-.4-9.5-.4-14.3 0 0 2.4.1 5.1.6 7.8.7 4.5 1.7 8.6 2.5 11.9H59.9zM60.6 493.9c0 2.5-2.1 4.7-4.7 4.7-2.5 0-4.7-2.1-4.7-4.7v-6.8c0-2.5 2.1-4.7 4.7-4.7 2.5 0 4.7 2.1 4.7 4.7v6.8z"/><path fill="#BCBEC0" d="M55.9 482.4c-2.5 0-4.7 2.1-4.7 4.7v2.7l7.8 7.8c1-.8 1.6-2.1 1.6-3.5v-6.8c0-2.9-2.1-4.9-4.7-4.9z"/><path fill="#58595B" d="M71 483.6c.6 1.8-1 3.4-3.5 3.5-7.6.4-15.3.4-22.9 0-2.5-.1-4.1-1.7-3.5-3.5 1.7-5.4 3.5-10.8 5.2-16.1.6-1.8 2.3-3.1 3.5-3.1 4.1.3 5.1-1.8 9.2-2 1.3-.1 6.1 2.5 6.7 5.1 2 5.3 3.7 10.7 5.3 16.1z"/><path fill="#414042" d="M63.5 464.6c-1.6-1.3-3.7-2.3-4.4-2.1-4.1.3-5.1 2.3-9.2 2-.4 0-.8.1-1.3.3-.8 6.5-1.7 13.2-2.5 19.7-.1 1-.1 1.8 0 2.7 6.7.3 13.3.3 20.1 0 .1-.8.1-1.7 0-2.7-1-6.7-1.8-13.4-2.7-19.9z"/><path fill="#E6E7E8" d="M64 479.3c-1.4 7.9-4.8 11.6-8.5 11.6s-7.1-3.7-8.5-11.6c-1.4-8.2 3.4-13.6 8.5-13.3 5.1-.4 9.9 5.1 8.5 13.3z"/><path fill="#58595B" d="M47.3 468.4c-1.6 2.4-2.4 5.1-2.1 7.4 2.8-.3 5.4-1.8 6.8-4.4 1.7-2.4 2.3-5.4 1.3-8.1-2.3.7-4.5 2.7-6 5.1z"/><path fill="#D1D3D4" d="M55.5 466h-.6v24.8h.6c3.7 0 7.1-3.7 8.5-11.6 1.4-8.1-3.4-13.6-8.5-13.2z"/><path fill="#58595B" d="M55.8 474.9c3.8 1.7 8.1 1.7 11.9-.6-.1-5.8-2.7-10-6.7-11.5-3.7-2-8.6-.8-12.9 3.1.9 4.2 3.8 7.3 7.7 9z"/><path fill="#BCBEC0" d="M56.3 504.5l.2-5.6-2.7-3-2.6-4.3.5 5.7 2.4 1.3z"/><path fill="#D1D3D4" d="M51.2 490.8l2.6 5.1-3 2.4-.4-7.4.8-1.2z"/><path fill="#BCBEC0" d="M56 502.8l.2-4.1 1.7-3.1 2.5-4.1-.2 5.5-3.6 1.9z"/><path fill="#D1D3D4" d="M60.6 490.8l-2.6 5.1 3 2.4.6-7.4-1-1.2z"/></g><circle fill="#F6F6F6" stroke="#D3D5D6" stroke-miterlimit="10" cx="515.7" cy="214.7" r="18.5"/><path fill="#831E61" d="M519.7 224c.4.3.6.8.3 1.3l-1.4 2.1c-.3.4-.8.6-1.3.3l-5.2-3.7c-.4-.3-.6-.8-.3-1.3l1.4-2.1c.3-.4.8-.6 1.3-.3l5.2 3.7z"/><path fill="#9C226D" d="M520.8 206.6c-1 0-1.8.8-1.8 1.8s.8 1.8 1.8 1.8 1.8-.8 1.8-1.8-.8-1.8-1.8-1.8z"/><path fill="#D3D5D6" d="M509.2 212.8l5.2 5.2 6.9-6.9-8.1-8.1c.1 2.7-.4 5.2-1.8 7.4-.5 1-1.3 1.9-2.2 2.4z"/><path fill="#9C226D" d="M509.4 212.7l-3.8 3.8c-1.4 1.4-1.4 3.8 0 5.4l1.8 1.8c1.4 1.4 3.8 1.4 5.4 0l3.8-3.8-7.2-7.2z"/><path fill="#A7A9AC" d="M527.1 215.9c-.3.3-.8.3-1.3-.1l-12.3-12.3c-.4-.4-.4-1-.1-1.3l.6-.6c.3-.3.8-.3 1.3.1l12.3 12.3c.4.4.4 1 .1 1.3l-.6.6z"/><path fill="#C9CACC" d="M526.2 215.9l-6.5-6.5-6.9 6.9 3.5 3.5c.7-.8 1.4-1.6 2.4-2.3 2.3-1.1 5-1.8 7.5-1.6z"/><path fill="#831E61" d="M512.9 216.2l-6.5 6.5 1 1c1.4 1.4 3.8 1.4 5.4 0l3.8-3.8-3.7-3.7z"/><path fill="#939598" d="M527.5 214.1l-6.2-6.2-1.8 1.8 6.2 6.2c.4.4 1 .4 1.3.1l.6-.6c.3-.3.3-1-.1-1.3z"/><path fill="#9C226D" d="M514.2 223.4c-.3-.1-.7-.1-.8.1-.1.3-.1.7.1.8l4 2.7c.3.1.7.1.8-.1.1-.3.1-.7-.1-.8l-4-2.7z"/><circle fill="#F6F6F6" stroke="#D3D5D6" stroke-miterlimit="10" cx="576.7" cy="334" r="18.5"/><path fill="#831E61" d="M580.8 343.3c.4.3.6.8.3 1.3l-1.4 2.1c-.3.4-.8.6-1.3.3l-5.2-3.7c-.4-.3-.6-.8-.3-1.3l1.4-2.1c.3-.4.8-.6 1.3-.3l5.2 3.7z"/><path fill="#9C226D" d="M582 325.9c-1 0-1.8.8-1.8 1.8s.8 1.8 1.8 1.8 1.8-.8 1.8-1.8c0-.9-.8-1.8-1.8-1.8z"/><path fill="#D3D5D6" d="M570.4 332.3l5.2 5.2 6.9-6.9-8.1-8.1c.1 2.7-.4 5.2-1.8 7.4-.7.8-1.4 1.7-2.2 2.4z"/><path fill="#9C226D" d="M570.5 332l-3.8 3.8c-1.4 1.4-1.4 3.8 0 5.4l1.8 1.8c1.4 1.4 3.8 1.4 5.4 0l3.8-3.8-7.2-7.2z"/><path fill="#A7A9AC" d="M588.1 335.2c-.3.3-.8.3-1.3-.1l-12.3-12.3c-.4-.4-.4-1-.1-1.3l.6-.6c.3-.3.8-.3 1.3.1l12.3 12.3c.4.4.4 1 .1 1.3l-.6.6z"/><path fill="#C9CACC" d="M587.4 335.2l-6.5-6.5-6.9 6.9 3.5 3.5c.7-.8 1.4-1.6 2.4-2.3 2.2-1.1 4.8-1.8 7.5-1.6z"/><path fill="#831E61" d="M574.1 335.5l-6.5 6.5 1 1c1.4 1.4 3.8 1.4 5.4 0l3.8-3.8-3.7-3.7z"/><path fill="#939598" d="M588.6 333.4l-6.2-6.2-1.8 1.8 6.2 6.2c.4.4 1 .4 1.3.1l.6-.6c.4-.3.4-1-.1-1.3z"/><path fill="#9C226D" d="M575.3 342.7c-.3-.1-.7-.1-.8.1-.1.3-.1.7.1.8l4 2.7c.3.1.7.1.8-.1.1-.3.1-.7-.1-.8l-4-2.7z"/><circle fill="#F6F6F6" stroke="#D3D5D6" stroke-miterlimit="10" cx="536" cy="602.5" r="18.5"/><path fill="#831E61" d="M540.1 611.8c.4.3.6.8.3 1.3l-1.4 2.1c-.3.4-.8.6-1.3.3l-5.2-3.7c-.4-.3-.6-.8-.3-1.3l1.4-2.1c.3-.4.8-.6 1.3-.3l5.2 3.7z"/><path fill="#9C226D" d="M541.2 594.4c-1 0-1.8.8-1.8 1.8s.8 1.8 1.8 1.8 1.8-.8 1.8-1.8c.1-1-.8-1.8-1.8-1.8z"/><path fill="#D3D5D6" d="M529.6 600.8l5.2 5.2 6.9-6.9-8.1-8.1c.1 2.7-.4 5.2-1.8 7.4-.6.8-1.3 1.7-2.2 2.4z"/><path fill="#9C226D" d="M529.8 600.5l-3.8 3.8c-1.4 1.4-1.4 3.8 0 5.4l1.8 1.8c1.4 1.4 3.8 1.4 5.4 0l3.8-3.8-7.2-7.2z"/><path fill="#A7A9AC" d="M547.3 603.7c-.3.3-.8.3-1.3-.1l-12.3-12.3c-.4-.4-.4-1-.1-1.3l.6-.6c.3-.3.8-.3 1.3.1l12.3 12.3c.4.4.4 1 .1 1.3l-.6.6z"/><path fill="#C9CACC" d="M546.6 603.7l-6.5-6.5-6.9 6.9 3.5 3.5c.7-.8 1.4-1.6 2.4-2.3 2.3-1.1 4.8-1.9 7.5-1.6z"/><path fill="#831E61" d="M533.3 604l-6.5 6.5 1 1c1.4 1.4 3.8 1.4 5.4 0l3.8-3.8-3.7-3.7z"/><path fill="#939598" d="M547.9 601.9l-6.2-6.2-1.8 1.8 6.2 6.2c.4.4 1 .4 1.3.1l.6-.6c.3-.3.3-.9-.1-1.3z"/><path fill="#9C226D" d="M534.6 611.2c-.3-.1-.7-.1-.8.1-.1.3-.1.7.1.8l4 2.7c.3.1.7.1.8-.1.1-.3.1-.7-.1-.8l-4-2.7z"/><circle fill="#F6F6F6" stroke="#D3D5D6" stroke-miterlimit="10" cx="376.5" cy="695.7" r="18.5"/><path fill="#831E61" d="M380.6 705.1c.4.3.6.8.3 1.3l-1.4 2.1c-.3.4-.8.6-1.3.3l-5.2-3.7c-.4-.3-.6-.8-.3-1.3l1.4-2.1c.3-.4.8-.6 1.3-.3l5.2 3.7z"/><path fill="#9C226D" d="M381.7 687.7c-1 0-1.8.8-1.8 1.8s.8 1.8 1.8 1.8 1.8-.8 1.8-1.8c-.1-1-.9-1.8-1.8-1.8z"/><path fill="#D3D5D6" d="M370 693.9l5.2 5.2 6.9-6.9-8.1-8.1c.1 2.7-.4 5.2-1.8 7.4-.5 1-1.4 1.8-2.2 2.4z"/><path fill="#9C226D" d="M370.1 693.7l-3.8 3.8c-1.4 1.4-1.4 3.8 0 5.4l1.8 1.8c1.4 1.4 3.8 1.4 5.4 0l3.8-3.8-7.2-7.2z"/><path fill="#A7A9AC" d="M387.8 697c-.3.3-.8.3-1.3-.1l-12.3-12.3c-.4-.4-.4-1-.1-1.3l.6-.6c.3-.3.8-.3 1.3.1l12.3 12.3c.4.4.4 1 .1 1.3l-.6.6z"/><path fill="#C9CACC" d="M386.9 697l-6.5-6.5-6.9 6.9 3.5 3.5c.7-.8 1.4-1.6 2.4-2.3 2.3-1.2 5-1.9 7.5-1.6z"/><path fill="#831E61" d="M373.8 697.3l-6.5 6.5 1 1c1.4 1.4 3.8 1.4 5.4 0l3.8-3.8-3.7-3.7z"/><path fill="#939598" d="M388.2 695.2L382 689l-1.8 1.8 6.2 6.2c.4.4 1 .4 1.3.1l.6-.6c.3-.5.3-1.1-.1-1.3z"/><path fill="#9C226D" d="M374.9 704.5c-.3-.1-.7-.1-.8.1-.1.3-.1.7.1.8l4 2.7c.3.1.7.1.8-.1.1-.3.1-.7-.1-.8l-4-2.7z"/><circle fill="#F6F6F6" stroke="#D3D5D6" stroke-miterlimit="10" cx="189.2" cy="714.1" r="18.5"/><path fill="#831E61" d="M193.3 723.5c.4.3.6.8.3 1.3l-1.4 2.1c-.3.4-.8.6-1.3.3l-5.2-3.7c-.4-.3-.6-.8-.3-1.3l1.4-2.1c.3-.4.8-.6 1.3-.3l5.2 3.7z"/><path fill="#9C226D" d="M194.3 706.1c-1 0-1.8.8-1.8 1.8s.8 1.8 1.8 1.8 1.8-.8 1.8-1.8c.1-1.1-.8-1.8-1.8-1.8z"/><path fill="#D3D5D6" d="M182.7 712.3l5.2 5.2 6.9-6.9-8.1-8.1c.1 2.7-.4 5.2-1.8 7.4-.5.8-1.3 1.7-2.2 2.4z"/><path fill="#9C226D" d="M182.9 712.1L179 716c-1.4 1.4-1.4 3.8 0 5.4l1.8 1.8c1.4 1.4 3.8 1.4 5.4 0l3.8-3.8-7.1-7.3z"/><path fill="#A7A9AC" d="M200.5 715.3c-.3.3-.8.3-1.3-.1L187 702.8c-.4-.4-.4-1-.1-1.3l.6-.6c.3-.3.8-.3 1.3.1l12.3 12.3c.4.4.4 1 .1 1.3l-.7.7z"/><path fill="#C9CACC" d="M199.7 715.3l-6.5-6.5-6.9 6.9 3.5 3.5c.7-.8 1.4-1.6 2.4-2.3 2.3-1.2 5-1.8 7.5-1.6z"/><path fill="#831E61" d="M186.4 715.7l-6.5 6.5 1 1c1.4 1.4 3.8 1.4 5.4 0l3.8-3.8-3.7-3.7z"/><path fill="#939598" d="M201 713.4l-6.2-6.2-1.8 1.8 6.2 6.2c.4.4 1 .4 1.3.1l.6-.6c.3-.3.3-.9-.1-1.3z"/><path fill="#9C226D" d="M187.7 722.8c-.3-.1-.7-.1-.8.1-.1.3-.1.7.1.8l4 2.7c.3.1.7.1.8-.1.1-.3.1-.7-.1-.8l-4-2.7z"/><circle fill="#F6F6F6" stroke="#D3D5D6" stroke-miterlimit="10" cx="88.5" cy="462.2" r="18.5"/><path fill="#831E61" d="M92.6 471.5c.4.3.6.8.3 1.3l-1.4 2.1c-.3.4-.8.6-1.3.3l-5.2-3.7c-.4-.3-.6-.8-.3-1.3l1.4-2.1c.3-.4.8-.6 1.3-.3l5.2 3.7z"/><path fill="#9C226D" d="M93.7 454.1c-1 0-1.8.8-1.8 1.8s.8 1.8 1.8 1.8 1.8-.8 1.8-1.8c-.1-.9-.8-1.8-1.8-1.8z"/><path fill="#D3D5D6" d="M82.1 460.4l5.2 5.2 6.9-6.9-8.1-8.1c.1 2.7-.4 5.2-1.8 7.4-.7.9-1.4 1.8-2.2 2.4z"/><path fill="#9C226D" d="M82.2 460.2l-3.8 3.8c-1.4 1.4-1.4 3.8 0 5.4l1.8 1.8c1.4 1.4 3.8 1.4 5.4 0l3.8-3.8-7.2-7.2z"/><path fill="#A7A9AC" d="M99.8 463.5c-.3.3-.8.3-1.3-.1L86.2 451c-.4-.4-.4-1-.1-1.3l.6-.6c.3-.3.8-.3 1.3.1l12.3 12.3c.4.4.4 1 .1 1.3l-.6.7z"/><path fill="#C9CACC" d="M99.1 463.3l-6.5-6.5-6.9 6.9 3.5 3.5c.7-.8 1.4-1.6 2.4-2.3 2.2-1.1 4.8-1.7 7.5-1.6z"/><path fill="#831E61" d="M85.8 463.8l-6.5 6.5 1 1c1.4 1.4 3.8 1.4 5.4 0l3.8-3.8-3.7-3.7z"/><path fill="#939598" d="M100.3 461.6l-6.2-6.2-1.8 1.8 6.2 6.2c.4.4 1 .4 1.3.1l.6-.6c.4-.4.4-1-.1-1.3z"/><path fill="#9C226D" d="M87 471c-.3-.1-.7-.1-.8.1-.1.3-.1.7.1.8l4 2.7c.3.1.7.1.8-.1.1-.3.1-.7-.1-.8l-4-2.7z"/><circle fill="#F6F6F6" stroke="#D3D5D6" stroke-miterlimit="10" cx="59.3" cy="321.5" r="18.5"/><path fill="#831E61" d="M63.4 330.9c.4.3.6.8.3 1.3l-1.4 2.1c-.3.4-.8.6-1.3.3l-5.2-3.7c-.4-.3-.6-.8-.3-1.3l1.4-2.1c.3-.4.8-.6 1.3-.3l5.2 3.7z"/><path fill="#9C226D" d="M64.5 313.5c-1 0-1.8.8-1.8 1.8s.8 1.8 1.8 1.8 1.8-.8 1.8-1.8c-.1-1-.8-1.8-1.8-1.8z"/><path fill="#D3D5D6" d="M52.9 319.7l5.2 5.2L65 318l-8.1-8.1c.1 2.7-.4 5.2-1.8 7.4-.6 1-1.3 1.8-2.2 2.4z"/><path fill="#9C226D" d="M53.1 319.5l-3.8 3.8c-1.4 1.4-1.4 3.8 0 5.4l1.8 1.8c1.4 1.4 3.8 1.4 5.4 0l3.8-3.8-7.2-7.2z"/><path fill="#A7A9AC" d="M70.6 322.8c-.3.3-.8.3-1.3-.1L57 310.3c-.4-.4-.4-1-.1-1.3l.6-.6c.3-.3.8-.3 1.3.1L71 321c.4.4.4 1 .1 1.3l-.5.5z"/><path fill="#C9CACC" d="M69.9 322.7l-6.5-6.5-6.9 6.9 3.5 3.5c.7-.8 1.4-1.6 2.4-2.3 2.3-1.2 4.8-1.8 7.5-1.6z"/><path fill="#831E61" d="M56.6 323.1l-6.5 6.5 1 1c1.4 1.4 3.8 1.4 5.4 0l3.8-3.8-3.7-3.7z"/><path fill="#939598" d="M71.2 320.8l-6.2-6.2-1.8 1.8 6.2 6.2c.4.4 1 .4 1.3.1l.6-.6c.3-.3.2-.9-.1-1.3z"/><path fill="#9C226D" d="M57.9 330.2c-.3-.1-.7-.1-.8.1-.1.3-.1.7.1.8l4 2.7c.3.1.7.1.8-.1.1-.3.1-.7-.1-.8l-4-2.7z"/><circle fill="#F6F6F6" stroke="#D3D5D6" stroke-miterlimit="10" cx="224.3" cy="254.4" r="18.5"/><path fill="#831E61" d="M228.4 263.8c.4.3.6.8.3 1.3l-1.4 2.1c-.3.4-.8.6-1.3.3l-5.2-3.7c-.4-.3-.6-.8-.3-1.3l1.4-2.1c.3-.4.8-.6 1.3-.3l5.2 3.7z"/><path fill="#9C226D" d="M229.6 246.4c-1 0-1.8.8-1.8 1.8s.8 1.8 1.8 1.8 1.8-.8 1.8-1.8c0-1.1-.8-1.8-1.8-1.8z"/><path fill="#D3D5D6" d="M218 252.6l5.2 5.2 6.9-6.9-8.1-8.1c.1 2.7-.4 5.2-1.8 7.4-.7 1-1.4 1.7-2.2 2.4z"/><path fill="#9C226D" d="M218.1 252.5l-3.8 3.8c-1.4 1.4-1.4 3.8 0 5.4l1.8 1.8c1.4 1.4 3.8 1.4 5.4 0l3.8-3.8-7.2-7.2z"/><path fill="#A7A9AC" d="M235.6 255.7c-.3.3-.8.3-1.3-.1L222 243.3c-.4-.4-.4-1-.1-1.3l.6-.6c.3-.3.8-.3 1.3.1l12.3 12.3c.4.4.4 1 .1 1.3l-.6.6z"/><path fill="#C9CACC" d="M234.9 255.6l-6.5-6.5-6.9 6.9 3.5 3.5c.7-.8 1.4-1.6 2.4-2.3 2.3-1.2 4.9-1.8 7.5-1.6z"/><path fill="#831E61" d="M221.6 256l-6.5 6.5 1 1c1.4 1.4 3.8 1.4 5.4 0l3.8-3.8-3.7-3.7z"/><path fill="#939598" d="M236.2 253.7l-6.2-6.2-1.8 1.8 6.2 6.2c.4.4 1 .4 1.3.1l.6-.6c.3-.3.3-.8-.1-1.3z"/><path fill="#9C226D" d="M222.9 263.1c-.3-.1-.7-.1-.8.1-.1.3-.1.7.1.8l4 2.7c.3.1.7.1.8-.1.1-.3.1-.7-.1-.8l-4-2.7z"/><circle fill="#F6F6F6" stroke="#D3D5D6" stroke-miterlimit="10" cx="301.6" cy="103.4" r="18.5"/><path fill="#831E61" d="M305.7 112.8c.4.3.6.8.3 1.3l-1.4 2.1c-.3.4-.8.6-1.3.3l-5.2-3.7c-.4-.3-.6-.8-.3-1.3l1.4-2.1c.3-.4.8-.6 1.3-.3l5.2 3.7z"/><path fill="#9C226D" d="M306.8 95.4c-1 0-1.8.8-1.8 1.8s.8 1.8 1.8 1.8 1.8-.8 1.8-1.8c-.1-1-.8-1.8-1.8-1.8z"/><path fill="#D3D5D6" d="M295.2 101.6l5.2 5.2 6.9-6.9-8.1-8.1c.1 2.7-.4 5.2-1.8 7.4-.6 1-1.3 1.8-2.2 2.4z"/><path fill="#9C226D" d="M295.4 101.4l-3.8 3.8c-1.4 1.4-1.4 3.8 0 5.4l1.8 1.8c1.4 1.4 3.8 1.4 5.4 0l3.8-3.8-7.2-7.2z"/><path fill="#A7A9AC" d="M312.9 104.7c-.3.3-.8.3-1.3-.1l-12.3-12.3c-.4-.4-.4-1-.1-1.3l.6-.6c.3-.3.8-.3 1.3.1l12.3 12.3c.4.4.4 1 .1 1.3l-.6.6z"/><path fill="#C9CACC" d="M312.2 104.7l-6.5-6.5-6.9 6.9 3.5 3.5c.7-.8 1.4-1.6 2.4-2.3 2.3-1.2 4.8-1.9 7.5-1.6z"/><path fill="#831E61" d="M298.9 105l-6.5 6.5 1 1c1.4 1.4 3.8 1.4 5.4 0l3.8-3.8-3.7-3.7z"/><path fill="#939598" d="M313.5 102.9l-6.2-6.2-1.8 1.8 6.2 6.2c.4.4 1 .4 1.3.1l.6-.6c.3-.4.3-1.1-.1-1.3z"/><path fill="#9C226D" d="M300.2 112.2c-.3-.1-.7-.1-.8.1-.1.3-.1.7.1.8l4 2.7c.3.1.7.1.8-.1.1-.3.1-.7-.1-.8l-4-2.7z"/></svg>