<svg xmlns="http://www.w3.org/2000/svg" viewBox="0 0 595.3 774.9" enable-background="new 0 0 595.3 774.9"><path fill="#831E61" d="M313.3 528.7c3.7 2.5 4.5 7.6 2 11.2l-12.5 17.7c-2.5 3.7-7.6 4.5-11.2 2L246.5 528c-3.7-2.5-4.5-7.6-2-11.2l12.3-17.7c2.5-3.7 7.6-4.5 11.2-2l45.3 31.6z"/><path fill="#9C226D" d="M322.8 379.8c-8.4 0-15.3 6.8-15.1 15.3 0 8.4 6.8 15.1 15.1 15.1 8.4 0 15.1-6.8 15.1-15.3.1-8.3-6.7-15.1-15.1-15.1z"/><path fill="#D3D5D6" d="M223.5 433.3l44.7 44.7 59.7-59.7-69.2-69.2c1.6 22.4-3.7 44.7-16.1 63.4-5.4 8.4-11.9 15.3-19.1 20.8z"/><path fill="#9C226D" d="M224.8 431.8L192 464.6c-12.6 12.6-12.6 33 0 45.7l15.7 15.7c12.6 12.6 33 12.6 45.7 0l32.8-32.8-61.4-61.4z"/><path fill="#A7A9AC" d="M375.2 459.7c-2.8 2.8-7.8 2.5-11-.7L259 353.8c-3.3-3.3-3.5-8.2-.7-11l5.2-5.2c2.8-2.8 7.8-2.5 11 .7l105 105c3.3 3.3 3.5 8.2.7 11l-5 5.4z"/><path fill="#C9CACC" d="M368.4 458.9l-55.1-55.1-59.7 59.7 30.7 30.7c5.7-7.2 12.5-13.7 20.7-19.2 18.7-12.4 41-17.6 63.4-16.1z"/><path fill="#831E61" d="M255 462.2l-55.6 55.6 8.2 8.2c12.6 12.6 33 12.6 45.7 0l32.8-32.8-31.1-31z"/><path fill="#939598" d="M379.6 443.4l-52.9-52.9-15.6 15.5 52.9 52.9c3.3 3.3 8.2 3.5 11 .7l5.2-5.2c3.1-2.8 2.6-7.8-.6-11z"/><path fill="#9C226D" d="M265.7 523.2c-2.4-1.6-5.7-1-7.2 1.3-1.6 2.4-1 5.7 1.3 7.2l33.8 23.2c2.4 1.7 5.7 1 7.2-1.3 1.6-2.4 1-5.7-1.3-7.2l-33.8-23.2z"/><path fill="#FDC015" stroke="#FDC015" stroke-width="2" stroke-miterlimit="10" d="M346.3 373.6c-.4 0-.7-.1-1-.4-.6-.6-.6-1.6 0-2.1l60.2-60.2c.6-.6 1.6-.6 2.1 0 .6.6.6 1.6 0 2.1l-60.2 60.2c-.4.3-.6.4-1.1.4zM332.3 361.7c-.1 0-.3 0-.4-.1-.7-.3-1.1-1.1-1-1.8l27.5-80.5c.3-.7 1.1-1.1 1.8-1 .7.3 1.1 1.1 1 1.8l-27.5 80.5c-.3.7-.8 1.1-1.4 1.1zM358.2 387.6c-.6 0-1.1-.4-1.4-1-.3-.7.1-1.6 1-1.8l80.5-27.5c.7-.3 1.6.1 1.8 1 .3.7-.1 1.6-1 1.8l-80.5 27.5h-.4z"/></svg>