<svg xmlns="http://www.w3.org/2000/svg" viewBox="0 0 595.3 774.9" enable-background="new 0 0 595.3 774.9"><g opacity=".48"><path fill="#D1EBFA" d="M122.1 281.7c-.3-.3-1.4.6-.8 1 .1.5 1.3-.4.8-1zM152.4 371.9c-.3-.3-1.4.6-1 1.1.3.2 1.5-.7 1-1.1z"/><g fill="#E6E7E8"><path d="M550 561.6c-3.5.1-8.2 1.8-8.4 3-.1 1.3-5.1 3.4-6.7 4.1-1.7.7-4.8 5.7-5.5 7.4-.7 1.7-4.7 1.1-6.2 1.8-1.4.7-4.5 3.1-4.5 4.7 0 1.4-.8 1.3-1.8-.4l-2 2.1-2.3 2.5c-1.3 4.2-5.8 9.5-7.4 9.9-1.6.4-1.8 7.8-1.8 10.8 0 3 1.1 6.7 2.5 8.2l.3 2.4.6 4.7c-.8 3.7 2 6.8 2.7 7.5.8.6 7.5-1.3 10.2-1.8 1.1-.3 2.4-.8 3.7-1.6 12-20.2 21.5-42 28-65.1-.4-.2-1-.2-1.4-.2zM99.6 568.5c-.4.7 4.5 5.8 6.4 7.5 1.8 1.7 5.9 9.9 6.7 12.6.8 2.7.3 7.1.1 8.1-.3 1 .8 3.3 1.1 4.2.1 1-1.7 8.9-1 12.2s-3.8 13.3-3.7 18.3c.1 5 2.4 11.5 3.3 11 .8-.4 1.3 4.5-.3 5.1-1.6.6-3.3 4.5-2.4 4.8.8.1 0 4.1.1 5.7.3 1.6 1.6 12 1.8 14.6.3 2.5 4 8.9 4.8 11 .7 2.1 1.6 6.2 1.8 6.8.3.6.7 1.3.7 1.3.1 0 3 1.1 4 1.8.8.7 6.8.3 8.6-.1s.1-2.1-.7-3.1c-.8-1-1.6-5.5-2.5-6.1-1-.4-1.4-6.4-.6-7.6.8-1.3 4.4-3.4 4.8-4.5.4-1.1.4-6.2-.4-6.9-1-.7.3-6.9-.4-10-.7-3.1 5.4-5.9 5.7-8.4.4-2.4 6.9-5.1 8.4-6.2 1.4-1.3 2.8-8.2 2.1-9.8-.7-1.4 2.4-2.7 3.8-2.7s3-1 3.5-1 2.3-3.1 3.1-3.8c.8-.7 2.7-8.1 4.4-9.3 1.7-1.3 3-5.7 3-6.9 0-1.3 2.5-5.2 3.3-6.4.8-1.1 6.9-4 8.1-4.4 1.1-.4 2.7-10.3 3.1-13.9.4-3.5 2.3-8.2 2.4-9.5.1-1.1 2.1-2.1 2.4-2.5.4-.4 1.8-4.8 2.8-5.9 1-1 4.4-5.4 4.4-6.2.1-1 .6-3.4 1.1-5.5V546.6c-1.1-3-4.4-6.7-5.2-5.8-.8.8-4.7-2.7-6.5-3.4-2-.7-6.8-1.3-7.9-1.3-1.3 0-5.4-3.4-7.4-4.1-1.8-.6-6.7-1.6-7.6-2.1-.8-.6-2.1-7.8-5.9-10-3.8-2.3-10.8-7.8-11.5-9.8-.7-2-8.2-6.2-10.5-7.5-2.3-1.3-5.8-1.6-6.2-1.1-.4.5-3.3-3.8-4.8-5.1-1.4-1.1-5.9-2.3-6.1-1.1-.1 1.1-3.1.6-3.8-.4-.7-1-3 .4-4.1.7-1 .3-4.8 5.9-6.5 7.4-1.7 1.3-3.7-1.3-4.8-1.7-1.1-.4-5.4.8-6.5 1.7-1.1.8-3.8-5.9-3.3-9.2.6-3.1-2.8-9.3-5.5-9.5-2.7-.1-3.5-6.7-3-9.2.6-2.4-4.8-4-6.1-4.1-1.4-.1-4.7 3.3-5.2 4.8-.6 1.7-12.6-2.3-11.2-9.5s7.1-14.7 8.5-15.6c1.4-.8 9.2-1.3 10.9-.3 1.7 1 3.3 0 3.5-.4.3-.4 6.7.1 8.5.8s4.5 8.1 6.5 8.9c2 .8 2.7-4.7 3-6.1.3-1.4-1-4.8-1.4-5.8-.4-1 3.1-9.8 6.1-11.3 3-1.6 6.1-6.5 5.8-7.4-.3-.8 2.4-1.6 3.1-2 .7-.3-.1-7.5 1-9.1 1.1-1.6 6.7-4.8 8.5-5.5 1.7-.7 3.1-5.2 2.4-6.1-.7-.8 4.5-5.2 7.2-6.1 2.7-.9 5 1.6 4.4 2 .6-.3 4.2-2.3 5.8-3.3 1.8-1.3 0-4.5-1.1-5.5s-.4-4.8 1-5.2c1.4-.3 2.7-3.7 2.3-4.4-.4-.7 5.9.6 8.4-1.3 2.4-1.7.7 4.2-1.1 6.8-1.7 2.4 1.3 4.8 2.4 4.2 1.1-.4 2.4 1.3 2.5 2 .3.7 2.7-.7 4.2 0s2.5-2.1 2.7-3.5c.1-1.3-3.8-4.1-4.4-5.7-.6-1.6-.8-10.9-1-12.7-.1-1.8-2.7-5-3.4-4.4-.8.6-2.5-5-3.8-6.1s-1.7-3.8-1.6-4.7c0-.8-4.5-5.7-5.5-7.8-1.1-2.1-2.5-1.7-2.7-.7-.1 1-3.3 1.1-4.5 1-1.3-.1-2.4-5.1-2.4-7.1 0-1.8-5.8-2.3-6.8-3.7-1-1.6-4.8-.8-5.4-1.8-.6-1-4-2-4.7-1.7-.7.4-.4 14-1 17.7-.7 3.7-3.7 6.9-5 6.8-1.1-.1-.4 2.5.3 2.4.8-.3-2.1 4-2.5 6.8s-3.3-.1-3.7-2.7c-.4-2.5-3.3-5.9-3.7-5.1-.6.8-2.4-1-3.3-.6-.8.6-6.1-3-8.1-4.2-2.1-1.1-3.3-7.6-4.5-8.2-1.3-.6-.1-1.4-.3-2.3 0-1 4.1-4.8 5.4-6.2 1.3-1.6 5.8-7.4 7.5-8.6 1.8-1.3 3.1-4.7 2.8-5.2-.3-.6 7.6-3.1 9.8-3.8 2.1-.7 4-6.8 4.2-8.5.3-1.7-1.4-5-2.4-5.4-1-.4 3-.6 4.4.1 1.4.7 5.5-1.3 7.1-.4s5 2.8 7.2 4.2l-.6 4.4-1 7.5c-6.2 2.5-8.1 7.1-5.9 6.9 2.2-.2 12.2 4.4 15 6.4s3.7-3 4.5-4.5c.8-1.7.6-6.5-.1-7.4-.7-1 3.3-.6 4.4.4s2.4-1.1 3.3-1.4c.8-.4 1.3-4.5 1.7-5.4.4-.8-1.8-1.7-2-2.7 0-1-4.5-3-6.1-3.7-1.4-.7-1.8-3.8-1.1-4.4.7-.6-.4-4.5-1.3-5.8-.7-1.3-5.4-2.4-6.9-2.4s-3.1-3.7-4.1-4.1c-.8-.6-6.9-1.1-8.5-.7s-4.2-4.2-6.8-2.8c-2.5 1.4-5.1-1.7-6.2-2.3-1.1-.6-7.1 5.7-6.9 10.2 0 4.5 2.3 8.8 3.3 8.9 1 .1-.1 4.1-1.3 5.2-1 1.1-3.5-1.3-2.5-2.3 1-1-2.5-5.7-3.8-7.5-.8-1.4-4-2.5-5.9-3.4-1.3 1.3-2.4 2.7-3.5 4 .4 1.6 1 3.7.4 5.4-.8 2.7-3.1 3.1-3.3 2 0-.6-1.3-.8-2.5-1.1-33 39.6-55.1 88.7-61.3 142.5 1.3 1.6 2.8 3.3 3.3 4.5.7 2.4 5 4 5.7 4.4.8.4 1-4.5.4-5.9-.6-1.3 1-2.1 1-1.1s4 5.4 5.2 7.1c1.3 1.6 2.7 12 4 14.3 1.3 2.3 13.3 6.8 17.1 7.6 3.8.8 8.8 5.1 9.5 6.4.7 1.3 5.9 1.8 6.9 2.4 1.1.6 3.7 4 4.8 4.7 1.1.7 2 2.8 2 3.4 0 .6 6.8 3.1 8.5 5 1.6 1.8 4.4 1.3 4.8.6.6-.7 1.8 3.5 2.5 5.1s.8 5.2.3 5.8c-.6.6-1.6 7.4-2.7 8.8-1.1 1.4-3.5 11.3-3.1 13.3.6 2 3.7 5.9 5.1 6.7 1.4.6.8 2.7-.3 2.8s-.6 9.6 2 11c2.9 1.4 5 5.5 4.7 6.2zM131.8 402.3c-.2.2-.2.2 0 0zM113.1 287.4c3.3-.6 8.6-1.4 9.1-2.4.3-.7.3-3-.3-3.8h1.6c1.3 0 3.3-6.8 4.7-8.4 1.3-1.6 8.8-4 10.6-5 1.8-1.1 5.7-4.8 7.2-5.2 1.5-.4 3.7-4 3.4-4.7-.3-.7 5.1-4 7.1-4.8 2-.8 3.1-3.3 2.3-3.4-.6-.1-11.9 5.9-22.4 11.7-11.9 8.1-23.1 17.1-33.5 26.9 3 0 8.1-.6 10.2-.9zM310.4 626.8c3.5-2.1 9.5-10.9 11.3-12.7 2-1.8 3.4-8.5 3.8-9.9.4-1.4 3.4-3.8 4.5-4.1 1.1-.3 4.7-15 7.8-18.3 3.1-3.3 6.8-18.8 6.4-24.3-.4-5.5 2-16.3 2.7-18.8s4.7-7.1 5.8-8.1c1.3-1 8.6-12 11.2-16 2.4-4 4.7-12.7 4.2-14.7-.4-2-5.7-3.5-6.7-2.5s-5.9 1.8-7.5 1.8c-1.6 0-5.2-8.4-7.4-10.2-2.3-1.7-4.2-11.3-5.5-13.2-1.3-1.8-5-6.5-6.1-7.5-1.1-1-1.3-6.2-1.6-7.6-.3-1.4 2.1.8 2.5 3 .4 2 6.2 10.2 7.9 13 1.8 2.8 6.5 11.6 7.6 14.3 1.3 2.7 11.7 1.4 15.1-.3 3.4-1.6 7.6-4.4 7.8-5.2.1-1 5.5-3.4 7.1-4.7 1.6-1.1 2.8-7.5 3.8-8.5s-.8-7.1-2-8.8c-1.1-1.8-6.5-3.3-7.6-2.5-1.1.7-3.5-4.1-4.2-5.8-.8-1.7-5-3.8-5.4-5.1-.4-1.3 1.1-3.1 1.8-3.5.7-.4 8.4 5 10.6 7.6 2.1 2.7 4.7 7.6 5.1 8.5.4.8 6.5 1.3 7.8.3 1.4-1 2.8-.7 3.4.6l2-.3 6.7-1c3.1 3.4 4.1 6.4 4 7.1-.1.7 2 3.4 3.3 3.7 1.3.3 2.3 4.7 2.7 5.8.4 1.1 4.1 7.6 5 10.3.7 2.7 4 8.1 4.8 9.5.7 1.4 1.4 5.5 1.4 6.7 0 1.1 2.4 3.4 4 3.3 1.6-.1 4.5-9.6 5.2-13.2.7-3.5 3.1-6.5 3.8-6.5s1.3-2 1.3-2.7c0-.7 3.8-.7 4.2-1.6.3-1 1.4-7.2 2.8-8.2 1.4-1 6.2-4.1 7.9-4.8 1.7-.6 6.1 3.1 7.1 5 1 1.7 1.8 6.2 1.4 6.9-.4.7 2.3 4.5 4.7 4.5 2.3-.1 3.1 3 3.1 4 .1 1.1 3.1 4.2 3.8 5.7.6 1.4.4 5.2 0 6.1-.4.8-.1 5.8.3 7.2.4 1.4 7.6 8.6 10.3 10.9 2.7 2.3 4-4.5 2.5-6.5-1.4-2.1-6.1-6.9-7.1-8.4-1.1-1.4-1.3-7.2-.8-8.9.4-1.7 4.1.8 5.7 2.1 1.6 1.1 3.5 3.8 3.5 4.7 0 .8 9.6-4.5 10-10.3.3-5.8 3.5-12.5 3.8-13.9.3-1.6-1-3.7-1.7-3.7-.8-.1 1.4-4.5 4.1-4.4s9.2-7.1 10.8-10c1.6-2.8 4.7-5.2 5-5.5.4-.3 2.5-7.1 2.8-9.9.4-2.8-1.6-7.2-1.8-8.6-.3-1.4-2.5-4.8-3.1-5.8-.6-1-1.1-5-.8-5.7.3-.7 2.8-1.6 3-2.1.3-.7 3.1-3.7 2.8-5-.1-1.3 1.7 1.7 3 2.8 1.3 1.1 2.7 8.1 4.2 8.8 1.6.7 7.9-7.4 7.1-12.6-.7-5.2 1.8-11.9 3.4-12.6 1.1-.4 4.1-4.7 6.2-7.8-14-40.5-37.2-76.6-67.2-105.9h-1l-2.4-.6c-4-.8-6.2-5-5.5-5.9.1-.3.1-1 0-1.8-2.1-2-4.4-4-6.7-5.8h-5c-2.4-.1-7.4-1.7-8.4-2.7-.8-.8-4 .8-4.1 2.5-.3 1.7-5.5 2.4-6.1 3.8-.6 1.3-3.3 1.4-3.8.7-.6-.7-5.5 1.7-7.9 2.1-2.4.3-7.1 2.4-8.2 2.8-1.1.4-3.7 3-4.1 4.1-.4 1.1-3.5 2.8-4.5 3.3-1 .4-.8 5 .6 5.7 1.3.6-2.4-.6-4.1-1.4-1.7-.8-3.5 2-4 3-.6 1-2-.6-2-2s-4.1-2.5-4.7-1.4c-.6 1.1-3.4-.4-4.7-1-1.1-.7-6.4 4.7-8.2 6.7-2 2-11 3.4-12.7 2.7-1.7-.7-3.4 4.1-2 4.4 1.4.3-3.7-.3-6.5 0s-11 3.5-13 5c-2 1.4-3.5-.3-3.5-1.4s-3.1-2.1-4.1-2.5c-.8-.3-2.7 6.1-4.4 7.4-1.7 1.3-3.5-5.1-7.5-6.1-3.8-1-9.9-4.7-11.6-5.2-1.7-.4-5.1-4.1-6.1-5.1s-5.8-1.8-7.5-1.8c-1.6 0-6.7 3-8.1 4.1-1.4 1.1-3.4 1-4.1 1.4-.7.4-6.5 6.1-8.6 7.8-2.3 1.7-6.1 9.3-7.4 11.2-1.3 1.8-3.1 2.1-3.8 2.1-.7 0-1.4 2.1-1.4 2.8 0 .7-6.7 4.1-7.2 7.2-.7 3 .7 9.9.7 12.3s2.4 7.2 4.2 7.4c1.8.1.8 4.1.4 5.2-.4 1.1 1.1 2.4 1.1 3.4s-4.7 2.3-6.1 2.8c-1.4.6-3.7 3.7-4 5-.3 1-4.7 1.8-6.1 3.1.3-1 .8-2.4 1.3-3.1.8-1.6-.3-4.4-1-5-.7-.6-1-8.5-2.1-10.2-1.1-1.7-4-4.5-4.5-5.1-.7-.6.4-2.7.8-3.5.4-.8-3.7-1.4-4.8-.7-1.1.7-1.7 8.5-2.3 10.6-.4 2.1 2 5.5 2.7 5.7.7.1.4 4-1 4.1-1.4.1-2.8 5.8-2 7.1.7 1.3-1 3.8-1.8 4.4-.8.6 5.5.3 8.5.1 2.8-.1 5.2 1.3 4.8 1.4-.3.3-5.5 1-6.5 2.3-1 1.3-4.5 3.7-5.2 4.7-.7 1 1.1 3.1 2.7 3 1.6-.1 3.3 5.2 4.4 6.2s.7 3.7.3 4.5c-.6.7-7.6-.6-10.3.1-2.7.7-6.1 6.4-6.4 8.5-.3 2.1.4 8.4.8 10 .3 1.7 5.9 2.8 7.1 3.7 1.1.8 6.7 0 7.8.6 1.1.6 4.8-5.5 5.5-8.2.7-2.8 6.5-7.9 7.6-9.8 1.1-1.8 7.4-1.7 8.9-2.7 1.6-1 .7 4.7 1.4 7.8.7 3.1 6.7 2.7 5.8-.1-.8-3 .6-4.2.8-3.1.3 1 5.9 3.4 7.1 5.1 1.1 1.7.7 5.1-.4 5.1-1.3 0-1.3 3.8 0 4.2 1.3.4 3.1-4.4 4.5-5.1 1.4-.7 2.5-3.7 2-4-.7-.3 1.1-3 2-2 .8.8-3.1-5.8-5.5-8.2-2.4-2.4-.7-1.4 3.8 2.4l3.1 4.4c.6.8 1.4 3.3 2 4.1l.7 1.3c.6 1.6 1.1 5.8 1.1 6.9 0 1.1 2.4 3.4 4 3.3 1.4-.1 2.7.7 2.3.7-.3 0 1 3 2.5 3 1.4 0 2.1-3.8.6-3.8-1.4-.1-1.3-5.7-1.4-8.1-.1-2.4 1.1-4.4 1.6-4.4.6 0 0 5 0 6.1s.7 3.4 1.4 5l1.6 1.1 3.4 2.7c5-1.4 11.6-.3 11.3.7-.3 1 3.7 1.3 4-.4.3-1.6.4 0 .4 1.1s-3.3 5.5-3.8 7.5c-.6 2-11.9.7-16.8.3-5-.4-12.2 1.3-12.7 2.7-.5 1.4-8.2-3.4-11.7-4.8s-6.2-6.8-6.9-7.5c-.7-.7.6-2.4.3-3.5s-8.4-1.3-10.6-.4c-2.4.8-14.3 2.1-17.3 3.4-2.8 1.3-7.1-.1-8.5-.3-1.3-.3-4.5 3.7-6.1 4.4-1.7.7-3.7 6.2-4.5 12.3l-2.3 4.2-1.4 2.7c-4 3-8.4 13-9.6 15.1-1.3 2-2.3 16.6-2.3 21.4 0 5 4.2 15.1 5.4 18.1 1.3 2.8 8.6 9.2 11 10.6s10.5 1.7 13 1.7 5.5-2.5 6.7-5.5l3.8.4 1.7.1c.1 2.1 5.8 3.8 7.2 4.7 1.4.7 5.1.1 6.2-.1 1.1-.3 2.4 9.8 1.6 12.6-.8 2.8 2 13 2.8 16.1.8 3.1 4.2 11.5 4.7 14.4.3 3-2 13-2.4 16.4-.4 3.5 4.4 13.3 5.7 16.7 1.3 3.4 2.3 10.6 2.3 12.3s5.2 11.7 6.4 16c.8 3.3 13.8 4.3 17.4 2.2zM535.3 503c.3.7 3.7-1.8 5.5-2.1 2-.3 3.3-5.5 1.7-5.9-1.6-.4-3.5-4.5-4.7-5-1.1-.6-3.3 1.7-3.3 3.4.1 1.6-3.5 2.3-4.2 3.5s-.7 2.3.1 2.1c.9-.1 4.4 3.3 4.9 4zM531.2 531.7c1-.4-.1-5.5-2.1-5.9-2.1-.4-7.6 6.9-6.7 11 1.1 4.2 2.3 4 2.8 3.1.6-.8 4 .6 5 .8 1 .3 1-.7 0-2.3-1-1.5 0-6.4 1-6.7zM520 526.6c.3-1.8.6-7.6.8-8.8.2-1.2-3.1-4.5-5-5.1-1.7-.6-7.2 11.3-11.2 13.4-4 2.1-5.4 9.3-4.4 11 1.1 1.7 9.3 2.5 10.8 3.8 1.4 1.3 3-.1 4-.4.8-.1.6-.7.3-1-.3-.1 2.8-3.5 3.4-5.7.6-2.1 1.1-5.4 1.3-7.2zM497.6 546.4c-3.1-1.1-6.7.7-6.9 1.8-.3 1.1 11.9 3.1 16 4.2s6.5 1.4 5.7.7c-1-.5-11.7-5.4-14.8-6.7zM522.4 467c1-1.4-1.4-7.8-2.5-6.4-1.1 1.4-.3 5.1 0 6.5.4 1.5 1.5 1.3 2.5-.1zM529.8 480.7c.7-1.7-.8-3.4-3.5-4-2.7-.6-2.3 7.4-1.1 8.4 1.2 1 3.8-2.7 4.6-4.4zM543.5 530c3.1 2.3 10.2 1.1 10.5-3.1-3.2-2-10.8-1.7-10.5 3.1zM541.8 432.6c-1.3.8-2 3.3-1.6 4.2h-.6c-1 0-1.1 4.1 0 4.8 1.1.7 3.8-3.3 5.1-4.2 1.4-1 4.2-1.6 4.7-1.3.4.3 2.8-.4 5.4-1.6.4-.3 1-.8 1.6-1.8-.6-3.1-1.4-6.1-2.1-9.1-1.3 1-2.8 2-3.5 2.5-1.4 1.6-7.3 5.4-9 6.5zM469.7 516.4c-.5-.4-.7-.4 0 0zM489.3 534.7c-1.1-2.5-5-6.9-8.4-9.8l-1.3-2.1-1.4-2.4c-1.3-2.7-5.2-4.7-5.5-5.4s-1.6 2.3-3 1.4c.7.4 2.1 1.6 4.2 3 3.7 2.7 10.8 20.4 12.3 21.7 1.7 1.2 4.2-3.9 3.1-6.4zM433.1 505.9c-1 2 5.2 6.2 5.7 5.2.6-1-.8-5.9-1.8-6.9-1.2-1-3.1-.2-3.9 1.7zM350.6 600.9c.3 2.1 4.5 3.8 5.8 3.4 1.3-.4 4.7-6.8 5.2-8.5.4-1.8.8-5.8.8-6.8s.6-3.1 1-3.4c.4-.3 1.3-2.4 1.7-4.8.4-2.4-2.5-13.6-2.7-15.6 0-2-2.3 1-2.8 3-.6 2-6.2 6.1-7.4 7.8-1.3 1.7-2.5 7.4-2.1 8.4.4 1-.4 4.8-1 5.9-.5 1.3 1.3 8.5 1.5 10.6zM149.5 678.5h3.7c.6-4.1-3.9-3.4-3.7 0zM249.5 256.4c-1.6.1-5.7-.6-6.4-1.4-.7-.7-6.8-1.4-8.5-.7-1.8.7-.6-4.2 1.8-4.8 2.4-.6.4-4-2.3-4-2.5 0-9.1-1-10.5-.6-1.6.3-4.5-1-5.5-1.3-1.1-.1-8.8 2.3-12.5 2.1-3.7-.1-12.6.1-14.6.7s-3.4 4.4-3.1 5.7c.3 1.4-8.6 1.3-11.5 1.4-2.8 0-17.8 3.3-21.8 5.4-4 2.1-6.9 7.6-5.7 7.8 1.3.1-2.1 3.3-4.2 4-2.1.7-7.2 1-8.4 2.3-1.1 1.1 1.3 2 1.7 2.8s1.8-.7 3.3 0c1.3.7 5.7 1.1 6.8 1.6 1.1.4-3.7 1.4-5.9 1.6s-1.8 4.7.1 5.2c1.8.6 6.7 1.3 7.2.6.6-.8 5.8.8 8.1 1.1 2.4.3 4.1 6.1 4.8 7.5.7 1.3.8 5.8.7 7.1-.1 1.3 4.1 3.7 5 2.8.7-.8.6 2-1.1 1.8-1.7-.1-.6 4.8 1.6 5.5 2.1.7.7 3.8-.6 4.7-1.3 1-.6 3.8-1.8 5-1.3 1 4.5 11 4.5 16.1 0 5.1 3.1 9.3 4.4 9.3s5.4 1 5.9 2.1c.6 1.1 2.5-.7 3.4-1.6.8-.8 2.5-3.3 3.8-5.5 1.3-2.1 4.1-12.5 4.5-13.6.4-1.1 5.2-.4 6.4-1 1.1-.6 4.2-3 5.1-3.8.8-.7 7.8-3.7 9.6-5 1.8-1.4 5-7.2 6.5-8.4 1.4-1.3-.7-.8-2.5-2.1-1.8-1.1-1-2.7-.4-3.3.6-.6 6.1 1 7.9 1.7 2 .7 5.5-1.8 4.1-3-1.4-1-.7-1 0-.6s1.4-3.4.7-4.1c-.7-.7 5.7-5.4 4.5-9.8-1.1-4.4 1.7-8.9 3.4-8.9s1.3-5-.8-5.4c-2-.4-.1-.8.7-1.6.7-.7 1.7-5.1 1.3-5.9s3.1-1.8 3.7-2.8c.7-1 4.7-3 6.2-3.3 1.1.2 2-3.7.4-3.4zM285 260c-2-.7-5.9 1.4-5.4 2.7.6 1.3-3.3-1.6-5.8-.3-2.5 1.4-3.3 5.9-2.1 6.5 1.1.6 2.1 4.2 2.1 5 0 .7 5.1.1 6.4-.8 1.3-1.1 1.1 3.7-.1 5-1.3 1.3.4 3.8 1.8 4.1 1.4.1 3.3 3.5 4.7 3.4 1.4 0 3.8-5.5 4.4-7.6.6-2 5.4-.4 7.5.3 2.1.7 3-7.6.6-8.8-2.4-1.3-5.4-.6-6.4-1.6s-2.7-1.8-3.7-2c-1-.4-2.1-5.4-4-5.9zM304 263.9c3.8.6 8.2-2.7 9.1-3.5 1-.8-10.6-3.3-15.1-3.4-4.4-.1-7.9.4-7.9 1.3.2.8 10.1 5.1 13.9 5.6zM233.8 367.9c-1-.4-1.6 3.4-1.3 4.8.3 1.4 3.8 1.3 5.2 1 1.6-.3 2.7-1.4 2.7-2.7-.1-1.3-2.3-6.9-3.1-6.9-.8.2-2.5 4.3-3.5 3.8zM245.3 323.6c-.8-1.4-6.8-1.3-8.4-1.3-1.4-.1-5.9-1.6-6.8-2.5-.9-.9-1.6 3.7-2.8 4.4-1.4.6.7 1.6 1.3 1 .6-.6 0 2.4-.7 3.4-.6 1 4 1.7 4.5 3.3s2.4 2.4 4.2 2.1 5.4-2.1 6.8-2.3c1.2-.1 2.6-6.6 1.9-8.1zM371.9 289.1c2.1-2.1 10.6-5 11.6-7.1s-.6-4-1.4-4c-.8 0-2 1.1-2.1 1.4-.3.4-10 2.7-13 4.1-3 1.4-6.5 3.7-7.8 5-1.3 1.3-3.4 11-4.1 12-.7 1.1 3.3 5.1 5.1 6.1 1.7 1.1 4.2.6 4.8.3.7-.3-.8-6.9-1.8-9.3-.9-2.1 6.8-6.4 8.7-8.5zM361.5 263.8c3.3 3.3 5-1.4 8.5-1 0-6.4-8.8-4.3-8.5 1zM424.2 265c-.1 1.1 8.9 2.1 11.6 1.7 2.7-.4-.6-4.5-4.4-4.4-4 .3-7.1 1.5-7.2 2.7zM97.8 331.9c-1 .8-.1 5.2 1.7 5.4 1.8.1 4.7-6.7 6.9-5.2s3.7 1.8 3.4 1.1c-.4-.7-6.7-3.4-7.5-4-.8-.5-3.5 1.8-4.5 2.7zM120.9 481.6c0 .7 4 .7 4.5-.6.6-1.1.3-2.1-.7-2.1-1-.1-3.8 1.8-3.8 2.7zM103.5 475.1c1.8-.4 1 2.7 1.4 3.8.4 1.1 5 2 5.8 2.7.8.7 3.3-1.4 5.1-1.1s-.6-6.2-3.7-6.1c-3 .1-5.4-2.7-6.1-3.1-.7-.3-4.2-2.4-5.2-3.3-1-.8-8.6-1.4-11.3-1.4s-5.5 2.7-5.9 3.5c-.4.8 4.1 1.4 5.4.8 1.3-.7 7.4.7 8.6 2.3 1.3 1.3 3.9 2.3 5.9 1.9zM95.1 481.6c0 .7 4 .3 5 .3s1-.7 0-1.4c-1-.9-5 .2-5 1.1zM97.9 461.1c-1-.4-1.8 1.3-1.8 2s.6 1.4 1.3 1.4c.7 0 1.5-3 .5-3.4zM106.3 461.8c-.3-.7-2-1.4-2.5-1.4-.6 0-.8 1.3-.8 3 0 1.5 3.6-.9 3.3-1.6zM112.2 471c1.6-.8 1.8-2.7.8-2.5-1 .1-2.7-2.8-3.7-3.1-1-.4-1.8 1.7-1.8 2.7s.6 1.6 1.3 1.4c.7-.4 1.9 2.2 3.4 1.5zM555.4 533.2c-.8.4-4.8.8-5.4.1-.6-.8-1.3 1.6-2.1 2-.8.4-.4 2.5.8 1.8.8-.4 4.7 1.7 7.8 3.5.6-3.1 1.1-6.1 1.7-9.2-1.1.9-2.3 1.6-2.8 1.8z"/></g><g fill="#E6E7E8"><path d="M99.6 568.5c-.4.7 4.5 5.8 6.4 7.5 1.8 1.7 5.9 9.9 6.7 12.6.8 2.7.3 7.1.1 8.1-.3 1 .8 3.3 1.1 4.2.1 1-1.7 8.9-1 12.2s-3.8 13.3-3.7 18.3c.1 5 2.4 11.5 3.3 11 .8-.4 1.3 4.5-.3 5.1-1.6.6-3.3 4.5-2.4 4.8.8.1 0 4.1.1 5.7.3 1.6 1.6 12 1.8 14.6.3 2.5 4 8.9 4.8 11 .7 2.1 1.6 6.2 1.8 6.8.3.6.7 1.3.7 1.3.1 0 3 1.1 4 1.8.8.7 6.8.3 8.6-.1s.1-2.1-.7-3.1c-.8-1-1.6-5.5-2.5-6.1-1-.4-1.4-6.4-.6-7.6.8-1.3 4.4-3.4 4.8-4.5.4-1.1.4-6.2-.4-6.9-1-.7.3-6.9-.4-10-.7-3.1 5.4-5.9 5.7-8.4.4-2.4 6.9-5.1 8.4-6.2 1.4-1.3 2.8-8.2 2.1-9.8-.7-1.4 2.4-2.7 3.8-2.7s3-1 3.5-1 2.3-3.1 3.1-3.8c.8-.7 2.7-8.1 4.4-9.3 1.7-1.3 3-5.7 3-6.9 0-1.3 2.5-5.2 3.3-6.4.8-1.1 6.9-4 8.1-4.4 1.1-.4 2.7-10.3 3.1-13.9.4-3.5 2.3-8.2 2.4-9.5.1-1.1 2.1-2.1 2.4-2.5.4-.4 1.8-4.8 2.8-5.9 1-1 4.4-5.4 4.4-6.2.1-1 .6-3.4 1.1-5.5V546.6c-1.1-3-4.4-6.7-5.2-5.8-.8.8-4.7-2.7-6.5-3.4-2-.7-6.8-1.3-7.9-1.3-1.3 0-5.4-3.4-7.4-4.1-1.8-.6-6.7-1.6-7.6-2.1-.8-.6-2.1-7.8-5.9-10-3.8-2.3-10.8-7.8-11.5-9.8-.7-2-8.2-6.2-10.5-7.5-2.3-1.3-5.8-1.6-6.2-1.1-.4.5-3.3-3.8-4.8-5.1-1.4-1.1-5.9-2.3-6.1-1.1-.1 1.1-3.1.6-3.8-.4-.7-1-3 .4-4.1.7-1 .3-4.8 5.9-6.5 7.4-1.7 1.3-3.7-1.3-4.8-1.7-1.1-.4-5.4.8-6.5 1.7-1.1.8-3.8-5.9-3.3-9.2.6-3.1-2.8-9.3-5.5-9.5-2.7-.1-3.5-6.7-3-9.2.6-2.4-4.8-4-6.1-4.1-1.4-.1-4.7 3.3-5.2 4.8-.6 1.7-12.6-2.3-11.2-9.5s7.1-14.7 8.5-15.6c1.4-.8 9.2-1.3 10.9-.3 1.7 1 3.3 0 3.5-.4.3-.4 6.7.1 8.5.8s4.5 8.1 6.5 8.9c2 .8 2.7-4.7 3-6.1.3-1.4-1-4.8-1.4-5.8-.4-1 3.1-9.8 6.1-11.3 3-1.6 6.1-6.5 5.8-7.4-.3-.8 2.4-1.6 3.1-2 .7-.3-.1-7.5 1-9.1 1.1-1.6 6.7-4.8 8.5-5.5 1.7-.7 3.1-5.2 2.4-6.1-.7-.8 4.5-5.2 7.2-6.1 2.7-.9 5 1.6 4.4 2 .6-.3 4.2-2.3 5.8-3.3 1.8-1.3 0-4.5-1.1-5.5s-.4-4.8 1-5.2c1.4-.3 2.7-3.7 2.3-4.4-.4-.7 5.9.6 8.4-1.3 2.4-1.7.7 4.2-1.1 6.8-1.7 2.4 1.3 4.8 2.4 4.2 1.1-.4 2.4 1.3 2.5 2 .3.7 2.7-.7 4.2 0s2.5-2.1 2.7-3.5c.1-1.3-3.8-4.1-4.4-5.7-.6-1.6-.8-10.9-1-12.7-.1-1.8-2.7-5-3.4-4.4-.8.6-2.5-5-3.8-6.1s-1.7-3.8-1.6-4.7c0-.8-4.5-5.7-5.5-7.8-1.1-2.1-2.5-1.7-2.7-.7-.1 1-3.3 1.1-4.5 1-1.3-.1-2.4-5.1-2.4-7.1 0-1.8-5.8-2.3-6.8-3.7-1-1.6-4.8-.8-5.4-1.8-.6-1-4-2-4.7-1.7-.7.4-.4 14-1 17.7-.7 3.7-3.7 6.9-5 6.8-1.1-.1-.4 2.5.3 2.4.8-.3-2.1 4-2.5 6.8s-3.3-.1-3.7-2.7c-.4-2.5-3.3-5.9-3.7-5.1-.6.8-2.4-1-3.3-.6-.8.6-6.1-3-8.1-4.2-2.1-1.1-3.3-7.6-4.5-8.2-1.3-.6-.1-1.4-.3-2.3 0-1 4.1-4.8 5.4-6.2 1.3-1.6 5.8-7.4 7.5-8.6 1.8-1.3 3.1-4.7 2.8-5.2-.3-.6 7.6-3.1 9.8-3.8 2.1-.7 4-6.8 4.2-8.5.3-1.7-1.4-5-2.4-5.4-1-.4 3-.6 4.4.1 1.4.7 5.5-1.3 7.1-.4s5 2.8 7.2 4.2l-.6 4.4-1 7.5c-6.2 2.5-8.1 7.1-5.9 6.9 2.2-.2 12.2 4.4 15 6.4s3.7-3 4.5-4.5c.8-1.7.6-6.5-.1-7.4-.7-1 3.3-.6 4.4.4s2.4-1.1 3.3-1.4c.8-.4 1.3-4.5 1.7-5.4.4-.8-1.8-1.7-2-2.7 0-1-4.5-3-6.1-3.7-1.4-.7-1.8-3.8-1.1-4.4.7-.6-.4-4.5-1.3-5.8-.7-1.3-5.4-2.4-6.9-2.4s-3.1-3.7-4.1-4.1c-.8-.6-6.9-1.1-8.5-.7s-4.2-4.2-6.8-2.8c-2.5 1.4-5.1-1.7-6.2-2.3-1.1-.6-7.1 5.7-6.9 10.2 0 4.5 2.3 8.8 3.3 8.9 1 .1-.1 4.1-1.3 5.2-1 1.1-3.5-1.3-2.5-2.3 1-1-2.5-5.7-3.8-7.5-.8-1.4-4-2.5-5.9-3.4-1.3 1.3-2.4 2.7-3.5 4 .4 1.6 1 3.7.4 5.4-.8 2.7-3.1 3.1-3.3 2 0-.6-1.3-.8-2.5-1.1-1.3 1.4-2.4 3-3.5 4.5-1.1 1.6-2.4 3-3.5 4.5-1.3 1.6-2.4 3.3-3.7 4.8-1.1 1.4-2.1 3-3.1 4.4-1.6 2.3-3.1 4.4-4.5 6.7-1.4 2.1-2.8 4.4-4.2 6.5-1.1 1.8-2.3 3.8-3.4 5.8-.7 1.3-1.6 2.7-2.3 4-1.1 2-2.3 4.1-3.3 6.1-.6 1.1-1.3 2.3-1.8 3.5-2.4 4.8-4.8 9.8-6.9 14.7 0 .1-.1.3-.1.4-1.1 2.4-2.1 5-3.1 7.4-.4 1-.7 1.8-1.1 2.8-1 2.5-2 5.1-2.8 7.8-.1.4-.3.8-.4 1.3-3 8.6-5.7 17.5-7.8 26.6-.1.6-.3 1.3-.4 1.8-2.1 9.3-3.8 19-5 28.6v.3c1.3 1.6 2.8 3.3 3.3 4.5.7 2.4 5 4 5.7 4.4.8.4 1-4.5.4-5.9-.6-1.3 1-2.1 1-1.1s4 5.4 5.2 7.1c1.3 1.6 2.7 12 4 14.3 1.3 2.3 13.3 6.8 17.1 7.6 3.8.8 8.8 5.1 9.5 6.4.7 1.3 5.9 1.8 6.9 2.4 1.1.6 3.7 4 4.8 4.7s2 2.8 2 3.4c0 .6 6.8 3.1 8.5 5 1.6 1.8 4.4 1.3 4.8.6.6-.7 1.8 3.5 2.5 5.1s.8 5.2.3 5.8c-.6.6-1.6 7.4-2.7 8.8s-3.5 11.3-3.1 13.3c.6 2 3.7 5.9 5.1 6.7 1.4.6.8 2.7-.3 2.8-1.1.1-.6 9.6 2 11 2.5 1.4 4.6 5.5 4.3 6.2zM131.8 402.3zM113.1 287.4c3.3-.6 8.6-1.4 9.1-2.4.3-.7.3-3-.3-3.8h1.6c1.3 0 3.3-6.8 4.7-8.4 1.3-1.6 8.8-4 10.6-5 1.8-1.1 5.7-4.8 7.2-5.2 1.5-.4 3.7-4 3.4-4.7-.3-.7 5.1-4 7.1-4.8 2-.8 3.1-3.3 2.3-3.4-.6-.1-11.9 5.9-22.4 11.7l-.3.3c-3 2-5.9 4.1-8.8 6.2-2 1.4-3.8 3-5.8 4.5-1 .8-2 1.6-3.1 2.4-2.3 1.8-4.5 3.8-6.8 5.7-.4.4-1 .8-1.4 1.3-2.5 2.1-5 4.4-7.4 6.7 3.1-.2 8.2-.8 10.3-1.1zM285.8 420.6c-1.3 0-1.3 3.8 0 4.2 1 .3 2.3-2.1 3.4-3.8v-15.1l-.3-.3c-1.6-1.6-1.4-1.7.3-.4v-93.3c-1.4 1.3-2.7 2.5-3.5 3.1-2.3 1.7-6.1 9.3-7.4 11.2-1.3 1.8-3.1 2.1-3.8 2.1-.7 0-1.4 2.1-1.4 2.8 0 .7-6.7 4.1-7.2 7.2-.7 3 .7 9.9.7 12.3 0 2.4 2.4 7.2 4.2 7.4 1.8.1.8 4.1.4 5.2-.4 1.1 1.1 2.4 1.1 3.4s-4.7 2.3-6.1 2.8c-1.4.6-3.7 3.7-4 5-.3 1-4.7 1.8-6.1 3.1.3-1 .8-2.4 1.3-3.1.8-1.6-.3-4.4-1-5s-1-8.5-2.1-10.2c-1.1-1.7-4-4.5-4.5-5.1-.7-.6.4-2.7.8-3.5.4-.8-3.7-1.4-4.8-.7-1.1.7-1.7 8.5-2.3 10.6-.4 2.1 2 5.5 2.7 5.7.7.2.4 4-1 4.1s-2.8 5.8-2 7.1c.7 1.3-1 3.8-1.8 4.4-.8.6 5.5.3 8.5.1 2.8-.1 5.2 1.3 4.8 1.4-.3.3-5.5 1-6.5 2.3-1 1.3-4.5 3.7-5.2 4.7-.7 1 1.1 3.1 2.7 3s3.3 5.2 4.4 6.2.7 3.7.3 4.5c-.6.7-7.6-.6-10.3.1s-6.1 6.4-6.4 8.5c-.3 2.1.4 8.4.8 10 .3 1.7 5.9 2.8 7.1 3.7 1.1.8 6.7 0 7.8.6 1.1.6 4.8-5.5 5.5-8.2.7-2.8 6.5-7.9 7.6-9.8 1.1-1.8 7.4-1.7 8.9-2.7 1.6-1 .7 4.7 1.4 7.8.7 3.1 6.7 2.7 5.8-.1-.8-3 .6-4.2.8-3.1.3 1 5.9 3.4 7.1 5.1.8 1.2.4 4.7-.7 4.7zM289 439c-1.1-.6-2.3-1.1-3.1-1.6-3.5-1.4-6.2-6.8-6.9-7.5-.7-.7.6-2.4.3-3.5s-8.4-1.3-10.6-.4c-2.4.8-14.3 2.1-17.3 3.4-2.8 1.3-7.1-.1-8.5-.3-1.3-.3-4.5 3.7-6.1 4.4-1.7.7-3.7 6.2-4.5 12.3L230 450l-1.4 2.7c-4 3-8.4 13-9.6 15.1-1.3 2-2.3 16.6-2.3 21.4 0 5 4.2 15.1 5.4 18.1 1.3 2.8 8.6 9.2 11 10.6 2.4 1.4 10.5 1.7 13 1.7s5.5-2.5 6.7-5.5l3.8.4 1.7.1c.1 2.1 5.8 3.8 7.2 4.7 1.4.7 5.1.1 6.2-.1 1.1-.3 2.4 9.8 1.6 12.6-.8 2.8 2 13 2.8 16.1s4.2 11.5 4.7 14.4c.3 3-2 13-2.4 16.4-.4 3.5 4.4 13.3 5.7 16.7 1.3 3.4 2.3 10.6 2.3 12.3 0 .8 1.3 3.8 2.8 7.2V439h-.2zM149.5 678.5h3.7c.6-4.1-3.9-3.4-3.7 0zM225 305.4c2 .7 5.5-1.8 4.1-3-1.4-1-.7-1 0-.6s1.4-3.4.7-4.1c-.7-.7 5.7-5.4 4.5-9.8-1.1-4.4 1.7-8.9 3.4-8.9s1.3-5-.8-5.4c-2-.4-.1-.8.7-1.6.7-.7 1.7-5.1 1.3-5.9-.4-.8 3.1-1.8 3.7-2.8.7-1 4.7-3 6.2-3.3 1.4-.3 2.3-4.1.7-4-1.6.1-5.7-.6-6.4-1.4-.7-.7-6.8-1.4-8.5-.7-1.8.7-.6-4.2 1.8-4.8 2.4-.6.4-4-2.3-4-2.5 0-9.1-1-10.5-.6-1.6.3-4.5-1-5.5-1.3-1.1-.1-8.8 2.3-12.5 2.1-3.7-.1-12.6.1-14.6.7s-3.4 4.4-3.1 5.7c.3 1.4-8.6 1.3-11.5 1.4-2.8 0-17.8 3.3-21.8 5.4-4 2.1-6.9 7.6-5.7 7.8 1.3.1-2.1 3.3-4.2 4s-7.2 1-8.4 2.3c-1.1 1.1 1.3 2 1.7 2.8s1.8-.7 3.3 0c1.3.7 5.7 1.1 6.8 1.6 1.1.4-3.7 1.4-5.9 1.6-2.2.2-1.8 4.7.1 5.2 1.8.6 6.7 1.3 7.2.6.6-.8 5.8.8 8.1 1.1 2.4.3 4.1 6.1 4.8 7.5.7 1.3.8 5.8.7 7.1s4.1 3.7 5 2.8c.7-.8.6 2-1.1 1.8-1.7-.1-.6 4.8 1.6 5.5 2.1.7.7 3.8-.6 4.7-1.3 1-.6 3.8-1.8 5-1.3 1 4.5 11 4.5 16.1 0 5.1 3.1 9.3 4.4 9.3s5.4 1 5.9 2.1c.6 1.1 2.5-.7 3.4-1.6s2.5-3.3 3.8-5.5c1.3-2.1 4.1-12.5 4.5-13.6s5.2-.4 6.4-1c1.1-.6 4.2-3 5.1-3.8.8-.7 7.8-3.7 9.6-5 1.8-1.4 5-7.2 6.5-8.4 1.4-1.3-.7-.8-2.5-2.1-1.8-1.1-1-2.7-.4-3.3.3.2 5.8 1.6 7.6 2.3zM285 260c-2-.7-5.9 1.4-5.4 2.7.6 1.3-3.3-1.6-5.8-.3-2.5 1.4-3.3 5.9-2.1 6.5 1.1.6 2.1 4.2 2.1 5 0 .7 5.1.1 6.4-.8 1.3-1.1 1.1 3.7-.1 5-1.3 1.3.4 3.8 1.8 4.1 1.4.1 3.3 3.5 4.7 3.4.7 0 1.7-1.4 2.5-3.1v-16.7c-1.1-.3-2.2-5.3-4.1-5.8zM237.8 373.9c1.6-.3 2.7-1.4 2.7-2.7-.1-1.3-2.3-6.9-3.1-6.9s-2.5 4.1-3.5 3.8c-1-.4-1.6 3.4-1.3 4.8.1 1.4 3.6 1.3 5.2 1zM232.4 331.7c.6 1.6 2.4 2.4 4.2 2.1s5.4-2.1 6.8-2.3c1.3-.1 2.7-6.5 1.8-7.9-.8-1.4-6.8-1.3-8.4-1.3-1.4-.1-5.9-1.6-6.8-2.5-.9-.9-1.6 3.7-2.8 4.4-1.4.6.7 1.6 1.3 1 .6-.6 0 2.4-.7 3.4s4 1.7 4.6 3.1zM97.8 331.9c-1 .8-.1 5.2 1.7 5.4 1.8.1 4.7-6.7 6.9-5.2s3.7 1.8 3.4 1.1c-.4-.7-6.7-3.4-7.5-4-.8-.5-3.5 1.8-4.5 2.7zM120.9 481.6c0 .7 4 .7 4.5-.6.6-1.1.3-2.1-.7-2.1-1-.1-3.8 1.8-3.8 2.7zM103.5 475.1c1.8-.4 1 2.7 1.4 3.8.4 1.1 5 2 5.8 2.7.8.7 3.3-1.4 5.1-1.1s-.6-6.2-3.7-6.1c-3 .1-5.4-2.7-6.1-3.1-.7-.3-4.2-2.4-5.2-3.3-1-.8-8.6-1.4-11.3-1.4s-5.5 2.7-5.9 3.5c-.4.8 4.1 1.4 5.4.8 1.3-.7 7.4.7 8.6 2.3 1.3 1.3 3.9 2.3 5.9 1.9zM95.1 481.6c0 .7 4 .3 5 .3s1-.7 0-1.4c-1-.9-5 .2-5 1.1zM97.9 461.1c-1-.4-1.8 1.3-1.8 2s.6 1.4 1.3 1.4c.7 0 1.5-3 .5-3.4zM106.3 461.8c-.3-.7-2-1.4-2.5-1.4-.6 0-.8 1.3-.8 3 0 1.5 3.6-.9 3.3-1.6zM112.2 471c1.6-.8 1.8-2.7.8-2.5-1 .1-2.7-2.8-3.7-3.1-1-.4-1.8 1.7-1.8 2.7s.6 1.6 1.3 1.4c.7-.4 1.9 2.2 3.4 1.5z"/></g></g><g opacity=".52"><path fill="#8A8C8E" d="M237.5 562h1.8v8.2h-1.8zM234.8 565.1h7.2v2.1h-7.2zM498 667.3l-.4 3.2-2.8.5 2.8.5.4 3.1.6-3.1 2.8-.5-2.8-.5zM484.7 704.1l-.4 3.1-2.8.6 2.8.5.4 3.1.5-3.1 2.8-.5-2.8-.6zM410 299.2l-.3 1.5-1.5.3 1.5.3.3 1.7.2-1.7 1.5-.3-1.5-.3zM309.2 184l-.4 3.2-2.8.4 2.8.6.4 3.1.5-3.1 2.8-.6-2.8-.4zM436.9 314.3l-.1 1.7-1.6.1 1.6.3.1 1.7.3-1.7 1.4-.3-1.4-.1zM373.2 594.4l-.1 1.7-1.6.3 1.6.3.1 1.5.3-1.5 1.4-.3-1.4-.3zM375.8 625.7l-.5 3.1-2.8.5 2.8.5.5 3.2.5-3.2 2.9-.5-2.9-.5zM385.2 614.9l-.1 1.6-1.6.3 1.6.2.1 1.7.3-1.7 1.4-.2-1.4-.3zM525.9 577.5l-.3 1.7-1.4.3 1.4.3.3 1.6.3-1.6 1.4-.3-1.4-.3zM356.9 116.4l-.4 3.3-2.8.4 2.8.6.4 3.1.5-3.1 2.8-.6-2.8-.4zM342.8 134.6l-.3 1.7-1.4.2 1.4.3.3 1.6.3-1.6 1.4-.3-1.4-.2zM235.4 637.4h1.8v8.2h-1.8zM232.7 640.5h7.2v2.1h-7.2zM340.2 285.3h1.8v8.2h-1.8zM337.6 288.3h7.2v2.1h-7.2zM63.5 505.5l-.4 3.1-2.8.6 2.8.6.4 3.1.5-3.1 2.8-.6-2.8-.6zM124.4 84.3l-.4 2.3-1.9.3 1.9.4.4 2.1.3-2.1 1.8-.4-1.8-.3zM88.5 637.8L88 641l-2.8.5 2.8.6.5 3.1.4-3.1 2.8-.6-2.8-.5zM176.1 373.7l-.5 3.2-2.8.5 2.8.4.5 3.3.4-3.3 2.8-.4-2.8-.5zM182.9 728.8l-.3 1.6-1.4.3 1.4.3.3 1.7.1-1.7 1.6-.3-1.6-.3zM193.8 118.3l-.6 3.2-2.8.5 2.8.5.6 3.1.4-3.1 2.8-.5-2.8-.5zM169.1 129.6l-.4 3.1-2.8.6 2.8.5.4 3.2.5-3.2 2.8-.5-2.8-.6zM338.4 742.1l-.4 3.2-2.9.5 2.9.6.4 3.1.4-3.1 2.9-.6-2.9-.5zM324.2 760.3l-.2 1.7-1.5.1 1.5.3.2 1.7.3-1.7 1.4-.3-1.4-.1zM307.3 553.3l-.5 3.2-2.8.5 2.8.5.5 3.2.4-3.2 2.8-.5-2.8-.5zM337.3 562.7l-.2 1.7-1.5.3 1.5.1.2 1.7.3-1.7 1.4-.1-1.4-.3zM94.8 257.8l-.4 3.1-2.8.6 2.8.6.4 3.1.5-3.1 2.8-.6-2.8-.6zM194.2 366.2l-.3 1.6-1.6.3 1.6.3.3 1.7.1-1.7 1.6-.3-1.6-.3zM412.6 444.7l-.5 3.2-2.8.4 2.8.6.5 3.1.4-3.1 2.8-.6-2.8-.4zM262.7 217.1l-.4 3.1-2.9.5 2.9.5.4 3.2.5-3.2 2.9-.5-2.9-.5zM353.7 270.9l-.3 1.6-1.4.3 1.4.2.3 1.7.3-1.7 1.4-.2-1.4-.3zM158.7 526.2h1.8v8.2h-1.8zM155.8 529.3h7.2v2.1h-7.2zM467.5 610.8h1.8v8.2h-1.8zM464.8 613.8h7.2v2.1h-7.2z"/></g><g opacity=".59"><path fill="#BCBEC0" d="M410.4 521.1h-53.6v-46.8h53.6v46.8zm-51.8-1.9h49.8V476h-49.8v43.2zM404.8 515.4h-42.5v-35.7h42.5v35.7zm-40.6-1.8H403v-32h-38.8v32zM402.1 508.5l-8.1-7-9.3 6.3-12-13-8.8 9-1.3-1.3 10.1-10.4 12.3 13.3 9.2-6.1 9.2 7.8zM385.8 496.5c-3.1 0-5.8-2.5-5.8-5.8s2.5-5.8 5.8-5.8 5.8 2.5 5.8 5.8-2.5 5.8-5.8 5.8zm0-9.7c-2.1 0-4 1.7-4 4 0 2.1 1.7 4 4 4 2.1 0 4-1.7 4-4s-1.9-4-4-4zM94.1 545.3c-1.8 0-3.1-.8-3.4-2.3-.4-2.3 1.7-5.1 5.1-6.7 1.3-.6 2.5-.8 3.7-.8 1.8 0 3.1.8 3.4 2.3.4 2.3-1.7 5.1-5.1 6.7-1.3.4-2.5.8-3.7.8zm5.3-8.1c-.8 0-1.8.3-2.8.7-2.7 1.3-4.2 3.4-4.1 4.7.1.7 1 .8 1.6.8.8 0 1.8-.3 2.8-.7 2.7-1.3 4.2-3.4 4.1-4.7-.1-.6-1.1-.8-1.6-.8zM101.1 517.4h1.8v20.5h-1.8zM116.2 539.9c-1.8 0-3.1-.8-3.4-2.3-.4-2.3 1.7-5.1 5.1-6.7 1.3-.6 2.5-.8 3.7-.8 1.8 0 3.1.8 3.4 2.3.4 2.3-1.7 5.1-5.1 6.7-1.3.4-2.6.8-3.7.8zm5.2-8.1c-.8 0-1.8.3-2.8.7-2.7 1.3-4.2 3.4-4.1 4.7.1.7 1 .8 1.6.8.8 0 1.8-.3 2.8-.7 2.7-1.3 4.2-3.4 4.1-4.7 0-.6-1-.8-1.6-.8zM123.1 512h1.8v20.5h-1.8zM101.1 525.5v-8.8l23.9-5.8v8.8l-23.9 5.8zm1.8-7.4v5.1l20.2-5v-5.1l-20.2 5zM94.1 545.3c-1.8 0-3.1-.8-3.4-2.3-.4-2.3 1.7-5.1 5.1-6.7 1.3-.6 2.5-.8 3.7-.8 1.8 0 3.1.8 3.4 2.3.4 2.3-1.7 5.1-5.1 6.7-1.3.4-2.5.8-3.7.8zm5.3-8.1c-.8 0-1.8.3-2.8.7-2.7 1.3-4.2 3.4-4.1 4.7.1.7 1 .8 1.6.8.8 0 1.8-.3 2.8-.7 2.7-1.3 4.2-3.4 4.1-4.7-.1-.6-1.1-.8-1.6-.8zM101.1 517.4h1.8v20.5h-1.8zM116.2 539.9c-1.8 0-3.1-.8-3.4-2.3-.4-2.3 1.7-5.1 5.1-6.7 1.3-.6 2.5-.8 3.7-.8 1.8 0 3.1.8 3.4 2.3.4 2.3-1.7 5.1-5.1 6.7-1.3.4-2.6.8-3.7.8zm5.2-8.1c-.8 0-1.8.3-2.8.7-2.7 1.3-4.2 3.4-4.1 4.7.1.7 1 .8 1.6.8.8 0 1.8-.3 2.8-.7 2.7-1.3 4.2-3.4 4.1-4.7 0-.6-1-.8-1.6-.8zM123.1 512h1.8v20.5h-1.8zM101.1 525.5v-8.8l23.9-5.8v8.8l-23.9 5.8zm1.8-7.4v5.1l20.2-5v-5.1l-20.2 5zM417.5 208.7h-19v-1c.1-1.3 0-5-1.4-6.8-6.7-8.6-6.8-16.8-6.8-16.8 0-9.6 7.9-17.5 17.5-17.5s17.5 7.9 17.5 17.5c0 .1-.1 8.4-6.9 16.8-1.3 1.7-1.4 5.4-1.3 6.7l.4 1.1zm-17-1.8h15c0-1.7.1-5 1.7-6.9 6.4-8.1 6.5-15.7 6.5-15.7 0-8.6-7.1-15.7-15.7-15.7s-15.7 7.1-15.7 15.7c0 .1.1 7.6 6.5 15.7 1.5 1.8 1.7 5.2 1.7 6.9zM399.3 211.8H417v1.8h-17.7zM401.4 216.8h13.4v1.8h-13.4zM403.224 183.786l2.84 23.428-1.788.217-2.84-23.427zM412.835 183.684l1.787.216-2.835 23.43-1.787-.216zM412 189.3c-.7 0-1.1-.6-1.4-1-.3.4-.6 1-1.4 1-.7 0-1.1-.6-1.4-1-.3.4-.6 1-1.4 1-.7 0-1.1-.6-1.4-1-.3.4-.6 1-1.4 1-1 0-1.3-.8-1.6-1.3 0-.1-.1-.3-.1-.4 0 0 .1.1.3.1v-1.8c.7 0 1.1.6 1.4 1 .3-.4.6-1 1.4-1 .7 0 1.1.6 1.4 1 .3-.4.6-1 1.4-1s1.1.6 1.4 1c.3-.4.6-1 1.4-1 .7 0 1.1.6 1.4 1 .3-.4.6-1 1.4-1v1.8c.1 0 .3-.1.3-.1s-.1.3-.1.4c-.2.5-.6 1.3-1.6 1.3zM297.2 610l-8.4-6.1-8.4 6.1 3.3-9.9-8.4-6.1h10.3l3.3-9.9 3.3 9.9h10.3l-8.4 6.1 3.1 9.9zm-8.5-8.4l5 3.5-1.8-5.8 5-3.5h-6.1l-2-5.7-1.8 5.8h-6.1l5 3.5-1.8 5.8 4.6-3.6zM505.3 436.7h-1.9v-9.2h9.2v1.9h-7.3zM504.7 437.7h-15.6v-30.1h24.3v21.2l-8.7 8.9zm-13.6-1.8H504l7.6-7.6v-18.7h-20.5v26.3zM494.8 412.8h8.1v1.8h-8.1zM494.8 416.2h13.4v1.8h-13.4zM494.8 419.5h13.4v1.8h-13.4zM494.8 422.9h5.7v1.8h-5.7zM427.4 690.3c-4.5-1.7-9.6-2.4-14.4-1.7l-.3-1.8c5.2-.7 10.5 0 15.4 1.8l-.7 1.7zM402.9 691.9l-.8-1.7c1.1-.6 2.3-1.1 3.5-1.6l.7 1.7c-1.1.5-2.2 1-3.4 1.6zM422 699.4h-1.8c0-9.8-4.8-19-12.9-24.5l1-1.6c8.8 6 13.9 15.6 13.7 26.1zM418.9 678.7c-2.8-2-5.4-4.4-7.5-7.2l1.4-1.1c2 2.7 4.4 5 7.1 6.8l-1 1.5zM431.8 683.8c-2.4-.3-4.7-1-6.8-1.8l.7-1.7c2.1.8 4.2 1.4 6.4 1.7l-.3 1.8zM422.3 683.8c-2.3 0-4.2-1.8-4.2-4.2 0-2.4 1.8-4.2 4.2-4.2 2.3 0 4.2 1.8 4.2 4.2.1 2.4-1.9 4.2-4.2 4.2zm0-6.6c-1.3 0-2.4 1-2.4 2.4 0 1.3 1 2.4 2.4 2.4 1.3 0 2.4-1 2.4-2.4-.1-1.3-1.1-2.4-2.4-2.4zM430.7 695.3c-2.3 0-4.2-1.8-4.2-4.2 0-2.3 1.8-4.2 4.2-4.2 2.3 0 4.2 1.8 4.2 4.2 0 2.4-1.8 4.2-4.2 4.2zm0-6.5c-1.3 0-2.4 1-2.4 2.4 0 1.3 1 2.4 2.4 2.4 1.3 0 2.4-1 2.4-2.4 0-1.3-1.1-2.4-2.4-2.4zM416.8 701.8c-8.9 0-16.1-7.2-16.1-16.1 0-8.9 7.2-16.1 16.1-16.1 8.9 0 16.1 7.2 16.1 16.1 0 .8-.1 1.7-.3 2.5l-1.8-.3c.1-.8.1-1.6.1-2.3 0-7.9-6.4-14.3-14.3-14.3s-14.3 6.4-14.3 14.3 6.4 14.3 14.3 14.3c4.8 0 9.2-2.4 11.9-6.4l1.6 1c-2.8 4.6-7.9 7.3-13.3 7.3zM409.4 693c-2.3 0-4.2-1.8-4.2-4.2 0-2.3 1.8-4.2 4.2-4.2 2.3 0 4.2 1.8 4.2 4.2 0 2.4-1.7 4.2-4.2 4.2zm0-6.5c-1.3 0-2.4 1-2.4 2.4 0 1.3 1 2.4 2.4 2.4 1.3 0 2.4-1 2.4-2.4s-1.1-2.4-2.4-2.4zM290.7 194c-3.3 0-5.9-2.7-5.9-5.9 0-3.3 2.7-5.9 5.9-5.9s5.9 2.7 5.9 5.9-2.5 5.9-5.9 5.9zm0-8.9c-1.6 0-2.8 1.3-2.8 2.8 0 1.5 1.3 2.8 2.8 2.8s2.8-1.3 2.8-2.8c0-1.5-1.1-2.8-2.8-2.8zM315.3 180.8c-3.3 0-5.9-2.7-5.9-5.9 0-3.3 2.7-5.9 5.9-5.9s5.9 2.7 5.9 5.9c.1 3.2-2.6 5.9-5.9 5.9zm0-8.9c-1.6 0-2.8 1.3-2.8 2.8 0 1.5 1.3 2.8 2.8 2.8s2.8-1.3 2.8-2.8c0-1.5-1.2-2.8-2.8-2.8zM315.3 207.2c-3.3 0-5.9-2.7-5.9-5.9s2.7-5.9 5.9-5.9 5.9 2.7 5.9 5.9c.1 3.2-2.6 5.9-5.9 5.9zm0-9c-1.6 0-2.8 1.3-2.8 2.8 0 1.5 1.3 2.8 2.8 2.8s2.8-1.3 2.8-2.8c0-1.5-1.2-2.8-2.8-2.8zM295.79 188.464l15.675 9.052-1.55 2.684-15.675-9.05zM309.99 175.902l1.548 2.685-15.676 9.048-1.55-2.684zM60.7 626.5c-1.3 0-2.4-.8-2.7-2.1l-4.1-15.9c-.1-.7-.1-1.4.3-2.1.4-.7 1-1.1 1.7-1.3l24.2-6.2c.3 0 .4-.1.7-.1 1.3 0 2.4.8 2.7 2.1l4.1 15.9c.4 1.6-.6 3-2 3.4l-24.2 6.2c-.1.1-.4.1-.7.1zM81 600.6h-.3l-24.2 6.2c-.3 0-.4.3-.6.4-.1.3-.1.4-.1.7l4.1 15.9c.1.4.7.8 1.1.7l24.2-6.2c.6-.1.8-.7.7-1.1l-4.1-15.9c0-.4-.4-.7-.8-.7zM60.9 626.5c-.8 0-1.7-.4-2.3-1.1l-.4-.6 7.6-11.5 1.6 1-6.8 10.2h.6l24.2-6.2c.1 0 .3-.1.4-.3l-11-5.7.8-1.7 12.3 6.4v.6c-.1 1.1-1 2.1-2.1 2.4l-24.2 6.2c-.3.3-.6.3-.7.3zM72.2 617.6l-18.4-9.5.1-.6c.1-1.1 1-2.1 2.1-2.4l24.2-6.2c1.1-.3 2.3.1 3 1.1l.4.6-11.4 17zM56 607.3l15.6 8.1 9.8-14.6h-.6L56.6 607c-.3 0-.4.1-.6.3zM161.3 382l-5.8-19.8 10.8-3.3 5.8 19.8-10.8 3.3zm-3.6-18.6l4.8 16.3 7.2-2.1-4.8-16.3-7.2 2.1zM181.9 374.6c-.3 0-.7 0-1.1-.1-.8-.1-2.3-.3-3.8-.4-.7 0-1.6-.1-2.4-.1-.8 0-1.6-.1-2.1-.1-1.3 0-2.1.1-2.7.3l-.8.1-3.7-12.5.4-.4c2-1.6 5.4-5.4 6.7-7.4.7-2.3.4-5.1.4-5.2 0-.6.1-1 .4-1.4.8-1 2.7-1 2.8-1 .4 0 1.1.1 1.7.8 1.1 1.3 1.7 3.5 1.4 6.4 0 .4-.1.7-.1 1.1 0 .3-.1.4-.1.7v1.3c.4.3 2.4.8 6.4.8h.6c2.4 0 4.4 2 4.4 4.4 0 1-.4 2-1 2.8.1.4.1.7.1 1.1 0 1.1-.6 2.1-1.4 2.7v.3c-.1 1.4-.8 2.5-2.1 3.3 0 .1-.1.3-.1.6-.7 1.2-2.1 1.9-3.9 1.9zm-9.7-2.7c.7 0 1.4 0 2.3.1.8.1 1.6.1 2.4.1 1.6.1 3 .3 4 .4h.8c1.1 0 1.8-.3 2-.7.1-.1.1-.4.1-.6v-.6l.6-.1c.8-.3 1.3-1 1.4-1.8v-.4l-.1-.7.6-.3c.6-.3 1-1 1-1.6 0-.3 0-.6-.1-.8l-.3-.6.4-.4c.6-.6.8-1.1.8-1.8 0-1.4-1.1-2.5-2.5-2.5h-.7c-4.2 0-6.8-.4-7.8-1.4-.4-.4-.4-.8-.4-1.1 0-.4 0-1 .1-1.6 0-.3.1-.6.1-.8 0-.4.1-.7.1-1 .1-2.5-.4-4.2-1-5-.1-.1-.3-.3-.4-.3-.4 0-1.1.1-1.4.3 0 .6.3 3.4-.4 5.9l-.1.1c-1.1 2.1-4.4 5.8-6.7 7.6l2.8 9.6c.9.1 1.6 0 2.4 0zM442.7 454.6c-3 0-5.7-1.1-7.6-3.3-2.1-2.1-3.3-4.8-3.3-7.6 0-3 1.1-5.7 3.3-7.6 2.1-2.1 4.8-3.3 7.6-3.3s5.7 1.1 7.6 3.3c4.2 4.2 4.2 11.2 0 15.4-1.9 1.9-4.6 3.1-7.6 3.1zm0-20c-2.4 0-4.7 1-6.4 2.7-1.7 1.7-2.7 4-2.7 6.4 0 2.4 1 4.7 2.7 6.4 1.7 1.7 4 2.7 6.4 2.7s4.7-1 6.4-2.7c3.5-3.5 3.5-9.2 0-12.7-1.6-1.8-4-2.8-6.4-2.8zM442.7 450.9c-2 0-3.7-.7-5.1-2.1-1.4-1.4-2.1-3.1-2.1-5.1h1.8c0 1.4.6 2.8 1.6 3.8s2.4 1.6 3.8 1.6c3 0 5.4-2.4 5.4-5.4h1.8c0 3.9-3.2 7.2-7.2 7.2z"/><g fill="#BCBEC0"><path d="M439.6 441c-.7 0-1.4.6-1.4 1.4s.6 1.4 1.4 1.4c.7 0 1.4-.6 1.4-1.4 0-.9-.6-1.4-1.4-1.4zM446 441c-.7 0-1.4.6-1.4 1.4s.6 1.4 1.4 1.4c.8 0 1.4-.6 1.4-1.4 0-.9-.7-1.4-1.4-1.4z"/></g><path fill="#BCBEC0" d="M127.8 273.1l-22.2 3.7c-1.4.3-2.7-.7-2.8-2l-2.4-14.2c-.3-1.4.7-2.7 2-2.8l22.2-3.7c1.4-.3 2.7.7 2.8 2l2.4 14.2c.3 1.3-.6 2.5-2 2.8zm-25-13.6c-.4 0-.6.4-.6.7l2.4 14.2c0 .4.4.6.7.6l22.2-3.7c.4 0 .6-.4.6-.7l-2.4-14.2c0-.4-.4-.6-.7-.6l-22.2 3.7zM138.8 271.7l-11.2-3.4-1.6-9.6 9.5-6.9 3.3 19.9zm-9.6-5l7.2 2.3-2.4-14-6.1 4.5 1.3 7.2zM107.1 258.1c-3.4.6-6.7-1.7-7.2-5.2-.6-3.4 1.7-6.7 5.2-7.2 3.4-.6 6.7 1.7 7.2 5.2.6 3.4-1.8 6.6-5.2 7.2zm-1.8-10.6c-2.4.4-4.1 2.7-3.7 5.1.4 2.4 2.7 4.1 5.1 3.7 2.4-.4 4.1-2.7 3.7-5.1-.3-2.4-2.6-4.1-5.1-3.7zM118.6 256.3c-3.4.6-6.7-1.7-7.2-5.2-.6-3.4 1.7-6.7 5.2-7.2 3.4-.6 6.7 1.7 7.2 5.2.6 3.4-1.8 6.6-5.2 7.2zm-1.8-10.6c-2.4.4-4.1 2.7-3.7 5.1.4 2.4 2.7 4.1 5.1 3.7 2.4-.4 4.1-2.7 3.7-5.1-.3-2.6-2.7-4.2-5.1-3.7zM220.9 221.2h-1.8v-5.1c0-3.1-2.5-5.8-5.8-5.8-3.1 0-5.8 2.5-5.8 5.8v5.1h-1.8v-5.1c0-4.2 3.4-7.6 7.6-7.6 4.2 0 7.6 3.4 7.6 7.6v5.1zM220.2 222v-1.8c1.3 0 2.3-.8 2.3-2 0-1.1-1-2-2.3-2v-1.8c2.3 0 4.1 1.7 4.1 3.8-.1 2.1-2 3.8-4.1 3.8zM206.5 222c-2.3 0-4.1-1.7-4.1-3.8s1.8-3.8 4.1-3.8v1.8c-1.3 0-2.3.8-2.3 2 0 1.1 1 2 2.3 2v1.8zM216.1 225.1h-.3v-1.8c1.1 0 2-.1 2.5-.7.6-.6.6-1.1.6-1.1h1.8c0 .1 0 1.4-1.1 2.5-.7.7-1.8 1.1-3.5 1.1zM215.7 222.7c-.8 0-1.4.7-1.4 1.4 0 .8.7 1.4 1.4 1.4.8 0 1.4-.7 1.4-1.4 0-.8-.7-1.4-1.4-1.4zM90.2 321.7l-1.7-1.7c7.8-7.8 20.4-7.8 28.2 0l-1.7 1.7c-6.9-7-18.1-7-24.8 0zM94 325.5l-1.7-1.7c2.7-2.7 6.4-4.2 10.2-4.2 3.8 0 7.5 1.6 10.2 4.2l-1.7 1.7c-2.3-2.3-5.4-3.5-8.5-3.5-3.1-.1-6.3 1.2-8.5 3.5zM98.1 329.6l-1.7-1.7c3.4-3.4 8.8-3.4 12.2 0l-1.7 1.7c-2.3-2.4-6.3-2.4-8.8 0zM102.6 333.7c.1 0 .1 0 .3.1.1.1.1.1.1.3 0 .1 0 .1-.1.3-.1.1-.1.1-.3.1 0 0-.1 0-.3-.1-.1-.1-.1-.1-.1-.3 0-.1 0-.1.1-.3 0-.1.2-.1.3-.1zm0-2.4c-.7 0-1.4.3-1.8.8-1 1-1 2.8 0 3.8.6.6 1.3.8 1.8.8.7 0 1.4-.3 1.8-.8 1-1 1-2.8 0-3.8-.5-.5-1.2-.8-1.8-.8zM50 409.3l-5.7-5.7 5.7-5.5 1.2 1.3-4.4 4.2 4.4 4.4zM47 402.8h18v1.8H47zM60.6 399.1l-1.3-1.3 4.4-4.4-4.4-4.2 1.3-1.3 5.6 5.5zM45.6 392.6h18v1.8h-18zM256.7 728.4c-4.1 0-8.4-1.8-11.6-5.2-3.4-3.4-5.2-7.8-5.2-12v-.3l.1-.3c.3-.4.6-.7.8-1 1.1-1.1 2.4-2 4-2.5.1 0 .4-.1.6-.1.6 0 1.6.3 1.8 1 .6 1.4 1.1 3.3 1.6 5 .1.6 0 1.7-.7 2.1l-1.7 1s0 .3.3.6c.6.8 1.4 1.7 2.1 2.5.8.8 1.7 1.6 2.5 2.1.1.1.4.1.6.1h.1l1-1.6c.4-.7 1.6-.7 1.7-.7h.4c1.8.4 3.3.8 5.1 1.7.7.3 1.1 1.7.8 2.5-.6 1.4-1.4 2.8-2.5 4-.3.3-.7.6-1 .8l-.3.1-.5.2zm-10.3-6.6c3 3 6.8 4.7 10.3 4.7.3-.1.4-.4.6-.6 1-1 1.7-2 2.1-3.3 0 0 0-.1-.1-.1-1.4-.6-2.5-1-4.5-1.4h-.3l-1 1.4c-.6 1-2.1 1.1-3.3.3-1-.7-1.8-1.4-2.7-2.4-.8-.8-1.7-1.8-2.4-2.8-.4-.6-.6-1.4-.6-2 .1-.6.4-1 .8-1.1l1.4-1v-.3c-.4-1.6-1-3.3-1.4-4.5h-.3c-1.1.4-2.3 1.1-3.3 2.1l-.6.6c.6 3.7 2.3 7.5 5.3 10.4zM257.3 714.7l-.1-3.7-3.9-.3.2-1.8 5.4.4.4 5.3zM256.932 709.827l1.273 1.272-5.09 5.09-1.274-1.272zM182.4 584.2c-3.7-1.1-7.4-1.8-11.2-1.8-3.8 0-7.6.6-11.2 1.8-1.7.6-3 2.3-3 4.1v13c0 1.6.8 4.1 2.3 5.5 5.4 5.4 8.6 8.2 12 8.2 3.4 0 6.7-2.8 12-8.2 1.4-1.4 2.1-4 2.3-5.5v-13c-.2-1.7-1.5-3.5-3.2-4.1zm1.2 17.3c0 1.1-.7 3.3-1.7 4.2-5 5.1-7.9 7.6-10.8 7.6-2.7 0-5.8-2.5-10.8-7.6-1-1-1.7-3.1-1.7-4.2v-13c0-1 .8-2.1 1.7-2.4 3.4-1.1 7.1-1.7 10.6-1.7s7.2.6 10.6 1.7c1 .3 1.7 1.4 1.7 2.4v13h.4zM181.6 587c-3.4-1.1-6.8-1.7-10.3-1.7s-6.9.6-10.3 1.7c-.6.1-1 .8-1 1.3v13c0 1 .7 2.7 1.4 3.5 4.7 4.8 7.6 7.4 9.9 7.4 2.4 0 5.4-2.5 9.9-7.4.7-.8 1.4-2.5 1.4-3.5v-13c0-.4-.4-1.1-1-1.3zm-1.4 3.1l-9.2 3v1.4l9.2-3v1.6l-9.2 3v1.4l9.2-3v1.6l-9.2 3v1.4l9.2-3v1.6l-9.2 3v1.4l9.2-3v1.6l-9.1 3v1.4l8.4-2.7-2.3 2.3-6.1 2v1.4l3.8-1.3c-1.4 1.1-2.7 2.1-3.5 2.1-1.8 0-6.1-4.5-8.2-6.7-.3-.3-.7-1.4-.7-1.8v-12.3c2.8-.8 5.8-1.3 8.6-1.3v.8l2.3-.7c1.1.1 2.3.3 3.4.4l-5.7 1.8v1.4l8.2-2.7c.3.1.7.1 1 .3l-.1.6zM499.9 490.4c-11.3 0-20.4 9.2-20.4 20.4 0 11.3 9.2 20.4 20.4 20.4 11.3 0 20.4-9.2 20.4-20.4.1-11.2-9.1-20.4-20.4-20.4zm0 38.5c-9.9 0-18-8.1-18-18s8.1-18 18-18 18 8.1 18 18-8.1 18-18 18zM500 507.9l-9.2-5.8 6.1 9.1c.1.6.4 1.3.8 1.7 1.1 1.1 3 1.1 4.1 0 1.1-1.1 1.1-3 0-4.1-.5-.6-1.2-.7-1.8-.9zm.6 3.7c-.4.4-1.1.4-1.6 0-.4-.4-.4-1.1 0-1.6.4-.4 1.1-.4 1.6 0 .4.5.4 1.2 0 1.6zM499.9 493.6c-9.5 0-17.1 7.6-17.1 17.1 0 9.5 7.6 17.1 17.1 17.1 9.5 0 17.1-7.6 17.1-17.1.2-9.3-7.6-17.1-17.1-17.1zm0 33c-8.5 0-15.4-6.8-15.9-15.1h3.1V510H484c0-1 .1-1.8.4-2.7l1.1.3.4-1.3-1.1-.3c.3-.8.7-1.7 1.1-2.5l1 .6.7-1.1-1-.6c.6-.8 1-1.6 1.7-2.3l2.1 2.1 1-1-2.1-2.1c.7-.6 1.4-1.1 2.3-1.7l.6 1 1.1-.7-.6-1c.8-.4 1.7-.8 2.5-1.1l.3 1.1 1.3-.4-.3-1.1c.8-.1 1.8-.3 2.7-.4v3.1h1.4v-3.1c1 0 1.8.1 2.7.4l-.3 1.1 1.3.4.3-1.1c.8.3 1.7.7 2.5 1.1l-.6 1 1.1.7.6-1c.8.6 1.6 1 2.3 1.7l-2.1 2.1 1 1 2.1-2.1c.6.7 1.1 1.4 1.7 2.3l-1 .6.7 1.1 1-.6c.4.8.8 1.7 1.1 2.5l-1.1.3.4 1.3 1.1-.3c.1.8.3 1.8.4 2.7h-3.1v1.4h3.1c-.5 8.5-7.4 15.2-15.9 15.2zM345.9 616.9h-2.8c-.8 0-1.4-.7-1.4-1.4v-1.8c0-.1-.1-.3-.3-.4l-.8-.3c-.1-.1-.4 0-.4 0l-1.3 1.3c-.6.6-1.6.6-2 0l-2-2c-.3-.3-.4-.6-.4-1s.1-.7.4-1l1.3-1.3c.1-.1.1-.3.1-.4l-.4-.8c0-.1-.3-.3-.4-.3h-1.8c-.8 0-1.4-.7-1.4-1.4v-2.8c0-.8.7-1.4 1.4-1.4h1.8c.1 0 .3-.1.4-.3l.3-.8c.1-.1 0-.4 0-.4l-1.3-1.3c-.3-.3-.4-.6-.4-1s.1-.7.4-1l2-2c.6-.6 1.6-.6 2 0l1.3 1.3c.1.1.4.1.4.1l.8-.4c.1 0 .3-.3.3-.4v-1.8c0-.8.7-1.4 1.4-1.4h2.8c.8 0 1.4.7 1.4 1.4v1.8c0 .1.1.3.3.4l.8.4c.3.1.4 0 .4 0l1.3-1.3c.6-.6 1.6-.6 2 0l2 2c.3.3.4.6.4 1s-.1.7-.4 1l-1.3 1.3c-.1.1-.1.3-.1.4l.4.8c0 .1.3.3.4.3h1.8c.8 0 1.4.7 1.4 1.4v2.8c0 .8-.7 1.4-1.4 1.4h-1.8c-.1 0-.3.1-.4.3l-.4.8c-.1.1 0 .4 0 .4l1.3 1.3c.3.3.4.6.4 1s-.1.7-.4 1l-2 2c-.6.6-1.6.6-2 0l-1.3-1.3c-.1-.1-.3-.1-.4-.1l-.8.4c-.1 0-.3.3-.3.4v1.8c.1.6-.4 1.3-1.3 1.3zm-5.5-5.4c.3 0 .6 0 .7.1l.7.3c.6.3 1.1 1 1.1 1.7v1.8s0 .1.1.1h2.8s.1 0 .1-.1v-1.8c0-.7.6-1.4 1.1-1.7l.7-.3c.1-.1.4-.1.7-.1.4 0 1 .1 1.3.6l1.3 1.3h.1l2-2v-.1L352 610c-.6-.6-.7-1.4-.3-2l.3-.7c.1-.6.8-1.1 1.7-1.1h1.8s.1 0 .1-.1v-2.8s0-.1-.1-.1h-1.8c-.7 0-1.4-.6-1.7-1.1l-.3-.7c-.3-.6-.1-1.4.3-2l1.3-1.3v-.1l-2-2-.6-.4.4.4-1.3 1.3c-.4.4-1.4.6-2 .3l-.7-.3c-.6-.1-1.1-.8-1.1-1.7v-1.8s0-.1-.1-.1h-2.8s-.1 0-.1.1v1.8c0 .7-.6 1.4-1.1 1.7l-.7.1c-.1.1-.4.1-.7.1-.4 0-1-.1-1.3-.6l-1.3-1.3h-.1l-2 2v.1l1.3 1.3c.6.6.7 1.4.3 2l-.3.7c-.1.6-1 1.1-1.7 1.1h-1.8s-.1 0-.1.1v2.8s0 .1.1.1h1.8c.7 0 1.4.6 1.7 1.1l.3.8c.3.6.1 1.4-.3 2l-1.3 1.3v.1l2 2 .6.4-.4-.4 1.3-1.3c.1-.1.5-.3 1.1-.3zm4.1-2.7c-2.4 0-4.4-2-4.4-4.4s2-4.4 4.4-4.4c2.4 0 4.4 2 4.4 4.4s-2 4.4-4.4 4.4zm0-7.3c-1.7 0-3 1.4-3 3s1.4 3 3 3c1.7 0 3-1.4 3-3s-1.3-3-3-3z"/><g fill="#BCBEC0"><path d="M504.4 304.4c.3-2.4-.6-5-2.4-7.9-.7-1.1-1.6-2-2-2.5-.7-.7-1.1-1.1-1.6-1.1l-19.7-6.8c-.1 0-.4-.1-2 0-.7.1-2 .3-3.1.7-3.3 1.1-5.5 2.7-6.8 4.8-1.6 2.5-2.4 5.4-2.4 8.1.1 3 1.3 5.2 3.3 6.5.4.3.8.4 1.4.7 1.8.6 3.5.6 5.2 0 1.4-.6 2.7-1.1 3.8-2.1l8.9 3.1c.3 1.4.8 2.8 1.7 4.1 1 1.6 2.4 2.7 4.1 3.4.6.1 1 .3 1.6.3 2.4.3 4.8-.8 6.7-3.1 2-2.4 3-5.2 3.3-8.2zm-5.1 6.1c-1.3 1.6-2.8 2.4-4.4 2.3-.4 0-.7-.1-1-.1-1.1-.4-2.1-1.1-2.8-2.3-.8-1.3-1.3-2.5-1.4-3.8 0-.4-.4-.8-.8-1l-10.5-3.5c-.4-.1-1 0-1.3.3-1 1-2.1 1.7-3.5 2.1-1.1.4-2.3.4-3.5 0-.3-.1-.6-.3-.8-.4-1.3-.8-2.1-2.4-2.1-4.4 0-2.1.6-4.4 2-6.5 1-1.6 2.8-2.8 5.5-3.7 1.6-.6 3.1-.7 3.5-.7l19.4 6.7c.4.3 1.4 1.3 2.4 2.7 1.6 2.4 2.1 4.5 2 6.4-.3 2.1-1.3 4.3-2.7 5.9zM478.1 295.5l-1.4-.4.4-1.4c.3-.8-.1-1.7-1-2-.8-.3-1.7.1-2 1l-.4 1.4-1.4-.4c-.8-.3-1.7.1-2 1-.3.8.1 1.7 1 2l1.4.4-.4 1.4c-.3.8.1 1.7 1 2 .8.3 1.7-.1 2-1l.4-1.4 1.4.4c.8.3 1.7-.1 2-1s-.3-1.7-1-2z"/><circle cx="496.3" cy="300.6" r="1.8"/><circle cx="494.4" cy="306.5" r="1.8"/><circle cx="492.4" cy="302.4" r="1.8"/><circle cx="498.3" cy="304.5" r="1.8"/><path d="M483.5 300.4l-1.6-.6c-.4-.1-.8.1-1 .6-.1.4.1.8.6 1l1.6.6c.4.1.8-.1 1-.6.1-.4-.2-.8-.6-1zM488 302l-1.6-.6c-.4-.1-.8.1-1 .6-.1.4.1.8.6 1l1.6.6c.4.1.8-.1 1-.6 0-.4-.2-.9-.6-1z"/></g><g fill="#BCBEC0"><path d="M287.3 287.6c2.4-1.6 5.1-2.5 7.9-2.8h.1c.3-.1.6-.4.6-.8s-.4-.7-.8-.7c-3.1.3-6.1 1.4-8.6 3.1-.3.3-.4.7-.3 1.1.3.2.8.3 1.1.1zM288.3 290.1c2.4-1.6 5.1-2.5 7.9-2.8h.1c.3-.1.6-.4.6-.8s-.4-.7-.8-.7c-3.1.3-6.1 1.4-8.6 3.1-.3.3-.4.7-.3 1.1.2.2.7.4 1.1.1zM289.1 292.6c2.4-1.6 5.1-2.5 7.9-2.8h.1c.3-.1.6-.4.6-.8s-.4-.7-.8-.7c-3.1.3-6.1 1.4-8.6 3.1-.3.3-.4.7-.3 1.1.3.3.9.4 1.1.1zM290.1 295.2c2.4-1.6 5.1-2.5 7.9-2.8h.1c.3-.1.6-.4.6-.8s-.4-.7-.8-.7c-3.1.3-6.1 1.4-8.6 3.1-.3.3-.4.7-.3 1.1.3.2.7.4 1.1.1zM298.9 294.9h.1c.3-.1.6-.4.6-.8s-.4-.7-.8-.7c-3.1.3-6.1 1.4-8.6 3.1-.3.3-.4.7-.3 1.1.3.3.7.4 1.1.3 2.4-1.7 5.1-2.7 7.9-3zM289.1 302.6c.3 0 .6 0 .7-.1 1.7-1.6 3.7-2.8 5.9-3.7 2.3-.8 4.5-1.1 6.9-1 1.7-1.6 3.7-2.8 5.9-3.5 2.3-.8 4.5-1.1 6.9-1h.3c.1 0 .1-.1.3-.3.1-.1.1-.4 0-.7l-5.8-16.1c-.1-.3-.3-.6-.6-.6-2.5-.1-5.1.3-7.5 1.1-2.3.8-4.4 2.1-6.2 3.7-2.4-.1-4.8.3-7.1 1.1-2.4.8-4.5 2.3-6.5 4-.3.1-.3.6-.3.8l5.8 16.1c.9 0 1.2.2 1.3.2zm8.7-21.6c1.6-1.4 3.5-2.5 5.5-3.3 2-.7 4.2-1.1 6.4-1l5.2 14.6c-2.1 0-4.2.4-6.2 1.1-2 .7-3.8 1.8-5.5 3.1l-5.4-14.5zm-13.3 5c1.7-1.4 3.5-2.5 5.5-3.3 2-.7 4.2-1.1 6.4-1l5.2 14.6c-2.1 0-4.2.4-6.4 1.1-2 .7-4 1.8-5.7 3.1l-5-14.5zM300.8 282.7c2.4-1.6 5.1-2.5 7.9-2.8h.1c.3-.1.6-.4.6-.8s-.4-.7-.8-.7c-3.1.3-6.1 1.4-8.6 3.1-.3.3-.4.7-.3 1.1.2.3.6.3 1.1.1zM301.6 285.3c2.4-1.6 5.1-2.5 7.9-2.8h.1c.3-.1.6-.4.6-.8s-.4-.7-.8-.7c-3.1.3-6.1 1.4-8.6 3.1-.3.3-.4.7-.3 1.1.3.2.8.2 1.1.1zM302.6 287.8c2.4-1.6 5.1-2.5 7.9-2.8h.1c.3-.1.6-.4.6-.8s-.4-.7-.8-.7c-3.1.3-6.1 1.4-8.6 3.1-.3.3-.4.7-.3 1.1.2.3.7.3 1.1.1zM303.4 290.4c2.4-1.6 5.1-2.5 7.9-2.8h.1c.3-.1.6-.4.6-.8s-.4-.7-.8-.7c-3.1.3-6.1 1.4-8.6 3.1-.3.3-.4.7-.3 1.1.3.2.9.2 1.1.1zM312.4 290h.1c.3-.1.6-.4.6-.8s-.4-.7-.8-.7c-3.1.3-6.1 1.4-8.6 3.1-.3.3-.4.7-.3 1.1.3.3.7.4 1.1.3 2.2-1.6 5-2.6 7.9-3zM311.7 275.5h-.4l.1.1 5.8 16.1c.1.4.1.7-.1 1l-.4.4c-.1 0-.3.1-.4 0-2.3-.1-4.5.3-6.8 1s-4.1 2-5.8 3.5c-2.3-.1-4.5.3-6.8 1-2.1.8-4.1 2-5.8 3.5-.1.1-.3.1-.4.3-.1.2-.4.1-.7 0-.4-.1-.7-.3-.8-.7l-5.8-16.1v-.1l-.3.3c-.3.3-.3.6-.3.8l6.4 17.4c.1.3.3.4.6.6.3 0 .6 0 .7-.1 1.8-1.7 4-3 6.4-4 2.4-.8 4.8-1.3 7.4-1.1H304.6c1.8-1.7 4-3 6.4-3.8 2.4-.8 4.8-1.3 7.4-1.1h.3c.1 0 .3-.1.4-.3.1-.3.1-.6.1-.7l-6.4-17.4c-.4-.4-.7-.6-1.1-.6z"/></g></g></svg>